<mxfile host="app.diagrams.net" modified="2023-12-06T10:21:13.679Z" agent="Mozilla/5.0 (Windows NT 10.0; Win64; x64; rv:120.0) Gecko/20100101 Firefox/120.0" etag="s1zTeZWHfALS68SuxYgV" version="22.1.5" type="github">
  <diagram name="Page-1" id="2c0d36ab-eaac-3732-788b-9136903baeff">
    <mxGraphModel dx="1615" dy="931" grid="0" gridSize="10" guides="1" tooltips="1" connect="1" arrows="1" fold="1" page="1" pageScale="1.5" pageWidth="827" pageHeight="583" background="none" math="0" shadow="0">
      <root>
        <mxCell id="0" />
        <mxCell id="1" parent="0" />
        <mxCell id="X4Cfzik3C5HuxUFZM-TQ-130" style="edgeStyle=orthogonalEdgeStyle;rounded=0;orthogonalLoop=1;jettySize=auto;html=1;" parent="1" source="X4Cfzik3C5HuxUFZM-TQ-129" target="X4Cfzik3C5HuxUFZM-TQ-131" edge="1">
          <mxGeometry relative="1" as="geometry">
            <mxPoint x="454" y="236" as="targetPoint" />
          </mxGeometry>
        </mxCell>
        <mxCell id="X4Cfzik3C5HuxUFZM-TQ-129" value="&lt;div&gt;&lt;br&gt;&lt;/div&gt;&lt;div&gt;&lt;br&gt;&lt;/div&gt;&lt;div style=&quot;font-size: 22px;&quot;&gt;&lt;br&gt;&lt;/div&gt;&lt;div style=&quot;font-size: 22px;&quot;&gt;&lt;i&gt;Single Page Application&lt;/i&gt;&lt;br&gt;&lt;/div&gt;" style="rounded=1;whiteSpace=wrap;html=1;fontSize=26;verticalAlign=middle;" parent="1" vertex="1">
          <mxGeometry x="298.5" y="70" width="312" height="144" as="geometry" />
        </mxCell>
        <mxCell id="X4Cfzik3C5HuxUFZM-TQ-133" value="" style="edgeStyle=orthogonalEdgeStyle;rounded=0;orthogonalLoop=1;jettySize=auto;html=1;" parent="1" source="X4Cfzik3C5HuxUFZM-TQ-131" target="X4Cfzik3C5HuxUFZM-TQ-132" edge="1">
          <mxGeometry relative="1" as="geometry" />
        </mxCell>
        <mxCell id="X4Cfzik3C5HuxUFZM-TQ-131" value="&lt;font style=&quot;font-size: 19px;&quot;&gt;&lt;b&gt;Home&lt;/b&gt;&lt;br&gt;index.html&lt;br&gt;&lt;/font&gt;" style="rounded=1;whiteSpace=wrap;html=1;" parent="1" vertex="1">
          <mxGeometry x="297" y="265" width="313" height="60" as="geometry" />
        </mxCell>
        <mxCell id="X4Cfzik3C5HuxUFZM-TQ-135" value="" style="edgeStyle=orthogonalEdgeStyle;rounded=0;orthogonalLoop=1;jettySize=auto;html=1;" parent="1" source="X4Cfzik3C5HuxUFZM-TQ-132" target="X4Cfzik3C5HuxUFZM-TQ-134" edge="1">
          <mxGeometry relative="1" as="geometry" />
        </mxCell>
        <mxCell id="X4Cfzik3C5HuxUFZM-TQ-138" style="edgeStyle=orthogonalEdgeStyle;rounded=0;orthogonalLoop=1;jettySize=auto;html=1;entryX=0.5;entryY=0;entryDx=0;entryDy=0;" parent="1" source="X4Cfzik3C5HuxUFZM-TQ-132" target="X4Cfzik3C5HuxUFZM-TQ-136" edge="1">
          <mxGeometry relative="1" as="geometry" />
        </mxCell>
        <mxCell id="X4Cfzik3C5HuxUFZM-TQ-139" style="edgeStyle=orthogonalEdgeStyle;rounded=0;orthogonalLoop=1;jettySize=auto;html=1;" parent="1" source="X4Cfzik3C5HuxUFZM-TQ-132" target="X4Cfzik3C5HuxUFZM-TQ-137" edge="1">
          <mxGeometry relative="1" as="geometry" />
        </mxCell>
        <mxCell id="X4Cfzik3C5HuxUFZM-TQ-132" value="&lt;font style=&quot;font-size: 19px;&quot;&gt;&lt;b&gt;Header&lt;br&gt;&lt;/b&gt;Logo&lt;br&gt;&lt;/font&gt;" style="rounded=1;whiteSpace=wrap;html=1;fillColor=#ffcccc;strokeColor=#36393d;" parent="1" vertex="1">
          <mxGeometry x="297.5" y="365" width="313" height="60" as="geometry" />
        </mxCell>
        <mxCell id="X4Cfzik3C5HuxUFZM-TQ-142" style="edgeStyle=orthogonalEdgeStyle;rounded=0;orthogonalLoop=1;jettySize=auto;html=1;entryX=0.5;entryY=0;entryDx=0;entryDy=0;" parent="1" source="X4Cfzik3C5HuxUFZM-TQ-134" target="X4Cfzik3C5HuxUFZM-TQ-140" edge="1">
          <mxGeometry relative="1" as="geometry">
            <mxPoint x="453.5" y="695" as="targetPoint" />
          </mxGeometry>
        </mxCell>
        <mxCell id="X4Cfzik3C5HuxUFZM-TQ-134" value="&lt;font style=&quot;font-size: 19px;&quot;&gt;&lt;b&gt;Camera&lt;br&gt;Stream&lt;/b&gt;&lt;br&gt;&lt;/font&gt;" style="rounded=1;whiteSpace=wrap;html=1;fillColor=#cdeb8b;strokeColor=#36393d;" parent="1" vertex="1">
          <mxGeometry x="373.75" y="495" width="159.5" height="160" as="geometry" />
        </mxCell>
        <mxCell id="X4Cfzik3C5HuxUFZM-TQ-141" style="edgeStyle=orthogonalEdgeStyle;rounded=0;orthogonalLoop=1;jettySize=auto;html=1;entryX=0.5;entryY=0;entryDx=0;entryDy=0;" parent="1" source="X4Cfzik3C5HuxUFZM-TQ-136" target="X4Cfzik3C5HuxUFZM-TQ-140" edge="1">
          <mxGeometry relative="1" as="geometry" />
        </mxCell>
        <mxCell id="X4Cfzik3C5HuxUFZM-TQ-151" style="edgeStyle=orthogonalEdgeStyle;rounded=0;orthogonalLoop=1;jettySize=auto;html=1;entryX=0.5;entryY=1;entryDx=0;entryDy=0;" parent="1" source="X4Cfzik3C5HuxUFZM-TQ-136" target="X4Cfzik3C5HuxUFZM-TQ-150" edge="1">
          <mxGeometry relative="1" as="geometry">
            <Array as="points">
              <mxPoint x="257" y="675" />
              <mxPoint x="87" y="675" />
            </Array>
          </mxGeometry>
        </mxCell>
        <mxCell id="X4Cfzik3C5HuxUFZM-TQ-136" value="&lt;font style=&quot;font-size: 19px;&quot;&gt;&lt;b&gt;QR Code&lt;br&gt;History&lt;/b&gt;&lt;br&gt;&lt;/font&gt;" style="rounded=1;whiteSpace=wrap;html=1;fillColor=#cce5ff;strokeColor=#36393d;" parent="1" vertex="1">
          <mxGeometry x="177" y="495" width="159.5" height="160" as="geometry" />
        </mxCell>
        <mxCell id="X4Cfzik3C5HuxUFZM-TQ-143" style="edgeStyle=orthogonalEdgeStyle;rounded=0;orthogonalLoop=1;jettySize=auto;html=1;entryX=0.5;entryY=0;entryDx=0;entryDy=0;" parent="1" source="X4Cfzik3C5HuxUFZM-TQ-137" target="X4Cfzik3C5HuxUFZM-TQ-140" edge="1">
          <mxGeometry relative="1" as="geometry" />
        </mxCell>
        <mxCell id="X4Cfzik3C5HuxUFZM-TQ-137" value="&lt;font style=&quot;font-size: 19px;&quot;&gt;&lt;b&gt;QR Code Contents&lt;br&gt;&lt;/b&gt;&lt;/font&gt;" style="rounded=1;whiteSpace=wrap;html=1;fillColor=#FF8C8C;" parent="1" vertex="1">
          <mxGeometry x="567" y="495" width="159.5" height="160" as="geometry" />
        </mxCell>
        <mxCell id="X4Cfzik3C5HuxUFZM-TQ-140" value="&lt;font style=&quot;font-size: 19px;&quot;&gt;&lt;b&gt;Footer&lt;br&gt;&lt;/b&gt;&lt;/font&gt;" style="rounded=1;whiteSpace=wrap;html=1;fillColor=#ffcccc;strokeColor=#36393d;" parent="1" vertex="1">
          <mxGeometry x="297.5" y="745" width="313" height="60" as="geometry" />
        </mxCell>
        <mxCell id="X4Cfzik3C5HuxUFZM-TQ-149" style="edgeStyle=orthogonalEdgeStyle;rounded=0;orthogonalLoop=1;jettySize=auto;html=1;entryX=0.5;entryY=0;entryDx=0;entryDy=0;" parent="1" source="X4Cfzik3C5HuxUFZM-TQ-147" target="X4Cfzik3C5HuxUFZM-TQ-137" edge="1">
          <mxGeometry relative="1" as="geometry">
            <Array as="points">
              <mxPoint x="817" y="475" />
              <mxPoint x="647" y="475" />
            </Array>
          </mxGeometry>
        </mxCell>
        <mxCell id="X4Cfzik3C5HuxUFZM-TQ-147" value="&lt;b&gt;Update&lt;/b&gt;&lt;br&gt;&lt;i&gt;Once new code scanned.&lt;/i&gt;" style="rounded=1;whiteSpace=wrap;html=1;" parent="1" vertex="1">
          <mxGeometry x="757" y="545" width="120" height="60" as="geometry" />
        </mxCell>
        <mxCell id="X4Cfzik3C5HuxUFZM-TQ-148" style="edgeStyle=orthogonalEdgeStyle;rounded=0;orthogonalLoop=1;jettySize=auto;html=1;" parent="1" source="X4Cfzik3C5HuxUFZM-TQ-137" target="X4Cfzik3C5HuxUFZM-TQ-147" edge="1">
          <mxGeometry relative="1" as="geometry">
            <Array as="points">
              <mxPoint x="647" y="675" />
              <mxPoint x="817" y="675" />
            </Array>
          </mxGeometry>
        </mxCell>
        <mxCell id="X4Cfzik3C5HuxUFZM-TQ-152" style="edgeStyle=orthogonalEdgeStyle;rounded=0;orthogonalLoop=1;jettySize=auto;html=1;entryX=0.5;entryY=0;entryDx=0;entryDy=0;" parent="1" source="X4Cfzik3C5HuxUFZM-TQ-150" target="X4Cfzik3C5HuxUFZM-TQ-136" edge="1">
          <mxGeometry relative="1" as="geometry">
            <Array as="points">
              <mxPoint x="87" y="475" />
              <mxPoint x="257" y="475" />
            </Array>
          </mxGeometry>
        </mxCell>
        <mxCell id="X4Cfzik3C5HuxUFZM-TQ-150" value="&lt;b style=&quot;font-size: 12px;&quot;&gt;Update&lt;/b&gt;&lt;br style=&quot;font-size: 12px;&quot;&gt;&lt;i style=&quot;font-size: 12px;&quot;&gt;Once new code scanned.&lt;/i&gt;" style="rounded=1;whiteSpace=wrap;html=1;fontSize=12;" parent="1" vertex="1">
          <mxGeometry x="27" y="555" width="120" height="60" as="geometry" />
        </mxCell>
        <mxCell id="X4Cfzik3C5HuxUFZM-TQ-153" value="&lt;b&gt;TITLE&lt;/b&gt;&lt;i&gt; &lt;/i&gt;History" style="rounded=1;whiteSpace=wrap;html=1;fillColor=#ABC0D6;strokeColor=#36393d;" parent="1" vertex="1">
          <mxGeometry x="187.5" y="505" width="139.5" height="30" as="geometry" />
        </mxCell>
        <mxCell id="X4Cfzik3C5HuxUFZM-TQ-154" value="&lt;b&gt;TITLE&lt;/b&gt;&lt;i&gt; &lt;/i&gt;Scan Status&lt;i&gt;&lt;br&gt;&lt;/i&gt;" style="rounded=1;whiteSpace=wrap;html=1;fillColor=#FFA099;" parent="1" vertex="1">
          <mxGeometry x="577" y="505" width="139.5" height="30" as="geometry" />
        </mxCell>
        <mxCell id="X4Cfzik3C5HuxUFZM-TQ-156" value="" style="shape=image;html=1;verticalLabelPosition=bottom;verticalAlign=top;imageAspect=0;image=data:image/png,iVBORw0KGgoAAAANSUhEUgAAA+gAAAEsCAYAAABQRZlvAAAAAXNSR0IArs4c6QAAIABJREFUeF7snQeYVOX1/7/nTtsysxQRsWPXYEFBxY7tpyYaTRQSsaBGxfwNsWGMiYbVWBHFbjRRiZqYiLHHgiL2DnZAQQWU3reXmXv+zxkGA7gze6ftzsx+3+fZhzzZt37e9173e895zxGwkAAJkAAJkAAJkAAJkAAJkAAJkAAJdDoB6fQZcAIkQAIkQAIkQAIkQAIkQAIkQAIkQAKgQOchIAESIAESIAESIAESIAESIAESIIECIECBXgCbwCmQAAmQAAmQAAmQAAmQAAmQAAmQAAU6zwAJkAAJkAAJkAAJkAAJkAAJkAAJFAABCvQC2AROgQRIgARIgARIgARIgARIgARIgAQo0HkGSIAESIAESIAESIAESIAESIAESKAACFCgF8AmcAokQAIkQAIkQAIkQAIkQAIkQAIkQIHOM0ACJEACJEACJEACJEACJEACJEACBUCAAr0ANoFTIAESIAESIAESIAESIAESIAESIAEKdJ4BEiABEiABEiABEiABEiABEiABEigAAhToBbAJnAIJkAAJkAAJkAAJkAAJkAAJkAAJUKDzDJAACZAACZAACZAACZAACZAACZBAARCgQC+ATeAUSIAESIAESIAESIAESIAESIAESIACnWeABEiABEiABEiABEiABEiABEiABAqAAAV6AWwCp0ACJEACJEACJEACJEACJEACJEACFOg8AyRAAiRAAiRAAiRAAiRAAiRAAiRQAAQo0AtgEzgFEiABEiABEiABEiABEiABEiABEqBA5xkgARIgARIgARIgARIgARIgARIggQIgQIFeAJvAKZAACZAACZAACZAACZAACZAACZAABTrPAAmQAAmQAAmQAAmQAAmQAAmQAAkUAAEK9ALYBE6BBEiABEiABEiABEiABEiABEiABCjQeQZIgARIgARIgARIgARIgARIgARIoAAIUKAXwCZwCiRAAiRAAiRAAiRAAiRAAiRAAiRAgc4zQAIkQAIkQAIkQAIkQAIkQAIkQAIFQIACvQA2gVMgARIgARIgARIgARIgARIgARIgAQp0ngESIAESIAESIAESIAESIAESIAESKAACFOgFsAmcAgmQAAmQAAmQAAmQAAmQAAmQAAlQoPMMkAAJkAAJkAAJkAAJkAAJkAAJkEABEKBAL4BN4BRIgARIgARIgARIgARIgARIgARIgAKdZ4AESIAESIAESIAESIAESIAESIAECoAABXoBbAKnQAIkQAIkQAIkQAIkQAIkQAIkQAIU6DwDJEACJEACJEACJEACJEACJEACJFAABCjQ29iERx55pKeI9HNdt7eIiOM4WgB7lfUUYrEYQqHQe8cdd9y3WXfWRTt45JFHdnAcZ+dSWb7ruvYOaHFdd86MGTO+qK6ubiqVtXEdJEACJEACJEACJEACJFBsBCjQEzumqlJfX9+7srLyCADHAtgfQI9i21AP8/2ViDzooR6rtEFAVf8IYHQJwbF3QAzA1wBeBfDkPffc89qIESMaSmiNXAoJkAAJkAAJkAAJkAAJFAUBCnRAqqurNxw9evQJAE4EsCuAqqLYvfQn2QLgdBH5Z/pN2cIIqOolAK4FUIrPjnmKLALwFoC/X3/99a/+/ve/X8WdJwESIAESIAESIAESIAES6BgCpSgyPJO74YYbKkeNGnUggAsB7AOg0nPj4qxoAn2YiPynOKff+bNW1XMB3FaiAn0NYBPqywE8BeCue+6556MRI0a0dj59zoAESIAESIAESIAESIAESptAlxTo1dXVzujRo7cE8P8AnF3CFvP1T68J9F+KyOOlfazztzpVPQfAnSUu0NcGOAfAzTfeeONDo0aNWmZOBPmjy55JgARIgARIgARIgARIoGsT6HICfciQIb5HHnnkIABXAtivi22/WUFNoD/Wxdads+Wq6q8B3NGFBLqxa05Y068UkWkA3JwBZUckQAIkQAIkQAIkQAIkQALfE+hSAv3ZZ58NHXXUUcMBXA2gVxc8BxToWW56FxXoRs0s5zMBnD9hwoSJQ4cOtcByLCRAAiRAAiRAAiRAAiRAAjkk0GUEekKc2/3hagCRHDIspq4o0LPcLVW1axG3dzEL+trUFgD47YQJEx6nSM/yMLE5CZAACZAACZAACZAACaxHoEsIdFV1AFwF4DwAFTk6BWvu4hbbnVxzcZ+QIwZdrhtV/S2Am4ps4facr/nJxdQtgNylAP4qIsV2/nOxfvZBAiRAAiRAAiRAAiRAAnkhUPIC3fKbA7gMgKXHyjZKu7n1miBZCGBWIne0Bc6qB9BYBAG0fAAeE5Ev83KaukCnqroTgN0TucML+fmxc1oOIAygN4BtAGwPYNuEB4mdhWzK0sQHr4cp0rPByLYkQAIkQAIkQAIkQAIk8D8ChSwwst4ns5w3NzefGwqF/gygWxYdzgMwBcBkAO8C+OrUU0+tX7p0aTQcDuvXX39dNFbEKVOm2EcGBvnK/DDIkCFDzCOjKMqSJUtk8eLFTu/evZ3JkyeHAGya+MDwf4nUglsDyFSsL2xpaTknFAo9WRQwOEkSIAESIAESIAESIAESKHACpSzQRVVNhPwDwAYZ7sN3AMwd/LFp06Z91K9fP7OUF40Yz3DNbFb6BOSbb74J9e3b17wBfgLgRAA/ynDZ5o1xvIh8lmF7NiMBEiABEiABEiABEiABEkgQKFmBftddd216zjnnPA9g5wx2exWAf9sd24kTJ04/4ogjTJizkEDJEUgETzQr+ikAzgCwUZqLtA9Wz95zzz0njRgxwp4bFhIgARIgARIgARIgARIggQwJlKRAv/766yO/+93v/gZgaAZczJX9qnHjxr1w4YUX2r1yFhIoeQK33npraOTIkfsCuBzAgWm6vduViTH9+vUbPW3atJaSh8UFkgAJkAAJkAAJkAAJkECeCJSiQDfXdst1fi+AdO4K291ss5pfccUVV8yqrq7mPe08HTp2W7AE7NnZDMAfAJyVpkivAXCsiLxSsKvjxEiABEiABEiABEiABEigwAmUnEBXVYtW/SiA/mmwbwbwt1deeeWygw8+eGUa7ViVBEqOwOTJk8ODBw/+PYDz08x88CyA4SJiEd5ZSIAESIAESIAESIAESIAE0iRQUgL97LPPDtx9992WUu2PaVj/zCX3rilTpvxh4MCBxZAqLc0tZnUSSJ/AzJkzQ9tuu62lJrR852Uee7BYDSNFZDyDKXokxmokQAIkQAIkQAIkQAIksBaBkhLoiRzVFnW9n8ddNrf2B6dMmXL2wIEDWz22YTUS6BIEPvjgg8CAAQPGAvg1gIDHRU+64IILTrn55psXeKzPaiRAAiRAAiRAAiRAAiRAAgkCJSPQE9bzcwGMS2N33542bdov+/XrNzeNNqxKAl2GwNSpUzfcfffdHwZwCAAv7wu7LnLSFVdc8TjjOHSZY8KFkgAJkAAJkAAJkAAJ5IiAlz+4czRUfrsZOXLkZrfeeuvTadw9XwjgVBF5sa2ZPfLII77dd9/dv9122zWrqogI85/ndwvZe4ESUNW9ADwCYEuPU3ziwgsv/NW4ceOWe6zPaiRAAiRAAiRAAiRAAiRAAh4tYgUPygS0RZAGYO7tfg8Ttnvnt4vIxQDajNZ+//33dz/xxBN7hkKhbyjOPRBllVImYNHdLbK7pWALeVioCfP/ExFLWchCAiRAAiRAAiRAAiRAAiTgkUBJWNCrq6v9o0ePtsBUJ3lc9/SXX3758EMPPXRee/XvvvvuwEknnXSFiHR3XdfurMdU1RURX3tti+z35iFg58H+LQuHw2NE5OsUa5C6urpxqmqp7KzNmvaFuGzzgFgQDoevSxW8rK6u7khVParA15JLvj7Xdd/p1q3bQ+11+vzzz298xBFHPAHArOntFTsLV4pIdXsV+XsSIAESIAESIAESIAESIIH/ESgVgR4cPXr0ZwC287C5Jh4uv+KKK65t746sublPmzbNN2rUqJkisoWHvkumSjAY3D8QCLyZSqDX19fXppmGq9P4uK77eSQS2TWZx4RNrL6+3qL/X9Vpk+yEgVX1gXA4PLy9oe1ZGDJkiAWLu9ljhoS3RGR/RnNvjyx/TwIkQAIkQAIkQAIkQAKlKdC/ANDXw+bOfuONN4474IADPvZQF0OGDAnef//9H4vIjl7ql0qdYDC4byAQeLtUBLqqTg2Hw3umEuh1dXWXiMi1pXL1w8tZVNXx4XD4dC91x40bt9P555//bwC7eKg/TUR2pkD3QIpVSIAESIAESIAESIAESCBBoJQs6F4F+t/uueeeUSNGjFjl5RSYQL/33nvf9Pl8A73UL5U6pSbQXdf9MBKJ2B62GXPA9q2uru5SEbmmVPbQyzrSEeg33HBD5ahRo+wDxkgPfVOge4DEKiRAAiRAAiRAAiRAAiSwNoGuJtAbAYwQkQe9HgMT6OPHj7dgV2YN7DKliwp0WtDbOeGqegKAewD0aKcqBXqXeVtwoSRAAiRAAiRAAiRAArki0NUE+lcAhonIe14Bjhw5MnTddddNA7C11zalUK+iomJfESklF/ePwuHwgPZc3AFcJ1ISj4WnY6iqfw+Hw6d5qmz+6qrm3v4PD27uFOheobIeCZAACZAACZAACZAACSQIlIQSqa6utiBxXlzcJ1mkdxFZ5PUEmEC/5pprpjmOQ4G+LjQppiBxqupJoHfBO+jpCvTuAMwD5Wha0L2+RViPBEiABEiABEiABEiABLwR6GoC/e8AzhKRVm94sCZI3CciskNbbVQtKDxQalbXjrCgG7uO4kaB3vaJT+cOuvVQXV3tjB49+ja7KtJONHda0L2+ZFiPBEiABEiABEiABEiABBIEupJAjwKw3N6WSstzSURx/0hEdkoi0C3omLqu2+Q4TiY8rU0m7dZMZ00O8vbWJKpqDCwnuCMiFakadIRAt/Fd121t64OJqhqTqIgY34jNub0Fpvp9LgR64mNMQ5rzyHZ/1x6u3b12Xdd1HGcNK03sc9Lzla5At8mo6u8BjAZQloIFBXqaB4XVSYAESIAESIAESIAESCAbYVgw9Dy6uJuw+oOI3JLOxBNB4qYC6Jesnap+UVlZuReA5nT67oy6Q4cO1QcffPC0WCx2dyEIdMdxrjrvvPOuvPvuu9sU4CNGjHBvuumm50XkkGx45Uiguz6f75CysrJ3splLR7U999xzNx8zZsxUEYmkOLue06x9/0VI9RwAYwFUUqB31G5yHBIgARIgARIgARIgga5AoCsJ9DoAF4mIRaD2XBIW9CmJnM5ttlPVGZdffvke48aNsyjxBV9aWlrObm1t/Usqy31HWdBjsdg1VVVVKb0a6urqJovI4GzA5kig6+OPP37QKaec8no2c+motsOHD9/mzjvv/AhAOMcC3YLK3WqeDRToudtNVe2TCEbZG0AvAN0AhBI/5v1iHxntHWP/LgUw135EZGXuZsGeSIAESIAESIAESIAEOpNAVxLotQAuEJF70wGeEOgfiIhFr04m0L+orq4eMHbs2Pp0+u6sui0tLWe1tLTcbb7uyeZAgd72Vj/xxBODTzrppNc6a+/SGdcE+h133GEW9KocC/STAdxJgZ7ObqxbV1W3A2AfnfYEsAcAu0KT8tpJitHs3fYZgPcTP++KyMzMZ9e5LVXVPig930mzsCs19jGkBYB91F0BYEHiY8gMANNFZFknzY3DkgAJkAAJkAAJdAECFOjtbHJCoNsfvP1LSKCf2dLScg8F+ro7WldXlzIPut1Bf+yxxwafeuqprxbDu4ECvXB2SVV9AA4EYHnkjwGweZ5nNwvAUwCeBPCmiMTyPF7OuldVyxRgwrhQy2wAds3lFQBPpJMVpFAXxHmRAAmQAAmQAAkUDgEKdA8C/b777nvbcRyzcrVZ7A56kVnQKdDb2EkKdG8vJlWlBd0bKguot5lljgDwKwCbemyW62rmCn8XgL+JiLnGF3QpAoG+Nj+zuE+2mAwi0llW/4LeT06OBEiABEiABEggPQIU6B4E+v333/+WiAxIIdC/HDt27IDq6mpziSz40tLSQoFOgR4nkGEUdwr0dp7yhAu7Rbs/BUCgQF4KTYkc9tUiMr9A5vSDaRSZQF97/hZM9Nci8l6hsuW8SIAESIAESIAECp8ABbo3gf62iKSyoFOgZ3jWOypInOu6H0UiEfvIYhavNosXC/pTTz01eNiwYXRx5x30Ns+Qqto98j8BuLCAhPn6c7Ugczcl0k7a/fWCKkUs0I2jvV8sPsMoESn4rB4FtfGcDAmQAAmQAAmQQJwABXqOBPqVV145cMyYMUn/2K2urnY+//xz/+eff57Xo1deXq5TpkxpTTVIrizodXV1K0SkPMVYlns9kCIWHSzN2v77739lY2Njm2fR1vPqq6++ICIHJxsnkZ/c8qlbnvAflERO9S/C4fBuHSDQZcCAAf5k68nV5vfr1w8TJkywfW5zzTYO76Dnira3flT12ER0+y28tej0WvPsmIjIpE6fyVoTKHKBvmYlbwP4Ge+nF9LJ4lxIgARIgARIoDgIUKB3kECfPHnyYXvuuefwVAIx2yNjQth13W8jkchlHSHQ33rrrVM0oY7b0sUVFRV9tt9++xtSCWsR+VRVLfq0P0k9E6FHi8hGKfpxZ8+efc6qVavMhTdZWb7ffvs9m0rQ5sKCPm7cuO5nnXXWOABt5nXPdo/XtLePEfPnz//tdtttV5OsTwr0XNFO3Y+qWpT88SbIOmbEnI5iH3huAXCpiKR6fnI6aKrOSkSg2xLnANhHRCwKPAsJkAAJkAAJkAAJeCJAgd4OpkQU96xd3CdNmnTOoEGDLFBTvsuUysrKgakGyZEFvd11qOr2DQ0NX7RbMcsKqho7+uij+7zyyitZBcDKhUC/7bbbNjnjjDMsxVWmKbO80miaNWvWlrvttttiCnSvyHJfT1W3BvA0gB/lvvcO7dE+kh1TCBbfEhLotoF2L/1AESmKFJwdeuI4GAmQAAmQAAmQQJsEKNA7SKBPnDjxnP322y/vAl1Vp4TD4UIR6Ds2NDRMz/ezV4AC/UsAlXled+OsWbP6UqDnmXKK7lXV8pg/CmCDzptFTke29GFHiYjl++60UmIC3Tj+XURO6zSgHJgESIAESIAESKCoCFCgd5BA7ygLOgV65s9fDi3oFOjANBHZOdWVgsx3qvNbqurPAfyrgAPBZQrJ8o8fJiJm+e2UUoIC3TjuLyJvdgpQDkoCJEACJEACJFBUBCjQO0ig04Kev+eiIy3ojz322OBTTz01aRT3hIs7BXoJC3RVPRDARACh/J3qTu15CYADRCTv11PaWmWJCvSXReTQTt1VDk4CJEACJEACJFAUBCjQKdDbJFBRUbGviFgk4oyLqpacizsFejx3epfNg66q5hXwOoDuGT8YP2xogdo+TtxX/giA/SwCsBKAWbRjAMIALBhdTwDbA9gp8XMAgM1yOJc1XX0LYD8RsX87tGQo0L8B8HUGE7VgjhYvwvjatRQLRpkqM0UGQ3zfpJ+ITMumA7YlARIgARIgARIofQIU6BTopSDQo0cfffTGHREkjgK96wp0Vd0UwLsA7N9clHcS0d+fyCY4m6r2AzAUwOkANs/FxBJ9fJAQ6S057LPdrjIU6FeISHW7nbdTIZGS0dLk2UeQvQD8BMDeOcrKcK2I/CHbObI9CZAACZAACZBAaROgQKdAL3qB7rpuy3HHHbfJpEmTlmXzuHq5g06B3qUF+vMAjsjmjCXaPgngahGxyOk5K6rqA3AcAEuz2D9HHd8iIufnqC9P3XSmQG9rgqraG8AFAH6TsLR7WkcblaaLSLFH+8907WxHAiRAAiRAAiTgkQAFOgV6Zwt0yxU8MyEu2ppLFMBAEemRbKvsDvr48eOPmzVrVl1bdVzXFdd1a2+//XazCCYtFOje3hpd0cVdVc8CcI83QklrfQbg1yLyRpb9pGyesAIPA3AzgF45GOunImKp5DqkFJpAX7NoVTWW/wRweIYg7CpDTxGxqwssJEACJEACJEACJNAmAQr0dg5GseVBL7Yo7q7rXvXcc8/9eeHChW2exT59+uiPf/zj50TkkBQCHSLSlOL3IiJfVlZWmlXRTVaPAt3bW7KrCXRVNZfnTxN3wL1BWreWCbPbAfwu1TnNpONUbRKC8lYAJ2bZt91D31FEGrLsx1PzQhXoNvnEh0T7UHOGp8X8sNIRImIBBllIgARIgARIgARIgALd3BRF5N50zkKuBDqjuLdNPRaLXVNVVfXHVHvS0NAwOZFzOp2tW6euqn6YyA9Pgb4WGVUdHw6H7e6y59IFBfoLAP7PM6B1K5q19EQRMff4TimqavfTH8gy6vyfReRPHbGAQhboCZEeBPAegN0y4HGZiFydQTs2IQESIAESIAES6CIEaEFvZ6Mp0DN/ErxEcfci0Ovq6iaLyODMZxK3fFGgtwGQAj31qVJVE+Ym0DMpnZ5TfM2kVdU8UJ4AEMlkIQDMQ2UHEZmbYXvPzQpdoCdE+iAAmWS5uEtE/p9nGKxIAiRAAiRAAiTQ5QhQoFOgt0mgo9KseRHotbW1kx3HyVagfxQOhwfQxX3d7aZAb1egWyC3gRn8l8ECFh4uIh9m0DYvTVTV1mGW/A0yHKBDAsYVg0BPiPQZ9tEiTZb/EpFsrxykOSSrkwAJkAAJkAAJFBMBCnQK9E4V6NFo9Opu3bpZ1OmkJUcWdAr0NghToCc/dwmr86QMXuiWluwgEbE0agVVVPVAAC8BCGQwMQvCuHm+g5wVkUAfC+CiNDk+LyJHpdmG1UmABEiABEiABLoQAQp0CvROFeheLOgU6G1uUeOsWbP67rbbbouTHeHhw4dvc8cdd0wVkapkdSjQUwr0pwAck8F/D84XkVsyaNchTVR1FIAbMhzs9yJyfYZtPTUrIoF+XiJSvqd1JSq9ISIHpNOAdUmABEiABEiABLoWAQp0CvROFei0oGf8wqFAzxhd+w1VdWMA3wFw2q+9Tg0LHraPiCQNRphmfzmvnohEbven98yg87zn8i4igW7B9/6dJkNa0NMExuokQAIkQAIk0NUIUKBToGck0C3X8oQJEwJbb721pZBqswwYMGDb+vr6T5Ld+1ZVJxaL3dS9e/dLUm0DLeht0qFAz+PbWlUvBHBjBkOYOC841/b116Gq+wB4K4P1WZMficj0DNu226yIBPpJAB5qd0HrVuAd9DSBsToJkAAJkAAJdDUCFOgU6BkJdABSV1f3koiE1upgjVi3c2X/e/lZZ511o4jE2hpERBzXdef+85//nEOBnvarhwI9bWTeG6iqWZgtUnc6ZaKIHJFOg86sq6oWMC6T+f5JRP6cr7kXkUC/FMA1aXJgFPc0gbE6CZAACZAACXQ1AhToHSTQJ02adM6gQYPuyvcBU9UpiXzfSYdqaWk5s6Wl5R4RSbr/HqK4S319fS2AymQDua47PRKJ/CjbNdOC3iZBCvRsD1aS9qraE8CSDNzbj+rMfOfp4lDVQxMB49Jt+p6I7J1uI6/1i0igPw7gOK/rStQr6PgEaa6F1UmABEiABEiABPJAgAKdAr1NAjkS6NMikUi/bM8tBToFerZnKJ32qprJ3eJvAfQt5Lvn6zOwayoAvgCwXTp8ALQCqBIRy42e81IMAj0xx3kAKtIEcKCIvJ5mG1YnARIgARIgARLoQgQo0DtIoE+cOPGc/fbbr6tZ0CnQ8/cyoQU9T2xVdRyA89PsfpyI2L31oiqqaikOM3FX319E3szHYotEoF8L4Pdprt8CB3YTEUtXx0ICJEACJEACJEACbRKgQKdAb5MALeg/xKKqeOyxxwafeuqpryY7NrfddtsmZ5xxxpepXP9z9C6iQM8RyPW7UVULnmZB1NIph4lIJjnT0xkj53VVdVcAH2fQ8cUiYnnAc14KXaCr6kAAFgjQl+biXxcRy0PPQgIkQAIkQAIkQAJJCVCgU6BToCcI1NXVXSIiZhlr87mgQF8NSlVPBnAngEiKx2eaiOycCBZYVK9gVa1pZ23rrydq9fPl8p1veKo6G8CWaY5zn4j8Ks02nqoXskBX1f4AngPQx9Ni1q30/0Qk715UGcyLTUiABEiABEiABAqIAAV6jgT6lVdeOXDMmDEWNK3NQhf3zE8976C3yY4W9MyPVNKWifzn89Ps+mMRMeFWlEVV/wXgF2lO/mURsSBzOS+FKNBVNQBgBICr7f59Bou2jzgbi8jSDNqyCQmQAAmQAAmQQBciQIFOgd4mgVJzcXdd9+NIJLJHspzsBiGHFvSZGQSPSve1Q4GeLjEP9VV1fwDpBvF6SERO8dB9QVZR1YsApOuu/rWIbJOPBRWSQFfVnQAMATAcwNZZrPdeETkzi/ZsSgIkQAIkQAIk0EUIUKB3kEB/6aWXDhs0aNDpqQRitmfOojKLyNxwOPyHVH11YJq1doPEzZw5s5+IDFDVH+RKdxxHXdf19enTZ4CIbJBwl077zBoXn883r6KiwoI6rcnV/gNEXgT6k08+edBJJ530WjK+d955Z49TTz31ljVu8q7rquM4ac851f65rgtjM2PGjJEDBw5clazu8OHDt7njjjumikhSi5+qjg+Hw3YuPZdSdnFXVRNjj3iGsbriNSLyxzTbFEx1Vf0/AC+kOSGL5B4SkaTPU5r9fV+9IwR6IoK9WcX9iXgR9ozYO2YrAPbhYQAASyW3aabrWKudRbvfTkS+y0Ff7IIESIAESIAESKDECeRUOHQWq+rq6uDo0aMtXVDfFHMw9/MLROTedOY5ZMiQ4P333/+2iJj1tc2iql+25+JuOZUHDBiQblChdKYarxuJRPSVV14xd8qkpZAEen19vQmb0Xa/O1m56667jvzXv/6VrlVzne68cPEg0PXJJ58cnEqgmzAfMGCA/dGf9zJlyhTb56TgKNDT3wJVPRfA7Wm2LOq7xaq6I4Dpaa7ZqodFpD6DdimbZCjQcz2NXPZ3o4iMymWH7IsESIAESIDTOatEAAAgAElEQVQESKB0CVCgt7O3ORToBXOKCkmgNzY2/t51XQvMlrT84Q9/OOiWW25JarXOFVgvAv3xxx8/6JRTTsnqY0Gu5ttePxTo7RH64e9V1T4YXZVmy1NF5ME02xRMdVWttBseGUyot4gsyaBdVxLoXwHoz9RquT4l7I8ESIAESIAESpcABXqOBPrYsWMHVFdXZ/JHboefLgr0tpFToHs7iiXu4n4lgMu9kfi+1gki8p802xRUdVVtAWAu3+mUviIyJ50GXuqWkAW9AcBBIvKBl3WzDgmQAAmQAAmQAAkYAQr03Aj0L6qrqweMHTs25+6e+TimFOgU6GsI8A76umdBVa8H8Ls0n7uhIjIhzTYFVV1VVwLoluakdhKRGWm2abd6iQh0u6NvH26eanfBrEACJEACJEACJEACaxGgQKdAb5NAR0Vx9+Liftlllw0eN27cq/l+cmlB90a4xC3olkYrZZDFNiidLiLjvdHLTa3EvXFXRL7MRY+quiCD3N4W+GxWLsZfu48SEOiNAOyjzTO5ZsP+SIAESIAESIAESp8ABXpuBPqMhIu7uTQWfGlsbDwzFovdLSJOsslSoP+QjKoq76ADJS7QTZybSE+n/EZE7kinQTZ1VfVAAE8k+jAr7cvZ9GdtVXU5gB5p9rN5PiKTF7lAnwvgZyIyNU2WrE4CJEACJEACJEACcQIU6DkQ6CLyxZ/+9Ce6uK/H0nXddtOsFZMF3XTMk08+eeCwYcPeKIb3xxlnnLH1rbfeOkVEuiebL13c1yWjqucBuDnN/b1aRC5Ls01G1VX1lwDMWh9KdGCu1OeKyF8z6jDRKMM76BuKyNJsxm2rbRELdNsXyxRi1wVYSIAESIAESIAESCAjAhToORDolmbtvvvu23PMmDH2x3JBF7/fb/mzT4vFYnelmmixWdD79u1bFo1Gk57nsrIyd+bMmS2p8jZ7cXGfOHHiwRdeeOG7qcYqlAMwbNiwLUaPHm0BqsIU6N52RVXPBJCu2P23iJhwzmtRVbsbf12SD6vjAIwSETfdSahqGQBzy06nWHo/y4Oe83deEQp0y+rwexF5Kx2ArEsCJEACJEACJEACbREoJYFudzG3TLHNFsDtvDzlQbc/ii2Cu/3Rmjyhd+eewfhe2x/w9ge5iJSXikBXVae+vn6+iIRU1da5/h6Iqk6PRCL7AUgqYNoT6MZLVetNlKTK257guv6z9YM5rc1fRKzvXDyP359BVfU5jmPiPGm/WVjQ/wLA0nMlKzNE5EcF/Dy0OW9VPQZAuoG9zEthYL4eb9tHALcB+HU7Y9id52EiUpvOXFR1IwAL02kDYLGIWLuclyIR6E2Jawa3UZjn/AiwQxIgARIgARLo0gRyIQg6HWB1dbV/9OjRTwPomWIy9gfVjelG1fWSB73TAeRhAsVkQU8I9IUismEyFKo6NRwO75mtQM8D6k7tMkOBfpRZDAGY5TVZWSAiPytCgb4TgGlpboqlKOsuIulaodsdJpGj/GEA9uHAS/nU6qaT/kxVDwDwmpfO16rzsYj0T7ONp+pFINAfSFwrKIq0mp6gsxIJkAAJkAAJkEDBECgJgW40VdVy+KZczxVXXBGtrq5OywU0IdDfEpEBBbNrHTCREhToH4bDYbNyZmVB7wD0HTpEJgK9urraGT16tL+diWo+3J/zDUdV7W63BXtMGkAxyRwOEZHJuZxfwrJtVvF0rfOLARwnIm97mY+qngMg5ZWXNvp5UkSO89J/unWKQKDXAOgvIt+kuzbWJwESIAESIAESIIH2CJSMQG9voZn+PiHQ382XtSjTeeW7XY4EurmVm5tz0pKLIHEJC/oiEemVbCDXdT+KRCL2kSWVQL9URK7JN9tC6j8TgV5I88/HXFR1DoAt0uz7GhH5Y5ptklZX1R0APAdgqwz7NI+hX4nIP9trr6q3AhjZXr31fp+3wHgZCvR3AbyTxhq2B2CeIJkWG+sAEYlm2gHbkQAJkAAJkAAJkEBbBCjQ2zkXZ599dmDs2LFv+nw+c4/uMiUYDO4bCARSWeCkvr7e7romvYfsuu5nkUhkl1TQcijQc+HifrEF4UqVfq7UDgAF+g93VFUfs1RZae61WVO3SRWEMJ3+VPVcACac07Xkrz/MnwGMTjUvVZ0CYI905gfglyLy7zTbeKqeoUC/QkSqPQ2w2uMqCMDeb+mue+0h8vaRwus6WI8ESIAESIAESKD0CFCgt7OnXfgO+j4iksoi5UWgfx6JRHbuIIGetQW9oaHhEtd1TaCX3pOeZEUU6G0K9AsA3JTBITCLas5S8KmqWXjNAp40TZ7HOT4C4LS27sir6mYAvvXYz9rVdhARC8yZ89IRAt0mrapmRbd85amCHaZan3njHCoir+QcAjskARIgARIgARLosgS6jhLJcIvNgn7TTTe9ISJ7ZdhFUTarqKgYJCLmNpqseBHoHeni3p4F3csddEuVdG1RbliGk6ZAb1Og21UIS0+XbvmPiJyQbqNU9VV1u0S08JRXRTyM+T6An4rIOtHaE5b62z20X7uKBQDcJM02nqt3lEBPiPTTAdzneXI/rPgdgN1EZHkWfbApCZAACZAACZAACXxPgAK9ncNgFvT77rtvquM4/brSuQkGg/sHAoE3U6zZi0Bv18W9rq7OcjffkIrtZZddNnjcuHGvJquTuINuaZ82SFbHdV37WGDW/KR30Ovr6y8DYC7BXak8UFlZObwrLbi9tSbSmi3NwHJtKe52EZHP2xsjnd+ragSARQ7PNiibWcpNpH+0ZnxVNTfvQenMx6z6InJSmm08V+9IgZ4Q6f8C8AvPE/xhxcdF5OdZtGdTEiABEiABEiABEqBA93oGLIXbqFGjzOV107VSRtkf4iXzccNyeq/l1m150kPhcNhS0qWKUuxFoM93HOdK13VD0obfuKrGHMc5XFVNNCTdEg8C3eZyHQC7V/qDYvnFRWRBZWXlmFR3cevq6g4H8OPEPpfM/qY463a/+b1wOPwPr89DV6mnqn+zIGsZrPcpETk2g3Ypm9gZBvAnu0+e5bunHsBJIvKkqh4CYFIGcz1VRB7MoJ2nJp0g0LsBsI8WfT1NsO1KvxaRv2TRnk1JgARIgARIgARIIE6gK4gQbnV+CLQr0HM1bHsCPVfjsB8SWENAVQ8G8HKGRI4XEQs0l/Oiqib+TRybVT3TYl4klwI4AoCJ9HSKRYffSEQs1VheSkcLdFuEqu6byAXvy3BRjZYOT0SmZdiezUiABEiABEiABEggToACnQchUwIU6JmSY7uCJ5CwWM8FYEHU0i0LEnmyLR95zouq7gTgSQB2P72jS97duTtDoCdEunkoXJEF0E8A7CUizVn0waYkQAIkQAIkQAJdnAAFehc/AFksnwI9C3ipmlYnUmt9nviAtgSQwYkGa8JFbwhoP8CuWqB69b/x/82SOwKqmk1MgtcTEb5bczej//WkquaWbRHe7UpGR5afiMiz+RywEwW6Wc8nW37zLNZ3m4j8Nov2bEoCJEACJEACJNDFCVCgd/EDkMXyKdCzgLd20w/OPjvQ8ul/egcivXtsvmLOVhu6Tf1dOIHW8nBViy8QiblartCACwsV4ET9QFMQbn0w1lDjb25uXoHQ0q97bva+tDQua4g6yw54Y+6KHE2tS3eTEIpzAFRlCMJc0S29WdLAhBn2G29mwREBXJVwV8+mK69tvwCwU65yvScbtLMEeoLp5gA+BtDDK5Q26h0jIs9k0Z5NSYAESIAESIAEujABCvQuvPlZLp0CPU2AZhk/aDCcaO3WlVv1kc03XDJvj2CgfIcGxdaRppXbwV/WE4ht7GttCdqDqSJwkYiet/aTqmZit6hhGrebu+JT1x9c5ou1Lm0U3+JYRfiTioa67xaVd5/6wnaLpm+8YNtl7+09q7W6OnkE+zSX0mWqq+o1WQpgs3IPF5FovqCp6hAA92eRz9vr1DokEFpnCvSESD8ewKNeobRRzzIA7GqBKbPog01JgARIgARIgAS6KAEK9C668TlYNgW6R4j3D+5btnV9zYaDpHH/WLCsP5oaB4uDTXyx1m4+oCymEvBjXf2WzoO5tm+7KybbfTEf3NZmCdQG4a5q8pV9Bp/z7Mu17utuVWjesW8uraNLvLfNU9VeAGZmkHJt7QEsReAvRGSRt1HTr6WquybypW+VfmtPLb5OWM9bPNXOolJnC/SESL8HwFlZLOMlAP+Xb2+DLObHpiRAAiRAAiRAAgVKIB0dUKBL4LQ6iQAFemrwMnnb8k33DWBPt5v8xO9G9xXX7QtVP9QNOIkr4xKP0+gAMfNWtiztUbS2CpqjCl1tIEdUzZJuFvXVl9Ptoqwv0d5vCj8oEMcxB3jAUUBicf29Rri7cFwX0gqff2UTnPc1WP7y+/XyxnzXP+3UTxZZ2i2WFARUdQSAbFNozQdwpog8ly/YqtoTwL8BHJaHMU4UEcsXnvdSIAK9AsAUADtmseBLRGRMFu3ZlARIgARIgARIoAsSoED3sOl33313RTQaTSgoDw0yqBKLxZw+ffrUDx061NRVxqW6utopLy+vDIfDGQcNq6urk6222qqhnbl0mEB/9913j5w+ffqbGUPpsIZL0Dzr22C/j17bbp/mhT/3t7Yc7nejW/vUrZK4vLaob2KXhwG7PhzzQaMOagVoKe8BNxSCVoVR1rM3qnpvBPE5cOHADQTh+gOrBbfrwtfaAp8bjUv7aEMjVs6bg9iKFfC1tECamxBuXomQzwF8UUDMH35tsW4zkVbX8S+Az/9xqxN65NmvV7wwbSGWVYMu8G0dlUREdzt/++TgKJnLuwm373LQ1w+6UFX7fnMDgAty2L8FvDuoo6zBhSDQjZ2q7gbgXQChDFlagMB9ReSDDNuzGQmQAAmQAAmQQBckQIHezqYPGTIkOH78+HdUtU+iqhkzTaxnLIDbGlJE/LFY7Piqqqo3sjmHp512Wv877rjjBVW1Pw7jV5k9ptNbU8/+DQWDwZ8Eg8H3UsylQwS6ri7LEqmLCvK8+uEi1NQAzJ4m+uKjZQ2vP1cZXDo/4Is2y/dfdUyQu4KGBhetLuB2CyMW2QjBPluifKstENhxZ6C8DCgrByorgcqKRAx3WW0ZXzsjogn8NYHboy6wahVQXw+4MWDxEjRN+xiNc+dCl82G09AAp74JVRUO4Le+LNTcasHuigMJBBtaXOcNOP4HXq3Fc0d+XrM8m/NXqm1V9UcA7HmozMEaLQ3X3QBuFBFL5Zbzoqpm8TfLf7alAcBuIjIr2468ti8UgZ4Q6ecDGOd17m3UM267i4hdK2EhARIgARIgARIggXYJFKTgaXfWHVjBBPp999033XGcrfM8rDqOc3B5ebndV824nH766Xvcfvvt5pqZVQkEAvsEg8F3UnTSIQI9q0Xku7EqyqNNkK+noe6159D49osIzJ2BcEsD/Oqu9kk3Ma6CevGjuWIDdN92F/h69oLssBWwwcbAhn2AinIgGEwI8bjlbm053uYq1v3qYsI7LicAE+wtTcDSZcCK+cC8hYh+PRe1X01DdMk8dHOaETQ3ePtykBDqClF1fLWtvtB/m/zlf73/zaXvXAg05htfsfWvqr8AkEs3b/vYZy7vFuDthWxFXOK+vAWMOxdAvxzxtY8Io3LUl6duCkyg25P1XwBHeZp825X+LiKnZdGeTUmABEiABEiABLoQAQr0dja7IwW667qHRCKRNamuMzqGuRLoFRUV5pr5NgV6GwQUCMVa4Fu1CLG3XsTSJx5CaPbnqDRhbnHXLb6660OTOmgIlMPttTE2HLQPsN2PgI23/J+l3OzrCWt4/B+Prg5t7cna7hxiFve41d0FWluBpiZg4QLg29mo/fAdNH3zFUI1yxFGKxy/3Vl3v7eoR8VZoH7/E4v9Pe4d9caCTycAeQ8KltFB76RGqnpTjt3H16zErOr27L+VsNR/DmBeshRtiRRrFhDOLPsDABwJYM+Ed08u6diHmhPynft87QkXkkCPf/ZS7Q3gEwAbZQF2mIg8nEV7NiUBEiABEiABEugiBCjQC0igF5IFPRgM7hsIBCjQ1zsfjrooq18FnfIqljz9MPTDV9GztR6B+L1yu1/uQ0MUaKrqjcgueyCwa39gmx2BDXoCdo/c9PAaNZ73l4y5sq+2rq82sCvQ3AzMnQ2d+gFWfPAOZOFs9PDHAN/q4HJx13cI1Odf3iKBG5eEKu7v+/rShbm+0pH3pedpgMQd7wcADMvTEGt3a9dULLhcLQBzNbcSSeRl3wBAWQfMwYaweZwsIo90xHiFJtATIv3/ADyfxTe0GgD9ReSbjmDIMUiABEiABEiABIqXAAV6O3tXXV0dvOiii6Y5jrNNnrdZc2FBHz58+IA777wz66BEtKD/cLd9bgyhpd9ixb/vQXTio+i2ahECujpYG1wfmlsE8+pj2OKwI+E/5HBgi62AyvDqv+k7TJS3c0rj1nUALS2rreofvIP5Tz+BUP0ydK8Q+Jz/3VGPicTUX/bq4vKeF232yryPKdJXs+1gkZ7n147n7s0d/2wRuddziwwrFqJAT+z7WAAXZbgsa2ZXhg4QkXVzKmbRIZuSAAmQAAmQAAmUHgEK9Hb2NOHi3uUEOi3oax0MVQQ0hsC3M1Hz97HA5CcQjjYjnipNgdaYg3pUIrTdLig/YDCwW3+ge4+ERT2nsQRz9AYya3nCDb6lGZj9NTDlXdS++zqcpd+iMmjfFBJu7xA0+4KfR2O46LupzZP70eV9bZF+p4nWHG1KMXRjh/kiEckmaFq76yxggW5PhnkV7dHuIpJXuFpELsuiPZuSAAmQAAmQAAmUOAEKdG8CvaOCxA0uLy9/LZszRwt6NvR+2Nbc0ctbG+F+8i6Wjr8Rkc/eRFmsJeEy7qC2VaCbbYuqw38K7LoHsEGv1W7suZ1G3nqLB5uzHOoWWG7mDDRNfAZNn7yLiDbDZ+nZ4kLd8qv7alr8Zbe+Oq1u3JE1YKT3xI4kcqTfCsDEW1cpV4hIdb4WW6gC3darqtsDmJpFNH/zRDhERLIKBpov9uyXBEiABEiABEig8wkUi47oNFIjR44MXXvttV+LyCb5nIRF7nZdd9+qqqpU977bnYIHge4p7VpFRYW5YqZK+ZYyins8Enk8UFmHFU/rSjabH8xXNW4hL2upx4pH/gp59C5Eli+I/38WBA4axKLGGHofdSzkkB8DG28K+Hw5Tr7XYezWyE2grgZ4/y0s+c8/Ea5ZhvKgfW2IxkW6KxJtdd3XnFZcEPosHjSLZbVos/zoDwHId6aHQuJtVnSzpufcRaSQBXpCpJ8BIBtX/+8Sqev4oauQTjTnQgIkQAIkQAIFQqBDFVSBrDmtaQwZMsR3//33n6yqlY5j+aniJWfcXNeF9Ssivmg0uoXP5yt37f8E/DaQ4zgx13UlEc3Zff/99y8++OCDk95h9CDQ7UPAJAATAPhsbOt/bSgiEqisrPy3iFhwsGSl3TRrqjo/YWnzrz+Gl01wzLLbRlnDzH6V6Fccx7kOgF34zqY84bru8wG4vlCsSd1v51TOvfeGE3q/99yAiqa6+H5YaV4laO2xJcLDhgF77QVUVOZOmNtHDSeR99x14erqnOXxa+NNzXYe4A8G4vNw1ripr8l2Hz82WRbrM9oKzP8OsRf+i/rn/ouqHnYvPba6Y4WrjvNxk7jnVHwQzwvOslqkVwC4CsB5eYikni/GJhAtCN3OGQ5gItXupefg4P1vBoUu0OOPgeq/AQzNkJs1e1xEfp5FezYlARIgARIgARIoUQI5E5olyqdDl7VixYrJwWBwcLJBVbWmsrJyQxFJmvrKi0BX1evC4fClWS7Oi0D/OBwO989yHC/Npa6ubqGIWDqkjMv06dMvHjhwoAWCwowdENl8g6rfhVrqL/C5scp4p66gNSrAdnsicNxQoN/Oq63mbpZGxDWeBiJobWhETW0N6petwuIFC9HQ1IxW14W6ipULFyFUVobKnt3jGr4iFMIGvTdE9416obKyEmXh1dPMOiCdvRXs48iSpWh99r+IPvsfhMoa4PjWfCwQjQIv1jTphT2nYZr5E2QMvcQaqqqlOrsBwEEFvDTbLxPX9g6wNGr/AXBEhvO1yO4W4d0iveekFIlA7wbAAidumcWizxGRu7Noz6YkQAIkQAIkQAIlSIACvYA2ta6u7kUROSzZlEygz5kzZ8N+/fplK9DHhsPhi7NcersC3XXdaZFIpF+W47Tb3HJC19fXm0DfsN3KKSrM/OKLS/vvscd1b22G8gFbdvuTv7nuXMeNWVqreMC3aGsI0b0PRtnPhgAbb5YTRwpTSrGWVtSsWIFZn07HF2+9h/mzv0N0xSrUzlsAxFysdpeQ1anNExZ1n/0/AkT6bAR/rx7oueEG2H7/vbBj/12wgf1/wWD2fh72FaC2FrHJL0EnPgynbsX3Il2BmDq+qb5I+FKZvMo8MljWIqCqhycs6nsVEBg7bibGrxSRT9fMS1XNJWN8hqnj7F10kIhYhPKclGIQ6PFXgup+AOwuuT2OmRT7ODJQRKZl0phtSIAESIAESIAESpMABXrh7KvU1ta+5DjOIcmmlCuBHovFxlZVVZWaQF8kIr2y2U7n49cufXXoUffsv0W3G8pb6oY5bmx1nmmTIPVBtB5zPJzjfg5f9+7Z24x9DlrqG/HVJ9Pw+ZvvY+Zb76Jx6XJoXT0kYZFv28F/3RWu8S22a/FSWYFgj27ou+ce2Hn/vbHNrjsh3KMbRJzsrOqxKKJT3wP+9Xf45n4D6f69wdwiDcwRn+9MeT/6MtOw/fD0qer+AH4N4HgAoWzOZxZtLY/6PwDcLiKft9WPqp0g2L1yc9H3WuzJOF5EnvHawEu9YhHoCZH+JwBXeFlXkjoWy2EvEWnOog82JQESIAESIAESKCECFOiFs5kU6BnuhVnQGxoa7L58xhb0eLT2aW9f1Xz+z7r5mxt/7WjMH3841EGrrwfkmBPhHHQwnKqq7MS5CKLRViyY/S0+eu1dfPz4M2iYtxg+UViEg2weSJPNJthjEJT17okt99kTex51CLbbtR8CZaEsRXoM0a9nwf37Q/B/8x6ccpvsapf3KGTGVw167E4zMJMive1DrKr28eiXAI5NuL+vDiSQv2KC76WExXyCiNR5GUpVze39Gg91zaX9BBF5ykPdtKoUmUA36/lky2+e1iLXrXybiPw2i/ZsSgIkQAIkQAIkUEIEstEDJYShIJZCgZ7hNuRCoFc01WL5vWOf7/avmw514Abi3uQxoFkqUXbqb4B9DwBCZdndNxdB/aoaTH3pNbz/9EQs/HRa3KTqy8MNbgvpZubNyr6bY+ARB2Pf445E9z4bWVS9DCmv9uhv/WoWYuPvgH/ONPgDq0W6fRBoCpQ/J1UbnFn54rcWdIwlBQFVrUrc+TYXabuzvjuA8iyhmSC3O9GvA7BUjS97FeXrj6uqFqX8nhSu2ybOh4rIE1nOuc3mxSTQbQGqunmCfY8seByTa0+ELObCpiRAAiRAAiRAAp1IgAK9E+GvNzQFeoZ7kbiDnrGLezDaDP+UVzDvmvMbNln+bYWYXVh9qI+F4D9iCELH/Rwot0jtWShp18Wy+Yvw2pPP4a2HJiDYGoU/S4t5e7jiFnVH0OQqfnTEwfjxGcPQu+/mEH+mV2ZNjbjQzz5G80N3wL9oDvyB1Q4FLiTaLIFrHlrQcv2I+Whob278/f8IqKplCLD82n0TQccs8Jh5g1jUP4sOb+Ld3tUmwpsArAJgHiP2MxvAdACWCjIRaj97uqr6UwD/auPDgYVE+IWIPJb9KOyBBEiABEiABEiABEhgfQIU6AV0Jmprayd10B30G6uqqkZlufR2g8Sp6rRwOJz3IHHV1dXOqFGjMhLoPnUR+uoTLBn3B1R9+gZCZjaHD8tWAZFjhyJ47AlAJHO39vjd8Jjii/c+xPP3PYR5Uz9DeTyXepb002zeJILKzTbCT889C7sO3hdiqdoy/eCgLvDOW1h2283YoLwJcJrjIr3V8dfWlFf+7rHXV907AshZVO80l8rqOSKQuD//NIDuiS5NnJ8oIo/maAh2QwIkQAIkQAIkQAIksB4BCvR2jkQieJKl1FkTs2tNWuqcHqba2lrL5f1PVbWovpoYF2v+d+LfhvbSlkWj0Z2bm5u/t26t6WfNZK0f13Xvj0Qi12a5AIuc/qFZ2GyM9eec6HtOZWWlRbPOe6mvr/8iWZA4tcjnqjHHcVa4rvt97DW7d165dK5Td/fVlbGXHw9UxZog8KGmRhE+7Gg4J5wI9OyV3Z3zWAyzpn6CCTfdhVUzv0HIorFnKoyzpGgZ4up8gtOv/AN2GbwfnLJg5iK9tRV46y0suv9O9PbXwrJsuRDEAsHF6lT+JvT2chNxHfwZIktAbP4DAqpqOdJfAGApDIeJyARiIgESIAESIAESIAESyB8BCvR22I4cOTJ07bXXfgVgo/xtg6XMsjRackBFRcUHycY57LDDKp944omlqeYhIlMrKyvtbmvSMm7cuPPPOuusbAW69u/fv9esWbOSujPvs88+27700kufmkDOdxGReOaxZOOo6pRwODxoze8t2fzwvvAfsM3ml29Yt+R34dYmv6OCplYfmvvuhm5n/xrYYisgZhb1TB8TwTdTPsFtoy5DqK4RIcPQASxSsXZ9PqwK+nD6ny5B/0MPAHyZrs2iw0WBlyZi/r3jsEk3n7kKxEV6k/g/W7zRpodv9exsc8FmKXICqmou97vlIyBckaPh9EmABEiABEiABEgg5wSy+Os853MpyA4TAn26iGyV5wmaZfuQSCTySrJx9t5776pJkyYtFpGk6ZoSQnRgqrm2tLRc0NraelM26zET/zbbbBNZtGhRfQpRvGNDQ4Pdj+30oqofhcPhAYlA5zYfqTu47JBgTes//RrrvToonA814U3Q7f9dBOz4oyyE+eok5cvnLcKjt9yNbya9jqAlJGFxv/UAACAASURBVEuDQlzLx9Ovx2/Er2OKtn7iP4k+0+nXptAkQI9+O+CUS8/HJjtum8as1qtqedJXrEDz+Lvhfvgqyv1RqCii4kSbQ+Grnnur5tqhq2PVsZAACZAACZAACZAACZAACXggkO7f9h66LK0qQ4YMCd53333THcfZOs8ro0DPI+D1BfrU3cMb7hKI3edEm37iQAWug+Vajp5DzwAO/zHgs7hdGRZHULt4GR6/6z58+uwklLdG4ynUvBQT5C3QuIiOBfzo+6Md0GuzTRDp2SNhyBc0rKrB0nkLsPCbOWhctgJBtShiErfOe3mgbSqNjmDzQXvgxIt+g15bbZ6dZf/rmVjxl7GILJ0DvxODK0DUF/zOlcjw8veWWX50FhIgARIgARIgARIgARIgAQ8EvPw976Gb0q1Cgd723ha7Bb1+77IzgtGWm33qRkQd1LcG4N/rIIROORPo1jMrweq2tOLtZ17AU7feg2BtI7zETI8HWbM0ZpFKbLT91thj/32wxY7boUef3ijvFkFZpQXzXv24tjQ1oWFVLWqWLMO3X36Fzz6YgtlTP4WzsgZB15tDvgWva3AEe//iOBz769MRqMgiy5dFvHt5IpY+eDd6WQB3Xyyeeq3FF/rnfbWB3/5mRu2y0n1DcGUkQAIkQAIkQAIkQAIkkDsCFOjtsKRALz2B/tQO2OrwsO9vQY0dYhHj3FYfVkQ2wQYjfgvsunt2uc4h+Pbjz3DPZVchtnBpXDCnKnHXerNoC9C7fz/sffQR2Gmv3dFjw15wAoGE2k6Y39dY4cVCw69u6La2om5lDWZ++Cneevo5fPf+xyhrjXkKRBe3dPeswi9/fwF2PWhfwPd9/Lz03jA2l5oaNI+/F81vTkRVWKESQ9TxL5uKynMGfbDqPwwYlx5S1iYBEiABEiABEiABEuiaBCjQKdAzOvnFakGvBnD+oNCIcGvr9U7ceu7HinoHVT8ZCt8vToQGAhZnPSMmdu+8ubYOj9/8F3z0xPMo8+DWbvq9NeTHdgcMwtEjTkfvrbYA7G53PBe7h2nEp2ru7cDKRUvw4gMPY+pTLyLQ0Ph92oFUvdiHgW0H74NfXjwSkY03Atx2vigk68ys6B9MxaI7b8JG7grA32pWdLfZF5w03Y0MHzhl6QIPq2EVEiABEiABEiABEiABEujSBDJUIl2HWSla0Juami6IxWJdLkjc2HB4wE93D2+ws7/5SV8sOsjunmtzAIsqN0WfCy8Gtt/emyhOcfy/fHcq/nXVjYjNX9yuzI/fNy8LYvejD8fhpwxFj003zvjBiuf+szRqS5fjjf/8F6//41H46hraFelmRW8oD+Hkyy9G/8MOhDoZfp6wN0lDA/DkBKx85hF0L7OAcS5UfA1uIDDm6nea/lwNZKj+M8bChiRAAiRAAiRAAiRAAiRQVAQo0NvZrmIT6ADeq6ys3DvVskygR6PRmyx3eSandU3atGKL4m4CfdSA0PkhtP7Zp26FqGBxQwC9f3kmcORRQKgsc4HuCJpq6vDkHffhg0efRqWbGm38DrgI9hryUxx+yhB036RPVvfev99HR9CwbCVef/QpTH5wAoINTXDaSe3W5Ag223dPnPLHC9GtT6/MXfwdB5g9E/NuvAab1C6A+FbnRo/6Q5+95XQ/5uB3Fs7O5LyxDQmQAAmQAAmQAAmQAAl0FQIU6CUm0FV1OYBnYDeKHcdxV7ssr7PPIjJzzpw5n/ft2zfT/Xct1dtRRx318CuvvBJNhlBVCyfNmut+9PXwQ47fbu5HzwTd1p3id89jPqzash96jLgA2HizzMW5AXAcLPziK/z9yhuwavqseFq1VKVZgJ1/fBiOPOc0bLBpjsT5mgFFUL9iJSY+OAFvP/AIyi26e4rp2AlxNu2NX152EXbcZ89E7vf0X4FxK34sCkx8Gism3I8eTlMi7Zq/YWWk27m9X1n2d95FT58rW5AACZAACZAACZAACXQdApkKtC5DqAgt6O3ujaqOCYfDl7RbsZ0KqiqprPCFJNAD0ZaPZp584F+2nz/tZp/GysQV1AbCiJxwGnDo0VBx2nVJT/ohwn7hKqY8/zIeuuJ6dIutzlGerMQEKNtyU/zi8lHYdo9dAXWz+zjQ1kCOYNE33+LhP12PJZ/NQCDFXppAr/ULDj/rVPz49GGAb02m9QxOiDVdMA/Lb70W3RfMhON341b0Jl/w+U+dyl8Mend5TQa9sgkJkAAJkAAJkAAJkAAJdAkCFOjtbHMpCvRYLHZjVVXVqHyf8EIS6BUrF34ybdhBX+1QO+9nPlXEWh3U9O2HHr+5GOi9cVYC2QRutLkVLz34CF7+2wOobDVJ2nYx2d4gwDGXnof9jzsKjt+X1dhJ99DyqLdG8fYTz+Hpm+5CqLk15X10m9P2hx+E4ZePQqAyC1d/uwjfWI/Ghx9A68tPoqrMhcKF6yubHysvPzL02opP833u2D8JkAAJkAAJkAAJkAAJFCsBCvSuKdDHVlVVXZzvQ1swAl0VFTPenv7deb/osUnj8j6O+rCiwUGP408Bjvk5NBjK2HoeZyiCpd8twN2XVKNuxlcIavJc5FEB3Eglfn3POGy+/da5uXeebCMdwbK5C/Dwtbdg3rsfIJTCzb1FgMrttsKwP16IrXbZKct5KfDxR6i5705UrfoWGoghKk6rlkX+9FZg97EHp7gWke8zyf5JgARIgARIgARIgARIoJAJUKAXn0BfJCJl2RwqVR0bDoe7jED3RVsR+s8dc1f85epNu0cbfBL1Y0VFH/Q48zfA7nusf0U/fbSOgznTZ+Kvoy6HM39JUku16eMmBxhw/DE49rdnIVRRnv5Y6bSwjwGtUTz/wARMuut+hF1Nadlv6RbB0D9cgN0PPzA7gW5vlZUr0PrgA2h8+RlUbQBLuYYWX9nULyo3OnT3V2avTGcZrEsCJEACJEACJEACJEACXYUABXoBCXTHcQ4uLy9/NdmU9t5776pJkyZRoKf5dIZWLUXNFSNWlU15qarcjUpzDeAOOAjlZ54D7dkrO+u5zcXnwydvvod/VF+P4NIV8CWxVMfd2wM+nDD6Yux5xMFwLOp5vosIPn9nCh4dcxta53wHf6q5hQL48bln4uATf5bIxZ7F5Nwo8NLzWP7g3egZaomnXIv6AitqIhsc2evlhe8zWFwWbNmUBEiABEiABEiABEigZAlQoBeQQHdd95BIJPJKKoH+8ssvzwMQzuZEquoN4XD4d9n04aVtQbi4m3v7tzOw6MJftPZa9HXAB8WSpcCGp50LHHUUEAx5WUrqOo6Dlx96FM/fdT/KLK1Zktrm3h7YaEMMHzMafXfeMTsrtcdZW17zxXPm4eGrx2HJBx8hkEKgNwowaMhPcex5Z8NXbvfQM8rCt3pmPgf4eCoW33UzejcuhfqaEXX8TTX+sktuf6fuduZE97iBrEYCJEACJEACJEACJNClCFCgF5BA92hBXygiWflGdyWBbmm/Qq88icXXn6+9G5eL4/qw2K1E73MvBvYclH6ANkfid87XKeJg4l/G46W/PYTyVnPmbrs0A+i9x844+fKLsOHWW2YngL28pkxfO4KahYvxyDU346tX30GyzxFW1QT6nj//CY4fdS6civUEulVYnbLPWzFOi5dg2e23YoOvPwZCDYipoy3lVQ89s3LlmUOnocVbR6xFAiRAAiRAAiRAAiRAAl2HAAV6DgS6qjaIyEeu60qmbsuq6hORcysrKz9INqVdd9218s0335zoOKZ+Mis2RxGZHAwGn8zi8rVGo1H/M888887QoUNjyWaSCwu6qkJVPwNg6bm+X7fjOPG022uNPRD4YTaxQEsjZPwY1D98O7pFG4Dmcqzccmd0P+dcYPPN4unRvBZ1XSxduAg1y1fA5/i+bxZwfHjj30/gw2deQMhNHiDOBPCm+++Fw088HuURc4IwwZvxVnqYtkJE0LiqHq8/NAFfv/1BSoHe7ADbHrAPDjllKHxlAeMen5/ruqiIVKLXJhvDH0iVsG2tKdmympvRMuEhxJ5/BGaQt9U2B8qmfFHe+4TdX5k928MCWIUESIAESIAESIAESIAEuhSBfKqDkgDpJc2aqn4eDod3LpYFP/fccxcceOCBN2UzX1XVbbbZJrJo0aL6fAp06/uyyy47cNy4ca+nmm9dXZ3dze+9fp1Q7QrUXv0bBN9+DhVuS9xM3Lj/kSg/+VdAVTfvAt0RrFq8FBNuvxfffvARQn7/90OZCI6uqkO0pjZl/nMVwBeJINi9CqoCRdJvG9lszbptFfAF/GhdVYOWFasQ/6yRpJiA9lWWI9ijOyw5mtjHAwFao1H02HhjHH/pSGy67dZpWNIV+HAKFt9+I3pjBdSJwRXf4q+qNh22w+S5k3K3SPZEAiRAAiRAAiRAAiRAAqVBgAK9nX30KNCnjR07dpfq6uo0fIA77wC1tLRc0NraWkwCffC4ceOSBs9TVae+vt5c/zdcn2r5l1OxsvpMRL77En51sLIxhMphZyJw2BHQUBDi1YAugiWz5+LB6jFY+umMeLC19R8eLw+T1+HycToymZ/N1z4jhHr1xEljLsc2u++SxkcNAF99hUW3XI+NVs2F648h6i9rndWz79n9np8xPh9rZJ8kQAIkQAIkQAIkQAIkUMwEvPzNXszry3ruFOhtI+xgC3q7Ar2hoWEhgB8K9M/eQc2fz0F4/iz41Ielbnf0Ou8SoH//uAt33ErspYhg0Zy5eLj6Biz9ZHrSaOheuiq2OjEBgr17Ydi1JtB3TsOCDqB2FVr+/Q9EX3wC5VWKmDholMC4mz5o/l01EC02FpwvCZAACZAACZAACZAACeSTgEd1ks8pFHbfFOjFLdAx6T9oHHcJeqxaCAsQt9C3IfqYQN9lZ9id8vQF+o1Y+snnFOheHlsLptfSBDz1JFb846/ovoHF5BO0Bssfv+6dhpOrgQYv3bAOCZAACZAACZAACZAACXQVAhTo7ew0BXrxCnRHXch916DxwZvRLdYIcQNY0GMbbDxyFNDXoqin8Zibi/ucb/GP6rEU6F6judvbJRpF9MWJWP63W9C7uwtXgOZg+JMx79QdWg0sTWMHWJUESIAESIAESIAESIAESp4ABToFekaHvBhc3KWlCc4tFyP6zIOodFvhNgO1/Q9Et7N+uzpAHAW6p703P/SyjTbEsOv+iK372x10j6EW7O1iUfKnvIf5N16BTSqjUFELFFe7MhA8vNc7je8hvV3wNF9WIgESIAESIAESIAESIIFiJUCB7kGgjx8/fhqAbZJVVdWiChLX1NR0QSwWK7UgcRbFvdfaeyQtjQjc/Du0/PdBVLitaG4E3ME/QfnJZwNlFek9s51oQW/rO0JHPrjrCnS7g57Olw0Ac2di5Y1XonvNItjdAIU0xOA70j81+oZQoKd3DlmbBEiABEiABEiABEigpAl05N/5RQly5MiRoWuvvfZrEdkkxQJm3XDDDTsUSxT35ubm30ej0Wuz2RAvFvTTTjttuzvuuOPLbMaxtpdeeukBt9566xup+mkrzZo01UFuvBDuxAlxgV5fD+gRxyP8y1OBUHl60+oEgR6XwXaN2yKpB/xQx4lbr/3RGAKu3ebObxb1NYCyE+gKzPsaK8ddhe7L5kH9CtfxNfm69z7uipcWvFi9Oj06CwmQAAmQAAmQAAmQAAmQQAf9fV/UoKurq50LL7xwkIiEEgsx3bTOhw3XdRu7dev2TrEstKGhYXPXdbdX1bTFUSwWE5/PF8++JSKXGwvHceCu5/bsOI6o6vLm5uZbA4HA/5KG/w+SRKPRqN/vH+Y4zohk7OKR1kU+UNVVCXfo+Hg2dxFxrJ3r2s1m7C8iwbX70fpVcK//LXyvPhUX6MtXCkIn/gqVxxwHBNap2v7WdbBAXw0YaAz60HeP3bD1rjujPBxGc0MD5n4xE99M+Ri+2nr4E0K9/QVkXsMEemgji+J+WSLNWhrHxnbmu68SAn1+XKDHfIGW1t6bnjz8v988NmF1FjcWEuiSBFQ1AGArABsB6J3IRGHuPfbfG/uxV4EFU7SfRgD1AObbUwVgnojY9zsWEiCBJARUtRuAzQH0AGDPln2dX+NCZ89TXeK5sn+XA1gg4jkBK7kXGQFVtXetecTae9cy/5jnZWXifWt/U9o5qLEcNImfJQCmAzBDHTPPFNl+F/N0aUEv5t3r3LlLfX19rapWJv5j9oOz5LrujEgkslOqadbV1V0sImPaEejtrjQh5NeppzUrEL32Nwi+9SzK3VYsWiqI/Oo3qDjyKMDf1jeDFMN0oEC3v8hbBQht1gc/PuNk/GjfvVDRvRssKLoq0FRXj6+mfoJn/joeNTNnI9BGTvZ2gaVR4X8CPYM0a3Yqvv0KK2+++nsLetQXjNb32uRXLz73zT+GloBAV9XhAG5MA+lQEXk5jfppVbVnEsCctBoBrQCOEJFP0myXt+qq+ksAt6cxwOki8nQa9Tu0qqpGAAxK/OwFwN6NfQH4MpyIvSoWA5gF4GMAHwL4CMBnItKUYZ9pN1PVlwD0T7uhtwa2xjU/9mXQzql9qLA/nk1MWaBJ+2AxF4BdRftERIxJp5YMn8FOnfNagx/6/9m7DjCpimz9n07TPTMNgzAoiIkgKosJDBiemFfX1dVVDOsqilnRNYvKMhhxZUVRdDFhdgXDGlfFgIo5rQkjihKULDCxp/ue952ZOzjMTE/fe/vejue8rz/cN1V1q/6qW7f+OomIZD3llTCzEPChAHYw/x0AYGMAXWwORNbX9wDmmr8vAMwmoq9ttrPueYT5AAD3p9NGntU9hIjezGafmTkMYBcAewOQPXc7AN0d9kkuQ781yfprAP5LRLJGcl6ytB/Jfi3Hx5b9WvZl2atbMPwkX/DL1gQrQc8W8vn/3CaCLjfRJjlut5aY+fPy8vLBnQ21rq7uEsMw0jK3T9Y+r16B2FVnIPzuC00E/ZelhIpT/4bwfvsC/hwm6EQwNuiOIy8Yja123RG+kuC6ft/C1A0Dcz/4BA9dOwkNPy3yNO1bs4l7DxwzYSz6bmszD7pMzsJ1NeiNvlC8tkefk2Y+P/eBAiHopwG4zcYrfQARPW+jvK2izFxuEhhb9cyDx1Aiyon0d8w8EsA0G4M4gogetVHe86LMvAGAEQD+CGAPAKIx91rklX0XwMsAhDy/Q0RCbD0RZv4AwBBPGnfWqJCr1wHMBPAiEWU8W0Qa76CzEbtbawexWnO3SfdbY2Y5cwjpOth8vzo9a7jQA9GkCuEUd7vniUiIu2Vh5j8BeMJyhfwvuCcRzcr0MJhZLI8E6yMAyKWIzYBDtnosZPO/AKZn+zKis17n8H4k79Qb5nvxNBGJpayKiYASdF0KThFoIeiiretQDMOYE41GB3X2AK8JeuPVZ6LknedNgg50PeVviOy3X05r0OsIOODc0zD8SDHFDzSrzduKaNMbE5j5wHS8dOeDCNc1oMne3wNp0aD/ZcLlJkG3EySutQ96s4m7EnTkKkGX1XMHEZ3iwTKy3WQ+E3Rm3hfA6SZxsHkbaBuqVBXEZFMOys8AuNttsp6DBL01HrJ9ibWKaC7/nSkT1Rw+EKdaK/L3nCbozCymyeIWJ5ZLcgGWLRGCPh3AI1a060rQvZ0mZhY3hnMAyMWuUy15Op0UC6abATycSQsmKx3Ok/1I3E3uFGtEIppvZVyFXkYJeqHPsHfjs0LQv4xGo1tli6Bjza9NJu7BN59tIuhLVxDKjj8dpQf+AQjYVGRlyMRd/M79fXph5JVjsOngTr0DAJ8PS7//CXdWTUDNZ98gYCtvnPWFkZ4GXQj6D/h10pWoWN7igx5qbKjccORzz33/iGrQrc+D1ZIufIwPJ6LHrD7Pq3L5SNCZeT8A400zdq+gcdqu+FAmzUbitNEcJ+ithzUPwGVE9JDTsVqt58I7aPVRXpTLSYJuXnqdB0DeMa/uo53iKS4BdwG4L5kWUAm6U2g7r2f6lF8F4DgANoMLedKn5QAkS5IQzQZPnmCz0Tzbj8SC7wrB0O3LZJuwZb24EvSsT0HedsAKQc+qBp1q1wATzwW//FhTkLjVqwHfn45F+Z+PBEItMf8s4p8hgh7z+bD+rkMxcuz56Nqje8fa89ZdTjBuHjMei195C4GONO0Wh9dZsbR80OXSoImgt0RxN8C+QAP36DXiqufnP1MIUdyZuVBM3FuWwUrxKSYi8evNmuQTQWfmPqb2REwrc1WuJqLL3e5cHhH0lqE/J1o2IhLzSk8kzw7EbTHIKYLOzMMAXANguCeT5W6jSS83laC7CzQzyyWNWCldDUACAeaaSGyQvxHRs9nuWJ7uR+JmcygRSUDUohQl6EU57a4MOucJuq++Dr5J5yP+/MPNedBrGYm9DkbpsaOAEptuSRkk6BvsvgOOv/x8dO2+XkqCbsTimHLplVg86+3cJegLvsfqG69Cl+ULm/KgG6BaX7TrQeNf+/U1JeiuvIvrNOLSx1j8LIcTUdai7OcLQWfmowFMBSBB4HJZBhGRBFJzVfKQoMv4xYTyMK98rV16B12dJxuN5QRBZ2aJsD3F9CW20f2sFZWLzV7JtKZK0N2bF2aWmBey5+ZS7ItkAxSCfhIR/eIeAvZayuP9SDD7o1f7tD0UM19aCXrmMS+UJ66N4t7JgL4oLy//XWcDrq6uHmPejruOi6+xAaEbz0fDsw+g1IgjXgc07rY/IiNPByJlzbGBrUqGCHqcCKEBm+CkKy9D7wGbdU7Q/X4s+XYe7hh3LermfAuvHF3T1qB//TmW/OPv6IlqyJ03A3UGsH/gI8wWV3qrU5Cr5QpQg94C9RVENC5buOc6QWdmib4+GcAZ2cLIxnP/R0QSwdh1yVOCLjhIkNPfE9FbboOSxwdigSLrBJ2ZJcDXrWYKLLenx6v2/kVEotHtUJSguwM7M4sp++1mWjR3GvW+FYleLheCErwz45Ln+5FYOu1ERD9kHLgsP1AJeooJkEihtbW12yYSiRaVa94TilRrjogC9fX1H1dWVsoBJpnQmjVr3miVk7xpLbXkJzcMw+/3+78vLS09trPnVVdX/xXAWQBc99XxJRJUcu1pfRtemtE7bMRBjX78svFgbHDWBcD6G6TUTq/T7wwRdFlc9T7CfmedhL2OOQzUYQp5s2fxBF5/4jk8ffPtKK2ph1cvs2OCLh1KJGDMno3Fk69Fr4oEJGN9jAKLGsrKdqt4fVVBbLgFTNBFe74XEUlE7IxLLhN0M1LwIwAOyTgwzh54ERFd76xq57XymKDLwOQbJ5kLvnETmzw/EGeNoDOz3DOL1jwnAlXaXBO7ENHbyeooQbeJZpvipkn7BAAXptdS1mrLGfdMIpJYBRmVPN+PBCvJQz+EiCRlW9GIV2f6ggHwiCOOCE2bNu0DIvqdpBMTISIhogUzxpYxyb8t+cRDodDuwWAwVQ7LlOvHbC8VWCnbcQr2x8M2OGOr2LJJQY4HyQhgUXQT9B59AdB/QE4SdBmnAcKaaAkuvG0Sem/ZP8nQCfP+9znuuOxK+H5ZAb+HiujforjbTLMms9oYQ+Ozz2D1ff9C926AQYS6kuisK99e9afrgIJIqVHABF3WnpgCiz+65JzOqOQqQTc1508C+ENGAXH+MNl/N/bKly/PCbqg+r7kSnYzwnueH4izQtCZuQKApEmUnNX5Jt8RkeRdTypK0J1PKTNL8DdZG5KuMt9lPBFVZXIQeb4ftUB1LRFdmkncsv0sz4hRtgfm1vNNgj6biHZwq818aCcUCu0SDAaT3gbnwxikj18e0H+/zZbOfyBkNFQSB7CEuqPn3y4BBg8GG0KFLb4CGdKgt+AaI0LXnbbB8WPOwwabbAhOJNbp6/KFv+ChCTdhyVsfQOxsvRTHadYkX3tDLfDE4/j1kXtQITHv5AKC/NMnf5gYeR5QELehBU7QZWk9QUSHebnGOmo7hwm6aPjyway9BdbXiMizAFsFQNAFp5OJSFL8uCJ5fiDOOEE3/c0lFWCnWV9cmRxvGhlHRBJ5OqkoQXcGvJnv/mEARzprISdrSfC4mzLVszzfj1pgkujumxHRkkzhlu3nWGQn2e5m9p5vEvR3vPLfy97IOn9yaWlpp+Zaudrvtv2at3uv7TeuWfwEYGwsBH1prByVZ14A7LgjmCzTczGbwNIf5+PBqolY9ukXEuvMUxFf9Ma+G+HkK8eg/1YDwYn4bwSdge/e/RA3n30JKhKwesXguL/OTdwJWLoEq+6ZitKPX0OgFEiQHw3+0D+ee6/u0kJIsSagFgFBl2GeQUS3OV5EDirmIkH3+JAtB4/FACQfrPwaAYhrVZn5k5zPomW0K6cQ0R12K1ktb5Ogy3Yy12Lbcvcov7A5/nIP02tJxOWBRGRY7FunxRwciCVX/UI3nu1CG38mIsnxnRExNeeviqWOBw+U9Sbmsd8DEJcqecda3i/RykpgR/lJFPC+AMRkTfKs20nXJaeBfql8ZJlZLAPkcs8rkTHYyQsv603WnVdyHBG9l27jzDxJoqGn206r+j8D+AiA5C3/FMAyNFvz/QpA8u8KjrLPbmiuSVmX8uviYh9kzUgmiftcbDNpUw72I7GYs+uCKHwy0up7tZ4YHLs8vrFEJCn1ikLcBq/gQDMJ+ttEtH3BDa6TARUKQV8wfMM+lWsWPxPg+DY+EGprAd9BxyD8pyOA0nLrZu4ZJuii22/svzFGXTUG/bfYvA1BZ3z3zoe45Zwx6JrrBP2br/DLP6/BBrHFYH8CcX+4Zu56Gx2/5QvfZj3Ptlvvc5EQdLF22JGIPncLt1Tt5BpBZ2Y5yH8LYP1Ufbfwd8nJLRpDISaSQ3kuEaU8LJsHrY0BbAJg61YHSDGv7ciYJiaHdiKSCNOeiE2CvpCIJCWdbTH9k4WA9ALQW8z2zfHvBGCQ7QbbV9ibiF5xoR25tJPLhM5iuLR9zJNElMsp+tyApV0bzCyXL4K5pFJzS2SPEnPoubpaQgAAIABJREFU1wC8R0SiebMspgvLpgB2FtcH8zc4yfsl7b5BRP9n+QEeFXSwX0oKq/941B1XmmXmCwC4ETtDUobOAPAIEYlLiy1hZiHu+5oZBSTuSDdbDXRcWC6P9iEiWaeeioP96EEi6jR+VKoOM7OQdfkubW6mSBSXMHmv0pFviUjaKwpRgp5impWg5/d7MBkoOWGX6M3h+uqTAmBCXQB1O+2NyPEnARXiFG1RFZ5zBP0j3HLOJblN0BONwCsvYcX9U7FeqA5MhlgtLPquvMdRA19b+kZ+r6zfel8kBF0GLAdfMX+tz8TcOThwHkFEcjD3RJhZcohfmUbjoqURU827nRwSO3suM4uWfVfzILSHzJOpDXqKiDwNZJcpgp5i/APFTB3AqQCEHDuRTqNw22nQwYG4WAm6WHacZAfbJGXl3ZLgW7cT0dcutLdOE+blnBC0g8zYEz1bFXDVPcJp3x3slzlN0JlZlGIS9TydBDWyFsT14N8uWscI8RQXp4sAtF4HTqZOLg4GE9FqJ5Wt1nGwH6VN0DvqGzPLRZz43+9nte8dlNuKiMQqpuBFCXqKKVaCnt/vQBUQuGio76wg80Q/s58aA1i5fj90O/ksYMAW1pN8FTlBD6/fA8dMsBEkTnaWuhrUP3AHgq8/C3+JDxISvL4k8src6AZHb/Pi3ILxIyoigi6bwW1ElBH/awcHTs8IuqlBkVQ5PRzsiHKh8Q8A//T6INbSN5Ow7ykm825fBrQdfy4Q9FbjlgPzjQAkN71d+YmIxDIhbXFwIC46gm6my7o3TbDFLPkac19KaYGS5rOaqpvRxHcEcKiZxUFSQGU94KmD/TJnCboZFO5DAJ2m6e1kPsVE+3wA9xORHD1cF2YW96OzAfzdNO12+gzpo6SO80wc7EeeEPRW+7RYC93v8DJ1FBHd7RlYOdSwEnQl6B0iUCgm7uID8+Pwyl171qx6MZSIRXzsw+K6INYffTEwbHcl6BY2I7HDCq9fiWMmXIa+2/7OmtWBD8CC+fh16hRUzPsUCDWK/UIijuDUaz5sPKcKkGYLQoqMoMucZeRg5+DA6SVBPwDAcw4WrGhwBK+CvfHPJYLe6gAoh/OJDuarBxEtd1BvnSoODsRFRdCZWdwT5pj+qk7h/heAy7KRYcJph72s52C/zMg+7mTMzCyXLmOc1DXdhsT/fYHD+raqMbMENnwAwHa2Kq5b+HAi8sztz8F+5ClBl6Ezs+A124yzYge6qUR0mp0K+VpWCboLBF1yf5uBR8ReOtcxZSKSACji+5VUUhF0iay58847RwOBjsOlxeNxqqurS3zyySe1RGTRjtz5azRw4MBojx4dKLeWLcPtuw1cv/fXr78YrVu1mZ8ZK1cSuh15IvDHg4FwS3r7FM/OggY9PmATjLriEvTbsiMf9MyauDcTdNGgDwIMC3GUfAS8OxtL/zUJlRDH/0Y0UqC2pqTLWTe9teLeKskmVyBSAAT9MwBbmCbRVmZFtBPbeH0AcnDg9JKgTwYw2go4rcr8CEC0axL4rWAlFwm6eQB0Yj69LxG9lO5kOTgQFxtBlzSFBzvE+RcAJxDR8w7rF2Q1B/tlThJ0ZhZ/fwng5iRBzdWi0XbLnN3qQjE1/mIldY7VOm3KyWXCAK/cxxzsR54TdHOPFqJtN/js+0QkFiwFL7lOJrM+AVZM3A3DmLtq1arD6+rqJCBPTmNqGEaia9euh5eXl18p+dyTSSqCLuOsrq7+yDT9FAIuxJ9a5YqXxueVl5eLz5anIiZnNTU1byW7jS+rXu7juyb0rnlyWkV5vB6xaiAxeCdERp0OrC+xhixMWZET9BIxcb92LPptJxp0C9y6rhaJxx7Fqv88iPUqGAYxYr7g4nnlG+685ax5EiCrYKQACPqDZqAyOWBYldcB7OnlQcjBgdNLgv6mGSzKKj5S7g9E5ETrbucZWS+bwwRdzN0lUrUdH1aJrJyu2bUGietkVTKz5LJ+yuHClejyBxKR+O6qtELAwX6ZqwT9GdPP3+78CjFPJ0aI3ee1K8/M4l89zmFDlxDRdQ7rdlothwm6HL4lWrwd16J5RCSZFgpeLDCTvMHAylhsa3KtEHRm/qaqqmr7iRMnSvqOnJe6urqTE4mEBMQRQ+QOxQpBr6mpkSi1ooLuEHvDML6IRqNOfYgs4ygEvba2Vm7VKzuq5DfiKHnlMSy9/kL0qF0OMgJYweVYb+QZwP9JemALS0cJunWCLhc/839C7bTbEZjzLkLljAR8RiIUefinbr1GDfjvdw2WJzcPChYIQf8rgBfMSLVWUU+Z+9dqQx2Vc3Dg9JKgixbcTkAg8f22k/IoHaiyWjdXCbqAwswSIVx88a3KOUQk1hJpiYMDcVFo0M2c1mKx4yTqvkTfFguHrPt7p7U4PKrsYL/MOYLOzKIZlcBwdiXr5Lylw8x8CYBr7Q4AwFLJTOGFFt3BfpQRDbq5RwtWgplV+ZWI3Iiib/V5WStngZlkrW+WHzx9+nT/EUccIdqfznLESk7Zh4hIND+WxSpBnzhx4pCqqqqMBCmx3PkkBWOx2EmxWEyinSadfxsEXaIHdyiGYcyJRqNOPsS2hpiKoIMZpQu/wcq/n4Ly7z5CkIGaWoB32Q/lx58CRLukTreWBYIuadZOumoM+rVOsyYzJnnQ35Y0azkaxV08Pt6ZjeV33ozuxhpwIIE4Ag0N/rLjyt9fNYOse/7bWgfZKlwIBF1SqjCzEErJC9vhRVcH+ErwnT2ISLTLrouDA6eXBF0ulezkRpbUnJKiqeAlxwm6pGiSVE1WxZU8uw4OxMVC0CU41BNWJ6NVOYnhsLsb8QEcPDsvqjjYL3ORoP8bwJE2AX+YiI6xWcfT4szsxCVK+nQaEU11u3MO9qNMEvQjAEy3MWZRtAa8tN6z0RdPixYEQa+qqgqNGzdO8tNK4JFkIrkw/0ZE4pdmWSwS9K+rqqqG5IsGvegIujjc165C9U2XgV78N6LxeiBOWNZtI/QYfRHQd/PUlDELBF180E++8lJstmV/ICFc6LfXdd67H+PGsy7MvTRr0sWaatTfdzv4rZmIlBiQ/4v7Sr4MUdn+9P6K+ZZfvjwpWCgEXeBmZslVKiaGVkVMTcUfXaIpuyoODpyeEHRT67fuC5h6pJLXvH/qYvlfIscJ+oVmBH2rQLtiZurgQFwsBF20o3b9R0VjPoSI5lqdxGIs52C/zCmCzsy9AMj3xI5LivhuS9otsebMGTFdP8XtcqjNTn1IRHbrpHyEg/0okwRdLrLtXPKLj6UQdNsW0SmByrEChUTQJVrupp3gKy/wuUQkuTItixL0pFCRaeKe+xp0iTbCBkreeR6LJ5yHyhUL4GOgnkPA7gcifNQJQCTSOUnPOEEHjA16YJ+/HIENNu6DeDzeTM+J4CPCqp8W4bHJ/0JZwvs9SsKtW/ZBF6eJzz/B4lv+gfXrlwF+oefEDaGyKT+s3vj8QXPmSJyGgpJCIugyMQ5u/x8lIrkFd1UcHDg9IegmJpKnNmpzgNsR0f9s1sm74jlO0C8FIIGjrIqauFtFymY5Zt7WDP5lsyYOIyInWne7z8nr8g72y1wj6E4yL3i256e7GMz1Lm4Zdi4c5LGSF/3zdJ/fun6OE/SdAbxtY7xq4m4DrKwXNTXoStAtzkQxatAFmtLaX7H0mnMQefNplMcbAMOHZeGe6HHq+cDW23Tui55hgi79bQz4QKURwO8X0rSWoMvf/AbDWFPd9K/XYpmgS+T26mrwYw+h/tWnEPE1gIlh+ALLwaXHBz5c/azXfc1G+wVI0EsAvAdgaxt4nmLXOilV2w4OnJ4d1pj5E5t4yPBEWyguAAUVc6HtvOU4Qb/JzFWcarm1/P0oInrEauFk5RwciAteg87MkvZOSJgdmU5Edk2e7bRfMGUd7Je5RtA/EEsJGxPyMRFtb6N8xosys+TrPsHmg133p3ewH2VSg/5nAI/awEiDxNkAK+tFlaDbm4JiJeh+TqDk09lYctXZWG/xXAQMxq9rgIp9DgWOPAbo2i25L3oWCLrMalN4/A6mV7TpmTJ/sUzQpZ8fvIefb5uIXlgD+OKiPTca/aFnXvup4Zj9FyMvgijae5uaNM52U4Uc4GWKIDc+xmZuVzkwRSziIS5EQ93M9+3gwOklQb8HwPEWsWhdTFJ2Sb9cdwFw0BdPquQ4QRfNjGhorMpubsRUcPAOFjRBlzgxpvnyhlYnwkxdK6mnfrZRp2iLOtgvc4agm/FPFtk81hxNROKznrPCzH0BiPtt0oDMHXT+PSLayc1BOdiPMknQLwdgJ/r+a0Qk0Z0LXjJ1xvcUSCXo9uDNIEH/KhqNbmmvd/ZLpwoS16R9NuPhla5ZhpXXX4iSN55CaZMvegCLfd2w/tkXANtun9zMPUsE3T4a7tewRNAF32VLEJt2J+IfzUJpqQEmcfX3L61BySndPqz9j/s9y40WC5GgC7LMfCqAf9lAWQLM7eiWxtjBgdNLgn4UgIdtYNG6qMRdOJ2ICtWCxI7mayER9XGIo61qzCxkULC3c86pcCNKuIMDcaETdNGMyjqxI9cT0UV2KhRzWQf7ZS4R9OMA2ElvuAzAhkSU8y5zzGw3bZz4WMs+5JpfvYP9KJMEfQ4AOzxhEhGdVwzvup0PV87ikQsE/aKLLhp66623Jo3iPnv27IFbb7317gAsJJF2BrXf7xciurK0tLRTfy23CPrq1avv8vv9CZ9PbJslPfZae2v53wnDMBrj8fiHfr/f0TqT8Yj/zoUXXvjUrbfeKmnUOpRUBN0kGyuYeUY5J3y4Z0Kf2CO37hasWx0l9qO63o/gLvui5K8nAF0qOtaiFzlBD0se9Alj0XfbJHnQjQTw+qtYevcUVAbrAF8CBvnicX/owVn19Wfu/2lhas/NtVVwGvSWF42ZHwdwqI0d6RYiGm2jfNKiDg6cXhJ0SScpAYnSSe/yMoBriEhSfxWM5KoGnZnvAyDpA63Kt0S0udXCnZVzcCAudIIuB+p/2sBW3EIk5dQSG3WKuqiD/TKXCLpELj/FxgRKFiK5QM55YWYnmQv2dvM74WA/yghBZ+b9zPSudubxr0T0gJ0K+VrWEXHKtcHmAEH/JlWatZdeeunMnXfeWQ6vnjoNM/PH5eXlnfrxuEXQTXLS4XIQjXV9ff2AeDz+dTpjlgjKf//73/e64YYbXk227qwQdMMwPoxGozuINn32QbtXbL/0g+tL4g0n+MA+MvxYjjJ0P2oUsPfvAV8H1khFTtAlSNxfJlxuEvQ2S1i05z/NRfVdtyH4/WcoKTHAEN/z4Nxvg2Wjtnz7V0lt6Om6z+aeVKgadPP9Xg+A+F/b0XoeTERPpzsnDg6cnhF0E4vLAFyV7rgAfGVqi2YUQmTqXCToDtaOTOttRHSGC/Mr1iflgPj5WJZCJ+hiQXWIZTQA9T23AZa5P40EMM1GtVwi6BJMUwIBWRVXvjFWH5ZOOWYWN7HlNtzF5HEXEZGkiHRFHOxHnhN0Zu4C4LMU2bfajl+yqfQhoqQKO1cAy5FGlKCnmAiLUdytEPRThw0bZsdc1OkS+aCsrGyHziq7RNBT9o+Zt6itrZX8pWnJ5ZdfPnzSpEmvJWvECkFn5o/Ky8sFlyYLhs+26zp0c1/N/QGObyER3eNxH9as3xfdzrgA2LRfezpZ5ARdNOhHX3s5+m03WEwl1p2Khjo03DcVsTdeQDSUaAoM1+gPch0FLr7ovbobbwca01oAOV65kAm6efATfy/R/lr1o5PDyNZEJD6FjsUByfKaoAfNKNSDHA+qfUW5/HgMwH+ISA4reSe5RNCZWSImS+T2Kpum7YL774noBTcmwMGBWMy/7WiY3ehm6zZ+JCI7kZRtPZ+ZZS+QNFpW5aBCdQmxCoDdcg72y5wg6MwsppJ1AGR/tSJy2d/NDVcUKw9zowwzPwfgABtt3UVEJ9ko32lRB/uRpwSdmbub6VztxAeRMc4kItG6F4UoQU8xzW4R9BdffPG0XXfd9bYMrCol6B2AbBjGx9FoVPJLNrHLqq0QOr80dGmE45f52QiIw3R1PIjyvQ4GDj8WKCtf19SdCEt+/AkPVf0Tyz79AoGC1Qe3By9BQLiyB46aMBb9tmtj4s4G8L93sXzK9ejO1ZD8dTHywz9g8Mo3flm2456zFnyXgTWf1UcUOkEXcJlZNMeiQbYqYvGyDxE5dulxcOD0lKCbOAwDIJeFVg+TVvGScpIDWPzU5fcKEcmhNeclFwi6mav+DwCuBfA7B6CJRkY0M6KhSVscHIjTfmaaDTxCRBJnwXVxgIWYtwsBy4v17zpgDht0sF/mCkHvbwZSszpy11xRrD4w3XLMPM68NLTa1OtEtIfVwqnKOXgHPSHo5j59tLh6AdgkVb87+PvxRCSuS0UhStBTTLNbBP3ll18+beedd1aC7uC18kKDXgUERu8YObs8EZsQ4kTzYdvwY1GND71PPhsYvjc4EMRah4QmDfpPuH/c9Vjy+Vfwc/EwdCZCaff1cPR1QtDbaNAX/oTqO25E6Mc5CPnF7xxYVtYdPc8c+/34o/42oMrDmAsOlpInVYqEoItm8g2bEbEvJyI7OajXmR8HB07PCbp0kJnFJ19ScXlB0lswEHIiEeDFVeCZXI5knS2CbmreJBXgQQDk0Gcn0FDbvcDV1EYODsSe7E02GvWSoNvNf140UZptzE/Kog72y1wh6PsCeDHlAH8rIPvhH22Uz3pRZpbLQwkWZ1VcvYRwsB+5RtCZWdK2Sjq8gwGMACCR7Z3IDwC2yIfAgE4G11EdJegFRtCZ+cPy8nLRFCeVQjRxr6mpWUxEPZINmpn/Z/rmN2n0lu1QekYZx64tMeJd1nkJjACWGBH0PON8YAdRlplWvaJBn78Ad42/HsvmLUCgpKQpSnmhS1O0v1gMQR/hpH+MQ79tRIPOzXGRlyzG6ttvQfDr9xFpMm0HVgci8B/4F5SPrvqSuvcRU+CCv8koBoJuEtPNAIivoPiOWRFJALA7Eb1jpXDbMg4OnBkh6CYWQtIfAhB2MjabdeQdkrz0klJIfHPTch2w+eyUxW0S9JUS0d70zxYfbUm9KJGYZa3ITzZc+cmFkGArv64AJBZCJYDeZjyEgXJYcwl/SYHXj4hWpBysxQIODsQWW/asmJcE/TDTjcNq528morOtFtZyzQg42C9zhaBLIEc7WtFbiejMfJp3M23pFzb6vJqIZN9zRRzsR3IZP9nGw2W/lp/420u/xYR9UwADAAwGELLRVrKixxLRgy60kzdNFATFyIEgcV9XVVUNmThxYtI8z5kycS9igv4LEckBrkMxg+cNFcfE07YNXFzh5wuDnOjWzqmWxcU6gLr1NkHpcaeCBm8LmCnajMZGzP38KzTEEyjtVtFESAtdkS4bRKy2BqiPYbNBA1FSXgoSdr58MRIP3o+62S+ivImuGajxhdC46x9Qcf61wEabzyHyiampEvT2KzLn86B38h6JplKIqVWZB2BbJ/6CDg6cGSPo5oFYNLYSTVa0A5kSuWCUoItyUHmYiJJ+czLVIZsEPVPdsvOcc4noRjsVUpV1cCBO1aTXf/eSoJ8I4C4bAziTiG61UV6L5jdBtxvhv4qIxufTpDvYDwwiakpj5IY4eL4bj3WzDYnRsVM6LnNudiZTbSlBT4G0RRN3Jegd4JhLQeJgGB+9NmK7XXZaNu+iMsM4P8hG16QRr9iHuhoDtMVQhE86A+iz0VqayU0utT6gOQVccYjcQiQSTcRcLiWotgaJpx9H3ZOPoDwSByiBBHxYufkQ9Lj0RuB3OwHkn0NEStA7XiF5S9BlOMws+Wolb61V+TcRCbG3JblO0E0sxMxdgpJJvmZJxZZJWWVqnkSjJJHhsyJ5TtDlsmNPtw9+eXgg9pKgizb8JhuL83AiksCJKjYQcLBf5ooGfSyAK2wM9WIi+oeN8jlRlJnFQsjOwTFERK4E2M3D/aj1nNUCGEpEaQeczomFYKMTStBTgKUE3cZqalM0kwS9urpaCGEXSe9mBqJYq7n1gxGuXrFgzgn7vdhvyXd/C3GiLPXCJzTUAzRsb4SOPBHoUbmuLrjQVeet59K0IBDFOTfUwXjlJTT++x6UUDUoICnVgGUVG6DyvOuA/Y4AgmLlBCXoyV+dfCfokkLqYwAS3MeqjCKiu60WNsmv3bRBGdWgtx4LM0uEajlknmDzEGYHks7Kig/nWCISU/iMSh4TdDE5/T83TdtbgM/DA7GXBH2MGRTK6rrcn4js+CRbbbegy+UxQb8SwOU2Jud8IrrBRvmcKMrM4tIj306rUupWoMQ83I9aMBKN2J+JSNI0Fp2k5il5AImauP82ScVo4i6jHz16dL9EQuKNi7I3QX6/v4mgS3SKI/pvEBn45ZtjSj5948jSxlqfnUXf2EjADvvCf+jR8G3YpwgMtpO88ELS6+oRn/kc+NF/IRgwAB815TuvDkZQcvp4hI46HShZ+/1Rgp5878xrgm6SZ4lz8ZaNQGliij2EiL62+klxcODMGkFvRcwkAI5oDMWsN2p1rC6We1IOu0T0uYttdtpUnhL0uWZ8hJ+9wCkPD8ReEnTJ/iBZIKzKfkQ002phLdeMgIP9Mlc06HYzhMhFpJ31lBNLhJnF4slq/Bbpc6CIs0o0HeUBjCQicSMrSrHDVXIWICXoStCTLc5pFag4aGDksmii8eygEQ9ZTeTcur1Egw++gUNhHHoM/Ftt5SC9bs6+OtY6RoTEypUwXnkZgccfBpWsbkqnJtIQKQMfdjrCJ18MRCUuyNotRQl6cnTznqCbB0Ix677O2iJqKiVa952tRmF1cODMOkFvwYKZ5SB2rPmTaJOZFNE6iA/vJZnwUc9Dgi6XGCd6oTlvNf9yUykas3wRLwn63wBMsgGEaMwet1Fei+Y3QRcXITvZPq4lIqmTV2LTxD1ORK5lCcnDC0MJ3HkMEf03rybZ5c4qQU8BqJq4O19xmTJxT9bDVytQsXX/knFRjp8W4ETY+WL3Ib7aACr7wnfyqfD9bmvALwEri0AEtKWLEXtyOnwzX0GgtBbwy/mf0BCJIn7wiSgTcl6x/tpgeiYqStALn6DL6hBT1H1svAk3EZEc2FNKPhP01oNjZtGqHwlAUgPt9FtqiJQQpFvgO0lt47XvXh4R9NUAxmQiAFkeHoi9JOgnA7jdxmI+lYjslLfRdOEWdbBf5ooG3W6MgruJaFQ+zaSZaqzeRp+XdRb02EY7TUXzbD+SuCAnENH3dsdZaOWdc5YcQkI16L9NRrGauLddjp8ORrdNwiVV4UTjWUEYtszaO17aBCPmQ42/K6KSgm3b7YFgsPDDuC/5BfXT7wW/9RIiZRLfRKyOgPpwFI0Hj0L01DFA1x4AtbNNUIJe4ATd/PCL7/WnAJKmOOwAhoOI6NlUnxAHB86c0aAnGxszi5nJAQAkL+7+ALqlwiHNv4tZ5R+I6M0020laPQ8IuqRx+xeAK4lomVc4tLmUUQ26CQgzy+WUpAi0KjcS0blWC2u5ZgQc7Je5QtCFbN9pYx5fIaK9bZTPelFmlhSldginnJ8kTa0rkicEfT6AvwO4l4gKPvuPlYlVgp4CJdWgW1lGHZfJlgb97g1QechG4WvKE40nBpFwgZy3nDQIbPhQHa5A9E9/AXbeHajo1pwXvNDESADzvkPd4w/BP+c9hHwJwNwzY8FIwvjr+Ub42NFBdOmQnAsaStCTr4mCMHFvGR4zHwTgaRuvwFIAWxPRL53VcXDgzHmC3obEyY3XLiZh/72ko/PIf0ZI+h5E9ImNObJcNIcJuqwvCUw4lYh+sjwgFwo6OBDLJdcdLjzaaRPfeBWYjZl3BvC2jY69RET72iivRfOboB8CwE4QsPlEtHE+TTozy3q2E/hwJhHt59YYHexHbj3aSjuSQu0WucQjogYrFYqljBJ0JegdIlBaWroLEdn5qLZrJxsEfVolNjhss/CESLzxrwE3yXmr0bFBWN0YRnjILig54GCg7wAgGAJYTL9F8vO1akqhJncNy5cB77yJ2ln/hX/ZPJSISTtJOLgmWVW915FvRS+fvDu69CjvQHPegpQS9CIh6DJMZr4ZwFk2PpwvAZBgUElvtwqdoLfFipl7mmT9YMHGZsTfVND/YOajFzNvVyXHCLpoqV4AIL6Lz7uVpsguYA4OxE8S0Z/sPicfyjNzJYAlNvpaJ5Yleli3gVh+E3RJx/qZvdGiNxF5EuDRZj8sFWfmM00Saqm8xBAhIqnjijjYj1x5bopGxAXrQCL6NhMPy8dn5CeTaIO0mrj/Bkgxm7g/1Bs9DuwdmlxmxI/0u2LW3skrTUGsWtUIXq8PKg47EthhR6Dbevkb5V12Askr9/WXiD/3FL6fORv9NvTDHzTATeScYBAtCQDX479zl6HHxpNBvs6iVCtBLy6CHgYgKb4G2/gQShCzpEHmio2gt8aNmUMmSZf88ULY7aTnSTYF9xHR8Tbmx1LRLBF0sQqYB0AOd6J9FuuA/2VaU54MIAcH4oIl6IIRM0vQp66WFlRzIU21ZgMsE2O7aSlzxcRdvh2S69oOH8mrQILM/BAA2cutyjlENNlq4VTlHOxHqZp06+8SCO5htxortHbsvBA5O3Yl6LlJ0Pfaa69+Tz/9tNySdSjMDMlbnkrGjh271w033PBqZ+Wm90XXA3qW/ysSqxvh80hz3u757GsyeV8Z88O35XaoOHQEMGBzICTJ3eRUkmpkOfB3gd8wgFUrgJdn4tuH78UmUUKoKUtdi+ac0BgMv/srhc8/652V70yPx4+G3y9RopWgNx8+TwNwm43ZLCgT95ZxM7OkOBBztYhFLBoB7JYsd3cxE/TW+DFzKYC/mOnbRNvkVOSlHkpEHzltoKN6Ngm6ELWxAMoAyLhkrchlhJj7S/8kyIX8ZG1IUCXRpkqKvuUSrtLUxC4gopVujsHtthwciAudoL8CYE8bOD9ERLLmVSz1XPIjAAAgAElEQVQi4GC/zAmC3nRUYhYXlI0sDlWK3UNEJ9gon9WizLwQQG8bnZDvomtxQxzsRx8CsJreTKLNj7fx3W8Ng1h0bUtEYuGl0gaB1OwoDyDLBYI+ceLE7auqquQWsEN58cUXT9t1113tHOIdIZ9BDTq9++67k5mb7brbkm3531tvvXUFgOM6Gwgzv0hEjxGRHNLaiWEY/rFjxz46adIk2eA6lIf7RTY6/HcbPsUL5w0OGnE56GVW2I+6Rh9qyirQbdge8Itv+ib9gEik2T+dc4upS29IPPPFz3zpYuCLT1Hz9izEv/0cXREHfPGmu2zRmieIQOR7dGW44rLK2ctEW8XMLOmjlKCbq0wJ+m+vmwMsxCRZPtDtUlI5OHDmlQ+6k02KmSUSvKSs6uekPoBHiegIh3U7rGaToC8koj5uPj8X23JwIC50gi4HeAkAZVXEF3VDIpKLGRULCDjYL3OJoIsPuviiWxW5oFs/Wy4sVjsp5Zh5ewBCeK1KXPKlE5FcTroiDvajB4lIznmWxMF3v3W77wDYnYhk3CqtEFCCnmI5WA0SV4wEvbq6Wg7VogXpTKgzLXk8Hr+qa9euqT7cSRnu+zug7+YomRIE9g8nGizo4z16/1kCyIlvug9cuTGi2+0E/447AX02BsrKzCjnwnqzRNZbkGkyZW8Ali0FvvgEde+/g7q5X6AsXo2SgGjMm9VYBsgwfL6Fhi/0j6+X103fZu5vPoRK0NddQw4+TgWpQW9BhZmfAGDHn7ZDbZmDA2fBE3TzwCcmOhMAWEpX12bHE+LTy00NtBL09t8UBwfiQifokopxps2v73VEdInNOkVb3MF+mUsEXfYyuXi0I0cTkZ3sAHbadq0sM99kWj9ZbfNNItrNamEr5RzsR7YIuvldehzAoVb600GZq4nocod1C7aaEnQl6B0iYCFIHNXU1AhBF1NFx5JIJK7p0qXLZU4auHtj9P1zz+DUiJHYS1KpOWkj3ToxIb7kg99INNloggmJRkJ1IoA1oXJ032YoIjvuDPTtC3TtBoQjzWTdY6LepCVfe13BQDwOVK8G5i8AvvwCSz94G/4l81GWqEWJGCiR+Jo3a80N8i2Jke9xSoTvi3y85n2CqNV/EyXo664aJejt8JBUYuITvKGN92skEd3bZp3Z9aksCoLeghEzC3m51gbGLUUPIyK5RHFFlKC3h9HBgbjQCbq4MkigODuxFMQisX8+BQNz5YVy2EieE3TJYPGxzaG/T0Q72qyT0eLMLOtezPftpCEdS0RXudlRB/uRE4K+nvndd2IhJZa4exPRLDfHne9tKUFPMYNWNehVVVVDJk6cKL5yHUohmrhnk6DP3bXvxpWxRfdHErHd/RK+LAtvYoMvgFUDtkPlgC2x+O1X0WXlLwgbjWi6KWAfYAQQSwCr/GFENuqHkk0HILj1YGCzAUB5ebOvuo+a3ANEbZ3uGFp0803EXBprbGwO/Lb4Z+Crr7Dm809Q//3XCK5Zjq5BgCQ6OxImMQcM8scTRLMRLL3u9rdXv3o2IPmD26n8laArQU/1ujHzcAAvA82vgwWpBrB964iuDg6cRUXQm7YZZvETtOurew0ROboU7WgelaArQbfwfjtdq+L+driV9ou9jIP9Mpc06PKdkLSIEvHfjhxMRHZSfNppO+2yzHwegH/abOh3RPSFzTqdFs8EQTe/R3a/+637vQDANkS0ws2x53Nb6XKCnBh7LvigK0F3thQcaNDpx51CW66H4JRIvGEPP8ezsobr/CGs6rcdNjjjcmDzQeD338DKWc+CP3uHy1YsQokR/+3SgH0wYoQ1MUaiWzcENhmA4EYbI9Lvd0D3bkBlTyASBnwBIBAAfG05TbIhmtxZgrwl5NcIJBLAihXAiuXgBT+heu4X4F8WIvHTjyg1GlESJsAnxLw5bZrRHJ19DfuD38MX/M+L31bf8cflSOrvb27C6oPearmrBr3jd5+ZrwZwqY2dQfz0JL2jXAzJgV416CnAY+a+AObawFiKPkxEx9isk7S4EnQl6FbWEjMfCOBZK2XblNFIzxZAc7Bf5gxBN/d7iVo+2sJQWxeRIMRCaHMuf7ZJiiVuzwY2xvQJEYk1gauSKYJuzqPd737rsT5BRIe5Ovg8biwr5MZtvDJA0N8ioiHJ+s3MXytBdzarNgk6Ld09uF24nm4JG/FhgbV5x50922mtOn8QddvugfVGXQTeagfU+YIo4QT8q5cD/5u98ocbxr68yapFO4LjvcHwE/g3sm4QkCDUJBh1/goYFV0Q7t0H4e49YER7INyrN9BTLIUMwB8EgiXN/4pZfJNwMwmPNzT/xC791xrEFi9GfMUv8NfXYM3Cn2AsXoxQQzWiqINfAsJJVHbTvzwOQkOgBHVdKhGq7Dmv5scfrljljz7/+Rs/LhnRHEG5U1EN+rrwKEHveLkwcwDAbAA7pVpTrf7+TyK6wPzQK0G3ABwzC0EXom5V/ktEQpZcESXo7WF0cCAuaBN3832W/UBS49lxfZGqYl0zjIg+d2XBFmgjBUDQ5YwtWUDsyg1EdL7dSl6XZ2YnFw5/IyLxWXdVHOxHtk3cWzpsfvffALCzw0GcTkT/cli3oKopQU8xnaaJuxL09jhl1Add6OUvuwSHRmN0a9iID/ULgc2C1AdCqN9uOCpO/zsS/QajgQK/2aYzUMqxhXjg6u3rH7pzS9TV70mEPYgT2/kNo5SQEG9v0+ZXoqj7m1KcJeIGGhKEhngADSCUrBeFQYxEMAyUdQMFTO1603gNcDwGxKqB2lUIJhj1K6sRTBgIhwwEyGjyKSe/v8mvXH6ClDgBNPhLUBsqg9GzD0q32g7lOw4HDRx0Pw3codNI+21hVoK+LiJK0JO/iMy8meSnlqi0Fl9XMeyQIHovODhwFp2Ju0l83gVgxxfzOSL6g8X5SFlMCXp7iBwciAueoJtrVS7frk+5qNoXkDRMu6o/eqd7rd0LzZzSoJvr4zPRiNtcH/LN+CMRObHOsPkoa8WZeQ8AklrQqouXNCwxnfoQkaQec1Uc7EeOCbo5j3a/+63HK9HrJR3oHFdByMPGlKCnmDS3fNBnzpx5+i677CKpqbyWD8rKynbo7CGxWOykWCx2e2fh1TMVJM4wjKuj0Wiq6I00d4cuQ9fnurvCRmJwtsi5xH/7dbu9Grudc3U4vukgxEhIcDuytuDxqtO3OG7i/TXTAX9g6/W7r+dv7Dc0kviTL1a3J5FvM+JEBYMDQSMBX1NYNtNnvMliXTTsrTy/ReMuRH6tg3lzQLcmM3UyHdf90gn57+Z/xaV9LSmXC4VwFIkevRDoOwjdh+wKDBoC9OiDxvKuaCTfPWXl5bbyiSpBV4JuZxNjZjGnftBGncXiiyZEHcA0G/WKlaDbzbHrag5hJehK0K2+o8wcBTAfQFerdVqV+wbAcCXpHSPn4EIzFwm63UuGFjCE3O5FRE408A6WYvIqzLwpgPcc+NNPJKILXe2M2VimCbpJ0u1+91sPXS5qdiSiei/wyJc2laBnjqCfOGzYMPHN8Ez1a0btnlNWVrZvvhD0RCJxQzQava62trbD/OWly+fTqtuv2cr/yhM3huurBwXaxyzz/F0TbszwsREKvxm49blQw4Dt+8TXmpz/9ngiMph59cSJE3eoqqqSCLTryAdDhgQ3x087+bbf+gRffc2R/mU/B7B8cTCQaCADvub46WZ0d6HtzZI8LZuUEQt3Eanf4AshIbHp4EdjRSUC3XugZPNtUTpoCHzb7Az07INGf0hIuUnmm/x87ylXgp7WGlINemr4mPk+AH9NXXJtiRcAPALgbht1io6gM7OYEb5tAyMp6mr6KiXo7dF3cCAuCg26eXCXtKqSF92JiCb9ECKSA7xKKwQKhKCLG8RXAPo5mNxlZiTwTx3UdaUKM0sE85cADLTZoFww9CUiGYPr4mA/SkuD3jIAZpbMLLYsNFsN/hYishuTwHXsstmgEvQU6LulQc/mJLd9di5p0JsimHcgsjBLEzHgw1fxyy3jUfHjFwhzSvdob2AmPxqD4VnLy6Jn9nr5F1fMbmbvOjBa2a2mS/fFK7co98X6VYcqNgnWr9khnGjoFyCfvzFQUpZg6mIYiQCzAfk1adeJ4PNRE9GOlVUQwhHyBfyIl5ShYtAQRDbcCOjSFei/DdC9JxLR7oiFIq294NfBSAl6+ktGCXpqDE3NmaTRsXPw+kgiu6dufW0JTwm66VsnEdMfJaKkGTts9DetoswcAiC+fnbM2+WZhxPRY2k9fF1iIFqrpDFa2jxnIRE5ScPjVncz0o6DA3ExEfQwgC8BiKbRici7dyoR2bHKcfKcvKpTCARdAGfm4wHc4xB8MQ8XywAxL8+oMPMgAM8B2NjBg8cQ0QQH9SxVcbAfuUXQJa2iuLjZ+e63HpO4LjxjaZAFWEgJeopJtUjQv5k4ceKQqqoqCWaS85IrBF3IOZHYabcxFGduijgef2cmltx2Fbr/NAclvE4q7oxgbFqcM4KhR2PhrpeGZy2VYEzJVdrOekVVAO14wAHBSN2XkV6N1aWBsq7+hd1+La+uj3RJ1CJs1DUGA7FGP4nKPBRIcDgYD3TfFPtfeMUMRLt1hz8ABIOIlVYgESyBLxBAi4b/t1zoHXdOCbqzSWtdSwm6NQyZWVxv3gTQFIvBA/GaoLdEoRZtx38A/BvATCJq9GAsnTZp5td9CMCfbD5bbvoq3Uxloxr09jPg4EBcNATdJGGHAnjc5tptW1x8js8gIskzXfRSQARd/LbfshlctPX8y34sbpPXm+dLz9cGM58I4GbRKzl4mFxE70REnh1yHexHrhB0811P57svFgVbF6tbixJ0JegdIpApH/QWDfpaIsmMEqMRePtFLL51PLov/EZSljnY89Kr0mzWTvFEqOSx4KaDL6R/vy85Gt0m56k6mfT97HPEsPCX02Z+7yOyk8Kj3fOUoKeagtR/V4KeGqOWEsx8MQCvNAVeE/SOco6vBCB5eJ8E8EImNOvMvCuAqQBEY2NX3iMiO1H1U7avBF0JespF0kEBZhYXlhFO6raqIz6qEvF5AhFJ7IqMCjOXARhMRO9k9MEd42nXfzvnfNBbfSdkbxPiKlZCTkW06GcSkZjMeyLMLJrhKQD2d/gAuUyQgGiemuVnk6ALLml+918GsG+mLlsczqMn1ZSgp4BVNehJAXIlivs6rTMjxHEEPn4dP19/EXos+gbBLKRSayLnTWbtkcde+K767EOWYZEnb18ajQ4bNiwyc+bM70kJehooulNVCbp1HJlZtCMviq+g9VqWS3pG0JlZNCNCAMRkL5lILl6xEBD/eTkc/s8trYhpXn8wgNPksGIZkfYFxTT49jTqt6uqBL09mg4OxEWlQTcP7RIoTsxfnZq6twZeIj/PkIsrIhLtq2fCzBUAJAvCIQBa0hX29iL6tp1BFIoGvWXMzJxOrIKWZoQAywWOBGBzzdKCmcWMfQwA0Zync4lQRURO4zFYXh4O9iPXNOjmuy5cc2Ya3/1LiOg6ywMukIJK0F0i6FVVVdtPnDgx636JVtZlXV3dSYlEQj5kSVNAZEqDvra/Qs4TjUi89hTW3HEtui76FsEs+ZyzL4CGYNn0n7v1vqjvc1/+aAXTTJcZPnx4+Omnn/7e5/P1SufZqkFPB73mukrQ7WHIzL0BfAKgh72aKUt7SdCPNE3aU3aiVQH5HkgKNPHRFm2Q5HGeayUyLTNLWjrRzgwDICl79nIBL4mePYCI5CLBNVGC3h5KBwfioiPo5t4p1hyvAShxbUEC3wEQv1WxbJEUuWlFgjbjZ0icBwnIKO/h/wGQYGat5SwiEk1q1qQACbqcT2UOWy5B0sFWzDCfACBuQc87WROmtYRoysVSQfrUYWBjG50UFw0JeOh5cCUH+5GrBN1819P57stFi6RZfN8GvnlfVAl6iim0qkHPJ4Iei8VOicViQtCTjj6jBJ0ZvngjMHM6au6+Fl2WzM8eOYevwSgpvXdVsMtV3V9flA2zdkubihD0Z5555gfVoFuCy9NCStDtw8vMog0Ws3A3xUuCLn2VPqcrYqDzi/kT/zrR/MkBTTT08hOTWdHOuH15If0+mojEb95VUYLeHk4HB+IVZuA0V+fGYWOjiOhrh3VtV2Pmw82MDXZyRlt9jhCzLwB8iGbiLlpUuaiSYGLy7slPNKDy3ol1jFyMbSIRtc2fROPeykI+68+JaLDVTnlRrtAIuknqZD7kknMLFzGTi1NxSRBLC7k0lcwAYiUpMaRarwcJZin5vLc1/eF3d/EiSYimpAxsl+3HxXGubcrBfuQ6QTfn848AnnI4RokBtR0RSQyYohAl6Cmm2SJB/3rixInbd5RaKxdXUc5p0BtjCAg5v/1KRFcshF+Cx2UBOCaq40B42mML68aOWAA5MOWsmBr0uT6fT24lHYtq0B1D1/rjJ2bHt9lo6QAiet5GeVtFc+VjnKrTzHyL+AimKmfj754QdGbuZhLqdEwZbQzDk6JPENFhXrSsBL09qg7eQS+mxmmbO2Q6nzQzyz4g+0E+y+5ENDtbAyhEgi5YMrOQ5FfNi5Nswevmc78XyygiWuJmo5215WA/8oSgm/OZznf/fiJymrYtU3C79pxs8CDXOt/SUFVVVWjcuHFy49uZL5PcupxLRHfZ6UBnBL1VirCvxowZs+3NN9/squmgnX7aKfvJJ5+c1L9//zs6q5MxDXq8EYFXHsfqmy5BxZqlWSPnhs9fz8HInc+uqL70kK+R8zd0BxxwQMmMGTMWEdF6dua+bVkl6Omg11xXNejOMGRmSbf0ngRZctZCu1peEfSTAbjqt+3SeK028y0AIV2rrFawU04Jenu0HByI7UDuddmME3RzHxWSPtmCttrr8Ttt/yEikjSMWZFCJejm2nCaXzwrc9HJQyVg3YFEJFr7jImD/chLgp7ud//YYkmxqAQ9xSuSgqA3Jadm5jV+v/9JwzAShmGsNdPy+byw2GrusGHIo9tLyzM7+rvP52uKf8bMA30+n/hTJZ1/Nwi6YRgL/X6/XIrIC9nuWY3ff+2PvP3siXWP3rFbZOmPWSHnBgNGIFQfC5U+8FY9XbDvhyvTOsROmjSp4uSTT54k4zUMg1ow7+zQkWwu285um/UkC+A1v98vJnyy0MxE6U21BGuZ5+7MLH1JKkrQ0/9GKkF3jqGZO1bM/SLOW1lb0yuCLgHf9nShf9loQszpdyMiMQ/0RJSgt4fVwYHYk7lx2GhWCLr0lZn/DECyJciZId8kBqAPES3NRscLmaCba6On6Ue+SzbwdeGZEo38cCL61YW2bDXhYD/yjKCbcylR+p1+98U9RUzdxRKhoEUJeorpNQn6O0S0XUdFmZvDjHcWcC0XV5CZgzxp11wi6HOi0WiHqYCmbYrwbhuud1oPo/GK8obaqB+JjJu1y21FwhesiUXKpj22KH7lcXOr0zY5uvnmm3ufeOKJ35gBRZrwTZWL3Mn6YOb6+fPn99lyyy2XJ6s/cuTIAVOmTPmms/aVoDtBf906StDTw5CZTwdwa3qtNNV2naCbAe3EZ9W721YXBp6kCen3/kT0pXePaCJVEgRviMVnLCQi0YYVtDg4EOcSHlkj6ObhXQLHPWgGScwlXKz05WIi+oeVgm6XKXSCbq4NCc4n0bzPcxs/j9sTCyxJ+Zb5nMHNF18SX8GOZainBN2cy3S++xKXQC6es4Knx2tlbfPFRNAlAMR5RNSpaXdb4E2C/i4RSaCIohEvCfqrwxEYXB06r5zjfw+yUSaLMBsL0fD51hgl5TfeXV8+4dQPF7kSrKOFoJsBn5rU2B5d3tR99913m26zzTZJLxVOPPHEgTfffHOnOUAdEvTjTX/BzlJOzSGi32Uhd3zG31El6OlDzsz/MdMWpdOYFwRdDoL/TKdTWaorrgOHEdFCr5+vBL09wg4OxF5Pk532s0rQzcO7fFvE+uskOx3PgbKi1eufjZzNxUDQW+aXmQ8y477k+mWfWDD9jYgeyebadLAfeU7Qzfc8ne/+tUR0aTZx9frZ2eBFro/Jog+6ELAxRCQ+TpZFCXpSqFLmQTcMo50GvQoInLVjuKpLInZegI1IthYgk6+aS8uumPLzmslnfwfXYge01qCbH2mvhphNgn6qSVok8m0yUYKeHBsNEtcGG3HHMFOvbWh5c25f0AuCLpq8Y9LoU6arikWXEJtLiUhMbj0XJehK0L1aZMy8r+SwBrC1V8/woN19iEjMmTMqxUTQTXInlzhXAhjtQsozt+dKDDTvBHBRNkza2w4mhwl6Ot99+dbJuyYBBAtSvCIPGQXLIkGXPHrXEdFYO51Tgu4eQX+uf/+SXXsuuTDSUDMmwInSbCw+iQ8f9wVqKFx65QMLVt10wjyklSO1LTp5SNDvLS8vl7yeloWZLwJwRYqUI0rQkyOqBL0DbJhZ/LxfSsOc3HWCbh4ExXxb3pGjAciBIldFzP5GZzpXrBJ0JehevhDMLO4lYrU1HsBGXj4rjbYlVeJzACQX+ouqQU8DSZtVmVlSsP0dwJFpfDtsPrXT4hLJ/xIietPNRtNpK1cJuvl9Tee7LxZi2xBRUlfPdHDLdt1scCTXx2yRoMtz754xY8YpI0aMkM3UkqTyQbfUSB4WctvEffowRPZJRMaVceKMYCIWzdbCiwdC1bXh6HW3LVh+8yXfI62AcB1Na2sT92brds9G6pYG3S5Bl6CINwEQ/yHxB0smStCTY6MEPQk2zHyNWDo53DI9IegtfWFmSbP2B5Ooy7+StzwXRA6C1xOR23nlLY1NCXp7mBwciC1hnaFCWTdx72iczCzfG0kVKBrT3TKERarHSIYECWp3NxEtSFXYy78Xmwa9LZbMvKXpm36UmdPeS7jbti3a3P8CuIGIJKhoTomD/SgjJu6tvq3pfPefJKI/5RTgLnXGM/bgUv8sNWODoL8IQEL0W46yaSUPuqVO5lkhNwn69D6I7Ns78o/SROykACfC2Yi21BS+nnwrEOk69oZvV9574WLUeDElrTTokVbs3Iv3zC2Cfk95efkJVrFg5i4A7rPgL6wEPTmoStCTYGMewkUDIYGi7IqnBL11Z5hZyPkBAA42/62029k0y0sAuOkAJC/sJ2m2lVZ1Jejt4XNwIE5rDlyunJMEvc37t415UXYogM1dHn+q5j4F8CyAR4noo1SFM/X3YiforciemL6LW5IQ9d1TKBLSnZ4vAIh/uezD89JtzKv6DvajTBN0uXxz+t0X2CQAnxuBZr2aAkftekEcHHUknUo2CLrkSj/GzqZarCbuoVBo12Aw+FYn85LSB700Xv/V+CEDdjq7W921ZUbspCAnQtlYcHEiJLp0j/vifPK/fl7+sJs+523xMQn6d8y8Nm2UR1r0+p9//nmT/v37Jw0SN3LkyC2mTJnSaQRnZralQWfmrcwIu6mCJipBV4LuaFtn5r4A/gcgarOBjBH0NmRB7hy3N1OxDZec4wDcJuxiwidpaUQ7M1P89bNhRtvRfChBV4Ju8z11tbiZqlEsWoaZF3u9XHyAuEbOASBnIbFUeZWIFrnYvmtNKUHv8D3sCuD3APY292XJKhRMA3TJXy77sPg9z/QyfWUafWxXNdcJunQ4je++VBdXVblY/NxN3LLdVjb4kutjtkHQJZL7yUT0b6udOOWUU4L//Oc/7yMiiczpE7Nlq3WTlcuhg1VTvmzz55N+JRIJw+fzlYRCob+GQqHONDNC0N9lZr/UNwyDfT5fUxuSwi3CCZ/vh8+WfnXWUd9sVr3ojBAMX9rAOQDegA+NXbs3lBw+6r3xU57ap2rOHE8DJ02ePLly1KhRz5iawGbFPVGT0YBp8i7/v7REUvsJ6Z83b97+gwYNWpGssZEjR246ZcqUxzuJpC79eqqsrGyc1Q4x8yEA7rLgi1s0BN0qdlqueBBgZvGVHWymitoMgAS/62G+N6LhKQEgJvMiQgJkXxKrHiHiywAICZCI0JK//HMikoOhiiKgCKRAwHz3RMO+qfnbBICQdglqKpYv8pP3T1I0yXsnAYTlvZNvqbx3PwKQ902I+VdEJO+nSgEgwMxhAKJkkD1Z1oXs03IRLGtClCpyTJU1UWeuCbG2FWul7wB8TUQrCwAGHUKeIJANzuQ6NDYIujz71ltvvfXiM888U8i6JRFiNX78eBo3blza5MrSAzNcqPXY5L/l8VVVVU353TuTFlxayrTgI22c2TW2/qLnpp8/cOVPZ4WMWEk2FpoEhIsFSpaujFZUTU1scXvVrFkZyZnYconTgqXb66ZlvkzNfKdrMtWFkpU2WuZ32rRp4ZEjR0rU1PMtZMZTgp7qBdK/KwKKgCKgCCgCioAioAgoAm0QyAZvcn0SbBL0r1944YU///73vxffERUPEJi0CXqd2DN8bZjjxwaNuD8bi4xFq+8PLaot61J1A5bdUzWr6bZcJQ0Enn322c0PPPDAhwBIVOtU8iURiTlZQV5qpRq8/l0RUAQUAUVAEVAEFAFFQBFwgkA2uJOTfnZaxyToYo7Uz2Lj540fP/4mK1pii+1pMROBqZug15E9QzeVGvHDA2KJnQVkhJyzz/99faDk3OvfqX22CkhpDZCFbubVI6uqqnzjxo2TYHK3WfTheo+IdlaCnlfTrJ1VBBQBRUARUAQUAUVAEcgyAtngT64PuaqqKjBu3DiJaCsRPa2IBCDal4jE10/FJQTuGlja+4guPDmSiB0aQCIbwdqbmXig5JtG4Pzwew3PuDS0om/m6aef7nHQQQc9BuD/LIAhWnNJ+3SxhbJaRBFQBBQBRUARUAQUAUVAEVAETAQKhaCLdu8IAGJ+a4UYShCIa4joCtXwufMu3LtNZMM/lwf/UVJfe3SA4xlfV82R7nyIB0I/xcu6nl326uKs5AR2B83ca4WZzwZwHQAJspJKVq9Zs+b3Xbp0eTtVQf27IqAIKAKKgCKgCCgCioAioH7c1/gAAA+lSURBVAj8hkDGiZRX4F988cUbT5gw4QUAW1h8xvx4PH5kMBhUEmERsGTF/rd5ZMN+3fiecKJxT7+RyIrPuWjOGwPhBXUlXc+6yb/4WfU5T3NSW1U309g8bUY+tdLwC5deeulfrr32WomMq6IIKAKKgCKgCCgCioAioAgoAhYRKBiCPnr06JLJkydLdOmrLY5dlK4vvfzyy3/dZ599Fluso8XaIPDM4K59dy+pvT/CiWHZ8zkncCA0Z01513NvfGXJS+pz7t4yffXVVyuGDx8+DcDBFq1TEgBOGDFixEMzZsyQ/1ZRBBQBRUARUAQUAUVAEVAEFAGLCBQMQZfxMvPWAB4FMMDi+CW/5VQiGm2xvBZrhcCSYSX9w3G+vzQR38kPI+NraW148EDo/XgkeuY1ry3/UMm5e0tUUrTV19dfFQ6Hz7No2i4Pnz1+/Pijq6qqFrjXE21JEVAEFAFFQBFQBBQBRUARKA4EMk6qvIR18uTJJaNHj27J02zFF126UwtgAhFdpf7o1mdnwd49Nu+6puaeSLxh52yRc/E5N4KhDwJdu52GF3/+iDSll/UJTF2SmPlM0yKlS+riTSXqAFwwYsSIqao9t4iYFlMEFAFFQBFQBBQBRUARUARaIVBQBF3GxcxbAZBo01Z90VuIxaS77757wqhRo9boCukUAVo5vHKbcGPD9aH6mr18nJ1o7Qn4EQuFP42XdTnrhpd/flM15+6t2qlTp5aecsopZwG4HEDURsuvAPgLEf1io44WVQQUAUVAEVAEFAFFQBFQBBQBE4GCI+gAWjR/N9ucZYnsfqcZ3X2hzbpFUZwBmrdtcJvKIE0LJ+Lb+rOUXtyAz0iEwh8vC3c9rfesnz9Uywf3lt+9997b/bjjjrsAwLkASmy0LNrzI4joWRt1tKgioAgoAoqAIqAIKAKKgCKgCLRCoBAJOqZNm1YxcuTIBwEcaHO2JajVLDF5Hz9+/Oyqqqp6m/ULtngV4Dt99+iw8trae8Kc6G/Vf8BtQBi+BALBmbHSktHhWau/c7v9Ym2vqqoqNG7cuG0BXALgDwBCNrGYMmnSpAvPO+88IeoqioAioAgoAoqAIqAIKAKKgCLgAIGCJOimFr0fgOcByL92RUx0pz322GPTHnnkkR9nzJgh2vWiFSHnZw7v8X+l1atvChuxrWXRZGPhGORLGMHQCwaVnV/y9vKvinZCXBz48OHDA6eeemqvo4466kgApwPoa7N5idU3e8aMGX8eMWLEUpt1tbgioAgoAoqAIqAIKAKKgCKgCLRCIBs8K1MTIKbuhwrRBmA1yFXrvok2/VsADwF49u233/5yl112KTrtoJDzM3at3DWaqJ0YaqzfkTiRFXKegN+IlUReX10SHL3BrJWfZ2oRFepzhgwZEvzggw/k8mofAMcC2B5A0MF4fzJN299zUFerKAKKgCKgCCgCioAioAgoAopAkRB0fPDBB8FtttlmTCAQELPdSBozPxfAywBeBfAZgB8HDRoUi0QiHI1GedasWWszfqXxjExVNWz4bNOCHcJ7dSPjrnA8vgnByBo5bwyXvrUyFD2596xF2dac59OlVktfaciQIb7ly5f7f/jhh0oAWwLYG8B+AH4HIOBw8a1sbGw8NxgM3kdE+fQOOByuVlMEFAFFQBFQBBQBRUARUAS8RSCfyIYjJISkDxkyZAKAM2zkck72rGoAvwL4GYD4P/8IYLmZXiof/NVlvl8ionmpwJSAcD/vGPlTRaLxlhKO986iWbuRKCmfvjBUOmazWb+k7HeqcaX7d2YWE3DJECAXHbkuYQBlANYDsBmA/gA2B9ATQFcA6YQSWA3gMiK6JddB0P4pAoqAIqAIKAKKgCKgCCgC+YJAwRN0cyJ8zHwbgBMcmvEmm88WrWE+aQ+PJqLpKRYoLd05+sfSeN3UsBHfIB0Wl86LYJA/gVDJg77K7mPoqfmL0mnLrbrMfA6AG9xqL0PtrNWku/S8GgBXENH1NqwxXHq0NqMIKAKKgCKgCCgCioAioAgULgLFQtDx3HPPdTnggAMkr/OZAEoLd0o7HVkjACHokic+qfywObboVRH+TzDeMNCH7Nw9xH0BNJaUzZj09apzLlvWZLGQE8LMsn4khV/RvDttgBeLkfGzZs26bc8994znxKRoJxQBRUARUAQUAUVAEVAEFIECQaCoSEafPn0i8+fPHw1gDICKAplDO8MQgn4UET3eWaWGHUJX+hONF/rBdvJg2+lHp2XjFOCGSJcZq7p3u2DDJ+fOd61hFxpiZol0PqUICbrc1MhcXDJ06NBHP/zwQ1lLKoqAIqAIKAKKgCKgCCgCioAi4CICRUXQBbfhw4eHX331VcnzfBWAgUVGtCwR9MQOwTt8ifhIgJ0GD3O8RJl8sbpw9P7SLUsuozuXLHbckEcVmVliGYjfdTG9O7Ju3hSf8z333PO9WbNmqebco/WlzSoCioAioAgoAoqAIqAIFDcCxUQyWs+0+KRvBeBCAH82A2kVw0qQfO6iQX+is8HGhgZvDhjx0yjDBJ3JV8ehyC1Xzq+ZULUAK3JxQpj5NAC3FglBF625XJJMu/vuu28ZNWqUuBpkx+chFxeD9kkRUAQUAUVAEVAEFAFFQBFwGYFiJehNME6dOrXrKaecchCA88w80C7Dm3PNWdKgr94lekgkVndXwIh3z8QIhPEZvkAdh8KTbvuq+rqzV0AihOekFIkGXaYkAeAFADcOGjTo9Tlz5sjljooioAgoAoqAIqAIKAKKgCKgCHiIQFETdMG1qqrKN27cuPUBnCgB1Mx0VIUaRE4I+kgieqizNfXVwYj2Xl4xPtJQfbrfiIe9XCRNTNAXbIiFy+/8shcuGzpj5SoP13vaTTPzxQCuLVANukzHSgCfAbgDwLNEJPOhWvO0V442oAgoAoqAIqAIKAKKgCKgCKRGwEvulfrpOVRi+vTp/oMOOqh3JBIZAeBQAFsDiOZQF93oiuTuPoGI7kvV2IS+6Hp6ry5VkYa6UwNGY8SrhRL3BWoaSrvcNWXxissv/hprUvUr239n5rGSYizb/fDg+QsBvAdAUvA9B2ANESkx9wBobVIRUAQUAUVAEVAEFAFFQBFIhoBXvCuvEV+6dGmvHj16bAegZ14PpH3nhXDNJqK5VsZVVYnyCzbv9vdQ/ZozAhwvc3uxsM+/IhGOTrph6a835QM5F8yYWS5utreCX56UkWkV8/Ufli1b9lllZWXOX5LkCa7aTUVAEVAEFAFFQBFQBBQBRcA2Am5zLtsd0Aq5jcDU3ig9tl/FBSX1Nef6Eo1NqenSXTRyS8D+4AojGL76iV/X3DJiThNBVFEEFAFFQBFQBBQBRUARUAQUAUWgqBFIl2sVNXjFMviqTRH+20bdziutrxnrT8SafNKdLhwh53F/MFZf2mXs83OX3zxiAeqKBUcdpyKgCCgCioAioAgoAoqAIqAIKAKdIeCUZymqRYaAkPSzN+p+dln96vGBRKMjki4O8Al/SW11aZerHli49Iazv0NDkcGow1UEFAFFQBFQBBQBRUARUAQUAUUgKQJK0HVxWEagCgiftXv3k6L1a/4RSMSaAsdZXUBN0dr9gSX1petV/TcWumfE2wtUc24ZeS2oCCgCioAioAgoAoqAIqAIKALFgIBVflUMWOgYLSAwGSg5bo+eJ5bWrrrCn2joYYWkMwgJv3+JUVZx3tQFyx5VzbkFoLWIIqAIKAKKgCKgCCgCioAioAgUHQJK0ItuytMfcBUQOmd45dGltatuCMRj6/mSNNkUDK6JnIdWxcq6nvnckiUzNCBc+vhrC4qAIqAIKAKKgCKgCCgCioAiUJgIKEEvzHn1fFTTAf9e/9f92C711dcH4g2VHS0kA4R4IPxrXXnFhR+/8vM9ewJxzzumD1AEFAFFQBFQBBQBRUARUAQUAUUgTxFQgp6nE5cL3a4CAmfv3v2o0oaaCcF4w4Y+iM68WQz40Bgomd9QGh3zwqwl/x4BJHKhz9oHRUARUAQUAUVAEVAEFAFFQBFQBHIVASXouTozedIv0aQf8H+Vhwcb1owOxmODfYbhT/j99UYg/HFDuHTqQ2uWPnnqh2jMk+FoNxUBRUARUAQUAUVAEVAEFAFFQBHIGgJK0LMGfWE9+NON0XeTCuxUFkLpt/OxuK4CH23/NRYV1ih1NIqAIqAIKAKKgCKgCCgCioAioAh4h4ASdO+wLcqWGSCS2HAqioAioAgoAoqAIqAIKAKKgCKgCCgCthBQgm4LLi2sCCgCioAioAgoAoqAIqAIKAKKgCKgCHiDgBJ0b3DVVhUBRUARUAQUAUVAEVAEFAFFQBFQBBQBWwgoQbcFlxZWBBQBRUARUAQUAUVAEVAEFAFFQBFQBLxBQAm6N7hqq4qAIqAIKAKKgCKgCCgCioAioAgoAoqALQSUoNuCSwsrAoqAIqAIKAKKgCKgCCgCioAioAgoAt4goATdG1y1VUVAEVAEFAFFQBFQBBQBRUARUAQUAUXAFgJK0G3BpYUVAUVAEVAEFAFFQBFQBBQBRUARUAQUAW8QUILuDa7aqiKgCCgCioAioAgoAoqAIqAIKAKKgCJgCwEl6Lbg0sKKgCKgCCgCioAioAgoAoqAIqAIKAKKgDcIKEH3BldtVRFQBBQBRUARUAQUAUVAEVAEFAFFQBGwhYASdFtwaWFFQBFQBBQBRUARUAQUAUVAEVAEFAFFwBsElKB7g6u2qggoAoqAIqAIKAKKgCKgCCgCioAioAjYQkAJui24tLAioAgoAoqAIqAIKAKKgCKgCPx/+3VoAwAAgDDs/6+5ATFXTxB1I0CAQCMg0BtXrwQIECBAgAABAgQIECBA4BIQ6BeXMQECBAgQIECAAAECBAgQaAQEeuPqlQABAgQIECBAgAABAgQIXAIC/eIyJkCAAAECBAgQIECAAAECjYBAb1y9EiBAgAABAgQIECBAgACBS0CgX1zGBAgQIECAAAECBAgQIECgERDojatXAgQIECBAgAABAgQIECBwCQj0i8uYAAECBAgQIECAAAECBAg0AgK9cfVKgAABAgQIECBAgAABAgQuAYF+cRkTIECAAAECBAgQIECAAIFGQKA3rl4JECBAgAABAgQIECBAgMAlINAvLmMCBAgQIECAAAECBAgQINAICPTG1SsBAgQIECBAgAABAgQIELgEBPrFZUyAAAECBAgQIECAAAECBBoBgd64eiVAgAABAgQIECBAgAABApeAQL+4jAkQIECAAAECBAgQIECAQCMg0BtXrwQIECBAgAABAgQIECBA4BIQ6BeXMQECBAgQIECAAAECBAgQaAQEeuPqlQABAgQIECBAgAABAgQIXAIDaJAICp4r5Z0AAAAASUVORK5CYII=;" parent="1" vertex="1">
          <mxGeometry x="318" y="82" width="273" height="83" as="geometry" />
        </mxCell>
        <mxCell id="d7e-pXuVDqqFeXEML5Xj-9" style="edgeStyle=orthogonalEdgeStyle;rounded=0;orthogonalLoop=1;jettySize=auto;html=1;entryX=0.5;entryY=0;entryDx=0;entryDy=0;" edge="1" parent="1" source="X4Cfzik3C5HuxUFZM-TQ-157" target="d7e-pXuVDqqFeXEML5Xj-1">
          <mxGeometry relative="1" as="geometry" />
        </mxCell>
        <mxCell id="d7e-pXuVDqqFeXEML5Xj-10" style="edgeStyle=orthogonalEdgeStyle;rounded=0;orthogonalLoop=1;jettySize=auto;html=1;entryX=0.5;entryY=0;entryDx=0;entryDy=0;" edge="1" parent="1" source="X4Cfzik3C5HuxUFZM-TQ-157" target="d7e-pXuVDqqFeXEML5Xj-2">
          <mxGeometry relative="1" as="geometry" />
        </mxCell>
        <mxCell id="d7e-pXuVDqqFeXEML5Xj-11" style="edgeStyle=orthogonalEdgeStyle;rounded=0;orthogonalLoop=1;jettySize=auto;html=1;entryX=0.5;entryY=0;entryDx=0;entryDy=0;" edge="1" parent="1" source="X4Cfzik3C5HuxUFZM-TQ-157" target="X4Cfzik3C5HuxUFZM-TQ-159">
          <mxGeometry relative="1" as="geometry">
            <Array as="points">
              <mxPoint x="943.5" y="265" />
              <mxPoint x="741.5" y="265" />
            </Array>
          </mxGeometry>
        </mxCell>
        <mxCell id="d7e-pXuVDqqFeXEML5Xj-12" style="edgeStyle=orthogonalEdgeStyle;rounded=0;orthogonalLoop=1;jettySize=auto;html=1;" edge="1" parent="1" source="X4Cfzik3C5HuxUFZM-TQ-157" target="d7e-pXuVDqqFeXEML5Xj-3">
          <mxGeometry relative="1" as="geometry">
            <Array as="points">
              <mxPoint x="942.5" y="264" />
              <mxPoint x="1144.5" y="264" />
            </Array>
          </mxGeometry>
        </mxCell>
        <mxCell id="X4Cfzik3C5HuxUFZM-TQ-157" value="&lt;div&gt;&lt;br&gt;&lt;/div&gt;&lt;div&gt;&lt;br&gt;&lt;/div&gt;&lt;div style=&quot;font-size: 22px;&quot;&gt;&lt;b&gt;Wiki&lt;/b&gt;&lt;br&gt;&lt;/div&gt;&lt;div style=&quot;font-size: 14px;&quot;&gt;&lt;i&gt;Note: The Wiki is seperate to the single page application.&lt;/i&gt;&lt;br&gt;&lt;/div&gt;" style="rounded=1;whiteSpace=wrap;html=1;fontSize=26;verticalAlign=middle;" parent="1" vertex="1">
          <mxGeometry x="831.5" y="82" width="223" height="148" as="geometry" />
        </mxCell>
        <mxCell id="X4Cfzik3C5HuxUFZM-TQ-158" value="" style="shape=image;html=1;verticalLabelPosition=bottom;verticalAlign=top;imageAspect=0;image=data:image/png,iVBORw0KGgoAAAANSUhEUgAAA+gAAAEsCAYAAABQRZlvAAAAAXNSR0IArs4c6QAAIABJREFUeF7snQeYVOX1/7/nTtsysxQRsWPXYEFBxY7tpyYaTRQSsaBGxfwNsWGMiYbVWBHFbjRRiZqYiLHHgiL2DnZAQQWU3reXmXv+zxkGA7gze6ftzsx+3+fZhzzZt37e9173e895zxGwkAAJkAAJkAAJkAAJkAAJkAAJkAAJdDoB6fQZcAIkQAIkQAIkQAIkQAIkQAIkQAIkQAKgQOchIAESIAESIAESIAESIAESIAESIIECIECBXgCbwCmQAAmQAAmQAAmQAAmQAAmQAAmQAAU6zwAJkAAJkAAJkAAJkAAJkAAJkAAJFAABCvQC2AROgQRIgARIgARIgARIgARIgARIgAQo0HkGSIAESIAESIAESIAESIAESIAESKAACFCgF8AmcAokQAIkQAIkQAIkQAIkQAIkQAIkQIHOM0ACJEACJEACJEACJEACJEACJEACBUCAAr0ANoFTIAESIAESIAESIAESIAESIAESIAEKdJ4BEiABEiABEiABEiABEiABEiABEigAAhToBbAJnAIJkAAJkAAJkAAJkAAJkAAJkAAJUKDzDJAACZAACZAACZAACZAACZAACZBAARCgQC+ATeAUSIAESIAESIAESIAESIAESIAESIACnWeABEiABEiABEiABEiABEiABEiABAqAAAV6AWwCp0ACJEACJEACJEACJEACJEACJEACFOg8AyRAAiRAAiRAAiRAAiRAAiRAAiRQAAQo0AtgEzgFEiABEiABEiABEiABEiABEiABEqBA5xkgARIgARIgARIgARIgARIgARIggQIgQIFeAJvAKZAACZAACZAACZAACZAACZAACZAABTrPAAmQAAmQAAmQAAmQAAmQAAmQAAkUAAEK9ALYBE6BBEiABEiABEiABEiABEiABEiABCjQeQZIgARIgARIgARIgARIgARIgARIoAAIUKAXwCZwCiRAAiRAAiRAAiRAAiRAAiRAAiRAgc4zQAIkQAIkQAIkQAIkQAIkQAIkQAIFQIACvQA2gVMgARIgARIgARIgARIgARIgARIgAQp0ngESIAESIAESIAESIAESIAESIAESKAACFOgFsAmcAgmQAAmQAAmQAAmQAAmQAAmQAAlQoPMMkAAJkAAJkAAJkAAJkAAJkAAJkEABEKBAL4BN4BRIgARIgARIgARIgARIgARIgARIgAKdZ4AESIAESIAESIAESIAESIAESIAECoAABXoBbAKnQAIkQAIkQAIkQAIkQAIkQAIkQAIU6DwDJEACJEACJEACJEACJEACJEACJFAABCjQ29iERx55pKeI9HNdt7eIiOM4WgB7lfUUYrEYQqHQe8cdd9y3WXfWRTt45JFHdnAcZ+dSWb7ruvYOaHFdd86MGTO+qK6ubiqVtXEdJEACJEACJEACJEACJFBsBCjQEzumqlJfX9+7srLyCADHAtgfQI9i21AP8/2ViDzooR6rtEFAVf8IYHQJwbF3QAzA1wBeBfDkPffc89qIESMaSmiNXAoJkAAJkAAJkAAJkAAJFAUBCnRAqqurNxw9evQJAE4EsCuAqqLYvfQn2QLgdBH5Z/pN2cIIqOolAK4FUIrPjnmKLALwFoC/X3/99a/+/ve/X8WdJwESIAESIAESIAESIAES6BgCpSgyPJO74YYbKkeNGnUggAsB7AOg0nPj4qxoAn2YiPynOKff+bNW1XMB3FaiAn0NYBPqywE8BeCue+6556MRI0a0dj59zoAESIAESIAESIAESIAESptAlxTo1dXVzujRo7cE8P8AnF3CFvP1T68J9F+KyOOlfazztzpVPQfAnSUu0NcGOAfAzTfeeONDo0aNWmZOBPmjy55JgARIgARIgARIgARIoGsT6HICfciQIb5HHnnkIABXAtivi22/WUFNoD/Wxdads+Wq6q8B3NGFBLqxa05Y068UkWkA3JwBZUckQAIkQAIkQAIkQAIkQALfE+hSAv3ZZ58NHXXUUcMBXA2gVxc8BxToWW56FxXoRs0s5zMBnD9hwoSJQ4cOtcByLCRAAiRAAiRAAiRAAiRAAjkk0GUEekKc2/3hagCRHDIspq4o0LPcLVW1axG3dzEL+trUFgD47YQJEx6nSM/yMLE5CZAACZAACZAACZAACaxHoEsIdFV1AFwF4DwAFTk6BWvu4hbbnVxzcZ+QIwZdrhtV/S2Am4ps4facr/nJxdQtgNylAP4qIsV2/nOxfvZBAiRAAiRAAiRAAiRAAnkhUPIC3fKbA7gMgKXHyjZKu7n1miBZCGBWIne0Bc6qB9BYBAG0fAAeE5Ev83KaukCnqroTgN0TucML+fmxc1oOIAygN4BtAGwPYNuEB4mdhWzK0sQHr4cp0rPByLYkQAIkQAIkQAIkQAIk8D8ChSwwst4ns5w3NzefGwqF/gygWxYdzgMwBcBkAO8C+OrUU0+tX7p0aTQcDuvXX39dNFbEKVOm2EcGBvnK/DDIkCFDzCOjKMqSJUtk8eLFTu/evZ3JkyeHAGya+MDwf4nUglsDyFSsL2xpaTknFAo9WRQwOEkSIAESIAESIAESIAESKHACpSzQRVVNhPwDwAYZ7sN3AMwd/LFp06Z91K9fP7OUF40Yz3DNbFb6BOSbb74J9e3b17wBfgLgRAA/ynDZ5o1xvIh8lmF7NiMBEiABEiABEiABEiABEkgQKFmBftddd216zjnnPA9g5wx2exWAf9sd24kTJ04/4ogjTJizkEDJEUgETzQr+ikAzgCwUZqLtA9Wz95zzz0njRgxwp4bFhIgARIgARIgARIgARIggQwJlKRAv/766yO/+93v/gZgaAZczJX9qnHjxr1w4YUX2r1yFhIoeQK33npraOTIkfsCuBzAgWm6vduViTH9+vUbPW3atJaSh8UFkgAJkAAJkAAJkAAJkECeCJSiQDfXdst1fi+AdO4K291ss5pfccUVV8yqrq7mPe08HTp2W7AE7NnZDMAfAJyVpkivAXCsiLxSsKvjxEiABEiABEiABEiABEigwAmUnEBXVYtW/SiA/mmwbwbwt1deeeWygw8+eGUa7ViVBEqOwOTJk8ODBw/+PYDz08x88CyA4SJiEd5ZSIAESIAESIAESIAESIAE0iRQUgL97LPPDtx9992WUu2PaVj/zCX3rilTpvxh4MCBxZAqLc0tZnUSSJ/AzJkzQ9tuu62lJrR852Uee7BYDSNFZDyDKXokxmokQAIkQAIkQAIkQAIksBaBkhLoiRzVFnW9n8ddNrf2B6dMmXL2wIEDWz22YTUS6BIEPvjgg8CAAQPGAvg1gIDHRU+64IILTrn55psXeKzPaiRAAiRAAiRAAiRAAiRAAgkCJSPQE9bzcwGMS2N33542bdov+/XrNzeNNqxKAl2GwNSpUzfcfffdHwZwCAAv7wu7LnLSFVdc8TjjOHSZY8KFkgAJkAAJkAAJkAAJ5IiAlz+4czRUfrsZOXLkZrfeeuvTadw9XwjgVBF5sa2ZPfLII77dd9/dv9122zWrqogI85/ndwvZe4ESUNW9ADwCYEuPU3ziwgsv/NW4ceOWe6zPaiRAAiRAAiRAAiRAAiRAAh4tYgUPygS0RZAGYO7tfg8Ttnvnt4vIxQDajNZ+//33dz/xxBN7hkKhbyjOPRBllVImYNHdLbK7pWALeVioCfP/ExFLWchCAiRAAiRAAiRAAiRAAiTgkUBJWNCrq6v9o0ePtsBUJ3lc9/SXX3758EMPPXRee/XvvvvuwEknnXSFiHR3XdfurMdU1RURX3tti+z35iFg58H+LQuHw2NE5OsUa5C6urpxqmqp7KzNmvaFuGzzgFgQDoevSxW8rK6u7khVParA15JLvj7Xdd/p1q3bQ+11+vzzz298xBFHPAHArOntFTsLV4pIdXsV+XsSIAESIAESIAESIAESIIH/ESgVgR4cPXr0ZwC287C5Jh4uv+KKK65t746sublPmzbNN2rUqJkisoWHvkumSjAY3D8QCLyZSqDX19fXppmGq9P4uK77eSQS2TWZx4RNrL6+3qL/X9Vpk+yEgVX1gXA4PLy9oe1ZGDJkiAWLu9ljhoS3RGR/RnNvjyx/TwIkQAIkQAIkQAIkQAKlKdC/ANDXw+bOfuONN4474IADPvZQF0OGDAnef//9H4vIjl7ql0qdYDC4byAQeLtUBLqqTg2Hw3umEuh1dXWXiMi1pXL1w8tZVNXx4XD4dC91x40bt9P555//bwC7eKg/TUR2pkD3QIpVSIAESIAESIAESIAESCBBoJQs6F4F+t/uueeeUSNGjFjl5RSYQL/33nvf9Pl8A73UL5U6pSbQXdf9MBKJ2B62GXPA9q2uru5SEbmmVPbQyzrSEeg33HBD5ahRo+wDxkgPfVOge4DEKiRAAiRAAiRAAiRAAiSwNoGuJtAbAYwQkQe9HgMT6OPHj7dgV2YN7DKliwp0WtDbOeGqegKAewD0aKcqBXqXeVtwoSRAAiRAAiRAAiRAArki0NUE+lcAhonIe14Bjhw5MnTddddNA7C11zalUK+iomJfESklF/ePwuHwgPZc3AFcJ1ISj4WnY6iqfw+Hw6d5qmz+6qrm3v4PD27uFOheobIeCZAACZAACZAACZAACSQIlIQSqa6utiBxXlzcJ1mkdxFZ5PUEmEC/5pprpjmOQ4G+LjQppiBxqupJoHfBO+jpCvTuAMwD5Wha0L2+RViPBEiABEiABEiABEiABLwR6GoC/e8AzhKRVm94sCZI3CciskNbbVQtKDxQalbXjrCgG7uO4kaB3vaJT+cOuvVQXV3tjB49+ja7KtJONHda0L2+ZFiPBEiABEiABEiABEiABBIEupJAjwKw3N6WSstzSURx/0hEdkoi0C3omLqu2+Q4TiY8rU0m7dZMZ00O8vbWJKpqDCwnuCMiFakadIRAt/Fd121t64OJqhqTqIgY34jNub0Fpvp9LgR64mNMQ5rzyHZ/1x6u3b12Xdd1HGcNK03sc9Lzla5At8mo6u8BjAZQloIFBXqaB4XVSYAESIAESIAESIAESCAbYVgw9Dy6uJuw+oOI3JLOxBNB4qYC6Jesnap+UVlZuReA5nT67oy6Q4cO1QcffPC0WCx2dyEIdMdxrjrvvPOuvPvuu9sU4CNGjHBvuumm50XkkGx45Uiguz6f75CysrJ3splLR7U999xzNx8zZsxUEYmkOLue06x9/0VI9RwAYwFUUqB31G5yHBIgARIgARIgARIgga5AoCsJ9DoAF4mIRaD2XBIW9CmJnM5ttlPVGZdffvke48aNsyjxBV9aWlrObm1t/Usqy31HWdBjsdg1VVVVKb0a6urqJovI4GzA5kig6+OPP37QKaec8no2c+motsOHD9/mzjvv/AhAOMcC3YLK3WqeDRToudtNVe2TCEbZG0AvAN0AhBI/5v1iHxntHWP/LgUw135EZGXuZsGeSIAESIAESIAESIAEOpNAVxLotQAuEJF70wGeEOgfiIhFr04m0L+orq4eMHbs2Pp0+u6sui0tLWe1tLTcbb7uyeZAgd72Vj/xxBODTzrppNc6a+/SGdcE+h133GEW9KocC/STAdxJgZ7ObqxbV1W3A2AfnfYEsAcAu0KT8tpJitHs3fYZgPcTP++KyMzMZ9e5LVXVPig930mzsCs19jGkBYB91F0BYEHiY8gMANNFZFknzY3DkgAJkAAJkAAJdAECFOjtbHJCoNsfvP1LSKCf2dLScg8F+ro7WldXlzIPut1Bf+yxxwafeuqprxbDu4ECvXB2SVV9AA4EYHnkjwGweZ5nNwvAUwCeBPCmiMTyPF7OuldVyxRgwrhQy2wAds3lFQBPpJMVpFAXxHmRAAmQAAmQAAkUDgEKdA8C/b777nvbcRyzcrVZ7A56kVnQKdDb2EkKdG8vJlWlBd0bKguot5lljgDwKwCbemyW62rmCn8XgL+JiLnGF3QpAoG+Nj+zuE+2mAwi0llW/4LeT06OBEiABEiABEggPQIU6B4E+v333/+WiAxIIdC/HDt27IDq6mpziSz40tLSQoFOgR4nkGEUdwr0dp7yhAu7Rbs/BUCgQF4KTYkc9tUiMr9A5vSDaRSZQF97/hZM9Nci8l6hsuW8SIAESIAESIAECp8ABbo3gf62iKSyoFOgZ3jWOypInOu6H0UiEfvIYhavNosXC/pTTz01eNiwYXRx5x30Ns+Qqto98j8BuLCAhPn6c7Ugczcl0k7a/fWCKkUs0I2jvV8sPsMoESn4rB4FtfGcDAmQAAmQAAmQQJwABXqOBPqVV145cMyYMUn/2K2urnY+//xz/+eff57Xo1deXq5TpkxpTTVIrizodXV1K0SkPMVYlns9kCIWHSzN2v77739lY2Njm2fR1vPqq6++ICIHJxsnkZ/c8qlbnvAflERO9S/C4fBuHSDQZcCAAf5k68nV5vfr1w8TJkywfW5zzTYO76Dnira3flT12ER0+y28tej0WvPsmIjIpE6fyVoTKHKBvmYlbwP4Ge+nF9LJ4lxIgARIgARIoDgIUKB3kECfPHnyYXvuuefwVAIx2yNjQth13W8jkchlHSHQ33rrrVM0oY7b0sUVFRV9tt9++xtSCWsR+VRVLfq0P0k9E6FHi8hGKfpxZ8+efc6qVavMhTdZWb7ffvs9m0rQ5sKCPm7cuO5nnXXWOABt5nXPdo/XtLePEfPnz//tdtttV5OsTwr0XNFO3Y+qWpT88SbIOmbEnI5iH3huAXCpiKR6fnI6aKrOSkSg2xLnANhHRCwKPAsJkAAJkAAJkAAJeCJAgd4OpkQU96xd3CdNmnTOoEGDLFBTvsuUysrKgakGyZEFvd11qOr2DQ0NX7RbMcsKqho7+uij+7zyyitZBcDKhUC/7bbbNjnjjDMsxVWmKbO80miaNWvWlrvttttiCnSvyHJfT1W3BvA0gB/lvvcO7dE+kh1TCBbfEhLotoF2L/1AESmKFJwdeuI4GAmQAAmQAAmQQJsEKNA7SKBPnDjxnP322y/vAl1Vp4TD4UIR6Ds2NDRMz/ezV4AC/UsAlXled+OsWbP6UqDnmXKK7lXV8pg/CmCDzptFTke29GFHiYjl++60UmIC3Tj+XURO6zSgHJgESIAESIAESKCoCFCgd5BA7ygLOgV65s9fDi3oFOjANBHZOdWVgsx3qvNbqurPAfyrgAPBZQrJ8o8fJiJm+e2UUoIC3TjuLyJvdgpQDkoCJEACJEACJFBUBCjQO0ig04Kev+eiIy3ojz322OBTTz01aRT3hIs7BXoJC3RVPRDARACh/J3qTu15CYADRCTv11PaWmWJCvSXReTQTt1VDk4CJEACJEACJFAUBCjQKdDbJFBRUbGviFgk4oyLqpacizsFejx3epfNg66q5hXwOoDuGT8YP2xogdo+TtxX/giA/SwCsBKAWbRjAMIALBhdTwDbA9gp8XMAgM1yOJc1XX0LYD8RsX87tGQo0L8B8HUGE7VgjhYvwvjatRQLRpkqM0UGQ3zfpJ+ITMumA7YlARIgARIgARIofQIU6BTopSDQo0cfffTGHREkjgK96wp0Vd0UwLsA7N9clHcS0d+fyCY4m6r2AzAUwOkANs/FxBJ9fJAQ6S057LPdrjIU6FeISHW7nbdTIZGS0dLk2UeQvQD8BMDeOcrKcK2I/CHbObI9CZAACZAACZBAaROgQKdAL3qB7rpuy3HHHbfJpEmTlmXzuHq5g06B3qUF+vMAjsjmjCXaPgngahGxyOk5K6rqA3AcAEuz2D9HHd8iIufnqC9P3XSmQG9rgqraG8AFAH6TsLR7WkcblaaLSLFH+8907WxHAiRAAiRAAiTgkQAFOgV6Zwt0yxU8MyEu2ppLFMBAEemRbKvsDvr48eOPmzVrVl1bdVzXFdd1a2+//XazCCYtFOje3hpd0cVdVc8CcI83QklrfQbg1yLyRpb9pGyesAIPA3AzgF45GOunImKp5DqkFJpAX7NoVTWW/wRweIYg7CpDTxGxqwssJEACJEACJEACJNAmAQr0dg5GseVBL7Yo7q7rXvXcc8/9eeHChW2exT59+uiPf/zj50TkkBQCHSLSlOL3IiJfVlZWmlXRTVaPAt3bW7KrCXRVNZfnTxN3wL1BWreWCbPbAfwu1TnNpONUbRKC8lYAJ2bZt91D31FEGrLsx1PzQhXoNvnEh0T7UHOGp8X8sNIRImIBBllIgARIgARIgARIgALd3BRF5N50zkKuBDqjuLdNPRaLXVNVVfXHVHvS0NAwOZFzOp2tW6euqn6YyA9Pgb4WGVUdHw6H7e6y59IFBfoLAP7PM6B1K5q19EQRMff4TimqavfTH8gy6vyfReRPHbGAQhboCZEeBPAegN0y4HGZiFydQTs2IQESIAESIAES6CIEaEFvZ6Mp0DN/ErxEcfci0Ovq6iaLyODMZxK3fFGgtwGQAj31qVJVE+Ym0DMpnZ5TfM2kVdU8UJ4AEMlkIQDMQ2UHEZmbYXvPzQpdoCdE+iAAmWS5uEtE/p9nGKxIAiRAAiRAAiTQ5QhQoFOgt0mgo9KseRHotbW1kx3HyVagfxQOhwfQxX3d7aZAb1egWyC3gRn8l8ECFh4uIh9m0DYvTVTV1mGW/A0yHKBDAsYVg0BPiPQZ9tEiTZb/EpFsrxykOSSrkwAJkAAJkAAJFBMBCnQK9E4V6NFo9Opu3bpZ1OmkJUcWdAr0NghToCc/dwmr86QMXuiWluwgEbE0agVVVPVAAC8BCGQwMQvCuHm+g5wVkUAfC+CiNDk+LyJHpdmG1UmABEiABEiABLoQAQp0CvROFeheLOgU6G1uUeOsWbP67rbbbouTHeHhw4dvc8cdd0wVkapkdSjQUwr0pwAck8F/D84XkVsyaNchTVR1FIAbMhzs9yJyfYZtPTUrIoF+XiJSvqd1JSq9ISIHpNOAdUmABEiABEiABLoWAQp0CvROFei0oGf8wqFAzxhd+w1VdWMA3wFw2q+9Tg0LHraPiCQNRphmfzmvnohEbven98yg87zn8i4igW7B9/6dJkNa0NMExuokQAIkQAIk0NUIUKBToGck0C3X8oQJEwJbb721pZBqswwYMGDb+vr6T5Ld+1ZVJxaL3dS9e/dLUm0DLeht0qFAz+PbWlUvBHBjBkOYOC841/b116Gq+wB4K4P1WZMficj0DNu226yIBPpJAB5qd0HrVuAd9DSBsToJkAAJkAAJdDUCFOgU6BkJdABSV1f3koiE1upgjVi3c2X/e/lZZ511o4jE2hpERBzXdef+85//nEOBnvarhwI9bWTeG6iqWZgtUnc6ZaKIHJFOg86sq6oWMC6T+f5JRP6cr7kXkUC/FMA1aXJgFPc0gbE6CZAACZAACXQ1AhToHSTQJ02adM6gQYPuyvcBU9UpiXzfSYdqaWk5s6Wl5R4RSbr/HqK4S319fS2AymQDua47PRKJ/CjbNdOC3iZBCvRsD1aS9qraE8CSDNzbj+rMfOfp4lDVQxMB49Jt+p6I7J1uI6/1i0igPw7gOK/rStQr6PgEaa6F1UmABEiABEiABPJAgAKdAr1NAjkS6NMikUi/bM8tBToFerZnKJ32qprJ3eJvAfQt5Lvn6zOwayoAvgCwXTp8ALQCqBIRy42e81IMAj0xx3kAKtIEcKCIvJ5mG1YnARIgARIgARLoQgQo0DtIoE+cOPGc/fbbr6tZ0CnQ8/cyoQU9T2xVdRyA89PsfpyI2L31oiqqaikOM3FX319E3szHYotEoF8L4Pdprt8CB3YTEUtXx0ICJEACJEACJEACbRKgQKdAb5MALeg/xKKqeOyxxwafeuqpryY7NrfddtsmZ5xxxpepXP9z9C6iQM8RyPW7UVULnmZB1NIph4lIJjnT0xkj53VVdVcAH2fQ8cUiYnnAc14KXaCr6kAAFgjQl+biXxcRy0PPQgIkQAIkQAIkQAJJCVCgU6BToCcI1NXVXSIiZhlr87mgQF8NSlVPBnAngEiKx2eaiOycCBZYVK9gVa1pZ23rrydq9fPl8p1veKo6G8CWaY5zn4j8Ks02nqoXskBX1f4AngPQx9Ni1q30/0Qk715UGcyLTUiABEiABEiABAqIAAV6jgT6lVdeOXDMmDEWNK3NQhf3zE8976C3yY4W9MyPVNKWifzn89Ps+mMRMeFWlEVV/wXgF2lO/mURsSBzOS+FKNBVNQBgBICr7f59Bou2jzgbi8jSDNqyCQmQAAmQAAmQQBciQIFOgd4mgVJzcXdd9+NIJLJHspzsBiGHFvSZGQSPSve1Q4GeLjEP9VV1fwDpBvF6SERO8dB9QVZR1YsApOuu/rWIbJOPBRWSQFfVnQAMATAcwNZZrPdeETkzi/ZsSgIkQAIkQAIk0EUIUKB3kEB/6aWXDhs0aNDpqQRitmfOojKLyNxwOPyHVH11YJq1doPEzZw5s5+IDFDVH+RKdxxHXdf19enTZ4CIbJBwl077zBoXn883r6KiwoI6rcnV/gNEXgT6k08+edBJJ530WjK+d955Z49TTz31ljVu8q7rquM4ac851f65rgtjM2PGjJEDBw5clazu8OHDt7njjjumikhSi5+qjg+Hw3YuPZdSdnFXVRNjj3iGsbriNSLyxzTbFEx1Vf0/AC+kOSGL5B4SkaTPU5r9fV+9IwR6IoK9WcX9iXgR9ozYO2YrAPbhYQAASyW3aabrWKudRbvfTkS+y0Ff7IIESIAESIAESKDECeRUOHQWq+rq6uDo0aMtXVDfFHMw9/MLROTedOY5ZMiQ4P333/+2iJj1tc2iql+25+JuOZUHDBiQblChdKYarxuJRPSVV14xd8qkpZAEen19vQmb0Xa/O1m56667jvzXv/6VrlVzne68cPEg0PXJJ58cnEqgmzAfMGCA/dGf9zJlyhTb56TgKNDT3wJVPRfA7Wm2LOq7xaq6I4Dpaa7ZqodFpD6DdimbZCjQcz2NXPZ3o4iMymWH7IsESIAESIDTOatEAAAgAElEQVQESKB0CVCgt7O3ORToBXOKCkmgNzY2/t51XQvMlrT84Q9/OOiWW25JarXOFVgvAv3xxx8/6JRTTsnqY0Gu5ttePxTo7RH64e9V1T4YXZVmy1NF5ME02xRMdVWttBseGUyot4gsyaBdVxLoXwHoz9RquT4l7I8ESIAESIAESpcABXqOBPrYsWMHVFdXZ/JHboefLgr0tpFToHs7iiXu4n4lgMu9kfi+1gki8p802xRUdVVtAWAu3+mUviIyJ50GXuqWkAW9AcBBIvKBl3WzDgmQAAmQAAmQAAkYAQr03Aj0L6qrqweMHTs25+6e+TimFOgU6GsI8A76umdBVa8H8Ls0n7uhIjIhzTYFVV1VVwLoluakdhKRGWm2abd6iQh0u6NvH26eanfBrEACJEACJEACJEACaxGgQKdAb5NAR0Vx9+Liftlllw0eN27cq/l+cmlB90a4xC3olkYrZZDFNiidLiLjvdHLTa3EvXFXRL7MRY+quiCD3N4W+GxWLsZfu48SEOiNAOyjzTO5ZsP+SIAESIAESIAESp8ABXpuBPqMhIu7uTQWfGlsbDwzFovdLSJOsslSoP+QjKoq76ADJS7QTZybSE+n/EZE7kinQTZ1VfVAAE8k+jAr7cvZ9GdtVXU5gB5p9rN5PiKTF7lAnwvgZyIyNU2WrE4CJEACJEACJEACcQIU6DkQ6CLyxZ/+9Ce6uK/H0nXddtOsFZMF3XTMk08+eeCwYcPeKIb3xxlnnLH1rbfeOkVEuiebL13c1yWjqucBuDnN/b1aRC5Ls01G1VX1lwDMWh9KdGCu1OeKyF8z6jDRKMM76BuKyNJsxm2rbRELdNsXyxRi1wVYSIAESIAESIAESCAjAhToORDolmbtvvvu23PMmDH2x3JBF7/fb/mzT4vFYnelmmixWdD79u1bFo1Gk57nsrIyd+bMmS2p8jZ7cXGfOHHiwRdeeOG7qcYqlAMwbNiwLUaPHm0BqsIU6N52RVXPBJCu2P23iJhwzmtRVbsbf12SD6vjAIwSETfdSahqGQBzy06nWHo/y4Oe83deEQp0y+rwexF5Kx2ArEsCJEACJEACJEACbREoJYFudzG3TLHNFsDtvDzlQbc/ii2Cu/3Rmjyhd+eewfhe2x/w9ge5iJSXikBXVae+vn6+iIRU1da5/h6Iqk6PRCL7AUgqYNoT6MZLVetNlKTK257guv6z9YM5rc1fRKzvXDyP359BVfU5jmPiPGm/WVjQ/wLA0nMlKzNE5EcF/Dy0OW9VPQZAuoG9zEthYL4eb9tHALcB+HU7Y9id52EiUpvOXFR1IwAL02kDYLGIWLuclyIR6E2Jawa3UZjn/AiwQxIgARIgARLo0gRyIQg6HWB1dbV/9OjRTwPomWIy9gfVjelG1fWSB73TAeRhAsVkQU8I9IUismEyFKo6NRwO75mtQM8D6k7tMkOBfpRZDAGY5TVZWSAiPytCgb4TgGlpboqlKOsuIulaodsdJpGj/GEA9uHAS/nU6qaT/kxVDwDwmpfO16rzsYj0T7ONp+pFINAfSFwrKIq0mp6gsxIJkAAJkAAJkEDBECgJgW40VdVy+KZczxVXXBGtrq5OywU0IdDfEpEBBbNrHTCREhToH4bDYbNyZmVB7wD0HTpEJgK9urraGT16tL+diWo+3J/zDUdV7W63BXtMGkAxyRwOEZHJuZxfwrJtVvF0rfOLARwnIm97mY+qngMg5ZWXNvp5UkSO89J/unWKQKDXAOgvIt+kuzbWJwESIAESIAESIIH2CJSMQG9voZn+PiHQ382XtSjTeeW7XY4EurmVm5tz0pKLIHEJC/oiEemVbCDXdT+KRCL2kSWVQL9URK7JN9tC6j8TgV5I88/HXFR1DoAt0uz7GhH5Y5ptklZX1R0APAdgqwz7NI+hX4nIP9trr6q3AhjZXr31fp+3wHgZCvR3AbyTxhq2B2CeIJkWG+sAEYlm2gHbkQAJkAAJkAAJkEBbBCjQ2zkXZ599dmDs2LFv+nw+c4/uMiUYDO4bCARSWeCkvr7e7romvYfsuu5nkUhkl1TQcijQc+HifrEF4UqVfq7UDgAF+g93VFUfs1RZae61WVO3SRWEMJ3+VPVcACac07Xkrz/MnwGMTjUvVZ0CYI905gfglyLy7zTbeKqeoUC/QkSqPQ2w2uMqCMDeb+mue+0h8vaRwus6WI8ESIAESIAESKD0CFCgt7OnXfgO+j4iksoi5UWgfx6JRHbuIIGetQW9oaHhEtd1TaCX3pOeZEUU6G0K9AsA3JTBITCLas5S8KmqWXjNAp40TZ7HOT4C4LS27sir6mYAvvXYz9rVdhARC8yZ89IRAt0mrapmRbd85amCHaZan3njHCoir+QcAjskARIgARIgARLosgS6jhLJcIvNgn7TTTe9ISJ7ZdhFUTarqKgYJCLmNpqseBHoHeni3p4F3csddEuVdG1RbliGk6ZAb1Og21UIS0+XbvmPiJyQbqNU9VV1u0S08JRXRTyM+T6An4rIOtHaE5b62z20X7uKBQDcJM02nqt3lEBPiPTTAdzneXI/rPgdgN1EZHkWfbApCZAACZAACZAACXxPgAK9ncNgFvT77rtvquM4/brSuQkGg/sHAoE3U6zZi0Bv18W9rq7OcjffkIrtZZddNnjcuHGvJquTuINuaZ82SFbHdV37WGDW/KR30Ovr6y8DYC7BXak8UFlZObwrLbi9tSbSmi3NwHJtKe52EZHP2xsjnd+ragSARQ7PNiibWcpNpH+0ZnxVNTfvQenMx6z6InJSmm08V+9IgZ4Q6f8C8AvPE/xhxcdF5OdZtGdTEiABEiABEiABEqBA93oGLIXbqFGjzOV107VSRtkf4iXzccNyeq/l1m150kPhcNhS0qWKUuxFoM93HOdK13VD0obfuKrGHMc5XFVNNCTdEg8C3eZyHQC7V/qDYvnFRWRBZWXlmFR3cevq6g4H8OPEPpfM/qY463a/+b1wOPwPr89DV6mnqn+zIGsZrPcpETk2g3Ypm9gZBvAnu0+e5bunHsBJIvKkqh4CYFIGcz1VRB7MoJ2nJp0g0LsBsI8WfT1NsO1KvxaRv2TRnk1JgARIgARIgARIIE6gK4gQbnV+CLQr0HM1bHsCPVfjsB8SWENAVQ8G8HKGRI4XEQs0l/Oiqib+TRybVT3TYl4klwI4AoCJ9HSKRYffSEQs1VheSkcLdFuEqu6byAXvy3BRjZYOT0SmZdiezUiABEiABEiABEggToACnQchUwIU6JmSY7uCJ5CwWM8FYEHU0i0LEnmyLR95zouq7gTgSQB2P72jS97duTtDoCdEunkoXJEF0E8A7CUizVn0waYkQAIkQAIkQAJdnAAFehc/AFksnwI9C3ipmlYnUmt9nviAtgSQwYkGa8JFbwhoP8CuWqB69b/x/82SOwKqmk1MgtcTEb5bczej//WkquaWbRHe7UpGR5afiMiz+RywEwW6Wc8nW37zLNZ3m4j8Nov2bEoCJEACJEACJNDFCVCgd/EDkMXyKdCzgLd20w/OPjvQ8ul/egcivXtsvmLOVhu6Tf1dOIHW8nBViy8QiblartCACwsV4ET9QFMQbn0w1lDjb25uXoHQ0q97bva+tDQua4g6yw54Y+6KHE2tS3eTEIpzAFRlCMJc0S29WdLAhBn2G29mwREBXJVwV8+mK69tvwCwU65yvScbtLMEeoLp5gA+BtDDK5Q26h0jIs9k0Z5NSYAESIAESIAEujABCvQuvPlZLp0CPU2AZhk/aDCcaO3WlVv1kc03XDJvj2CgfIcGxdaRppXbwV/WE4ht7GttCdqDqSJwkYiet/aTqmZit6hhGrebu+JT1x9c5ou1Lm0U3+JYRfiTioa67xaVd5/6wnaLpm+8YNtl7+09q7W6OnkE+zSX0mWqq+o1WQpgs3IPF5FovqCp6hAA92eRz9vr1DokEFpnCvSESD8ewKNeobRRzzIA7GqBKbPog01JgARIgARIgAS6KAEK9C668TlYNgW6R4j3D+5btnV9zYaDpHH/WLCsP5oaB4uDTXyx1m4+oCymEvBjXf2WzoO5tm+7KybbfTEf3NZmCdQG4a5q8pV9Bp/z7Mu17utuVWjesW8uraNLvLfNU9VeAGZmkHJt7QEsReAvRGSRt1HTr6WquybypW+VfmtPLb5OWM9bPNXOolJnC/SESL8HwFlZLOMlAP+Xb2+DLObHpiRAAiRAAiRAAgVKIB0dUKBL4LQ6iQAFemrwMnnb8k33DWBPt5v8xO9G9xXX7QtVP9QNOIkr4xKP0+gAMfNWtiztUbS2CpqjCl1tIEdUzZJuFvXVl9Ptoqwv0d5vCj8oEMcxB3jAUUBicf29Rri7cFwX0gqff2UTnPc1WP7y+/XyxnzXP+3UTxZZ2i2WFARUdQSAbFNozQdwpog8ly/YqtoTwL8BHJaHMU4UEcsXnvdSIAK9AsAUADtmseBLRGRMFu3ZlARIgARIgARIoAsSoED3sOl33313RTQaTSgoDw0yqBKLxZw+ffrUDx061NRVxqW6utopLy+vDIfDGQcNq6urk6222qqhnbl0mEB/9913j5w+ffqbGUPpsIZL0Dzr22C/j17bbp/mhT/3t7Yc7nejW/vUrZK4vLaob2KXhwG7PhzzQaMOagVoKe8BNxSCVoVR1rM3qnpvBPE5cOHADQTh+gOrBbfrwtfaAp8bjUv7aEMjVs6bg9iKFfC1tECamxBuXomQzwF8UUDMH35tsW4zkVbX8S+Az/9xqxN65NmvV7wwbSGWVYMu8G0dlUREdzt/++TgKJnLuwm373LQ1w+6UFX7fnMDgAty2L8FvDuoo6zBhSDQjZ2q7gbgXQChDFlagMB9ReSDDNuzGQmQAAmQAAmQQBckQIHezqYPGTIkOH78+HdUtU+iqhkzTaxnLIDbGlJE/LFY7Piqqqo3sjmHp512Wv877rjjBVW1Pw7jV5k9ptNbU8/+DQWDwZ8Eg8H3UsylQwS6ri7LEqmLCvK8+uEi1NQAzJ4m+uKjZQ2vP1cZXDo/4Is2y/dfdUyQu4KGBhetLuB2CyMW2QjBPluifKstENhxZ6C8DCgrByorgcqKRAx3WW0ZXzsjogn8NYHboy6wahVQXw+4MWDxEjRN+xiNc+dCl82G09AAp74JVRUO4Le+LNTcasHuigMJBBtaXOcNOP4HXq3Fc0d+XrM8m/NXqm1V9UcA7HmozMEaLQ3X3QBuFBFL5Zbzoqpm8TfLf7alAcBuIjIr2468ti8UgZ4Q6ecDGOd17m3UM267i4hdK2EhARIgARIgARIggXYJFKTgaXfWHVjBBPp999033XGcrfM8rDqOc3B5ebndV824nH766Xvcfvvt5pqZVQkEAvsEg8F3UnTSIQI9q0Xku7EqyqNNkK+noe6159D49osIzJ2BcEsD/Oqu9kk3Ma6CevGjuWIDdN92F/h69oLssBWwwcbAhn2AinIgGEwI8bjlbm053uYq1v3qYsI7LicAE+wtTcDSZcCK+cC8hYh+PRe1X01DdMk8dHOaETQ3ePtykBDqClF1fLWtvtB/m/zlf73/zaXvXAg05htfsfWvqr8AkEs3b/vYZy7vFuDthWxFXOK+vAWMOxdAvxzxtY8Io3LUl6duCkyg25P1XwBHeZp825X+LiKnZdGeTUmABEiABEiABLoQAQr0dja7IwW667qHRCKRNamuMzqGuRLoFRUV5pr5NgV6GwQUCMVa4Fu1CLG3XsTSJx5CaPbnqDRhbnHXLb6660OTOmgIlMPttTE2HLQPsN2PgI23/J+l3OzrCWt4/B+Prg5t7cna7hxiFve41d0FWluBpiZg4QLg29mo/fAdNH3zFUI1yxFGKxy/3Vl3v7eoR8VZoH7/E4v9Pe4d9caCTycAeQ8KltFB76RGqnpTjt3H16zErOr27L+VsNR/DmBeshRtiRRrFhDOLPsDABwJYM+Ed08u6diHmhPynft87QkXkkCPf/ZS7Q3gEwAbZQF2mIg8nEV7NiUBEiABEiABEugiBCjQC0igF5IFPRgM7hsIBCjQ1zsfjrooq18FnfIqljz9MPTDV9GztR6B+L1yu1/uQ0MUaKrqjcgueyCwa39gmx2BDXoCdo/c9PAaNZ73l4y5sq+2rq82sCvQ3AzMnQ2d+gFWfPAOZOFs9PDHAN/q4HJx13cI1Odf3iKBG5eEKu7v+/rShbm+0pH3pedpgMQd7wcADMvTEGt3a9dULLhcLQBzNbcSSeRl3wBAWQfMwYaweZwsIo90xHiFJtATIv3/ADyfxTe0GgD9ReSbjmDIMUiABEiABEiABIqXAAV6O3tXXV0dvOiii6Y5jrNNnrdZc2FBHz58+IA777wz66BEtKD/cLd9bgyhpd9ixb/vQXTio+i2ahECujpYG1wfmlsE8+pj2OKwI+E/5HBgi62AyvDqv+k7TJS3c0rj1nUALS2rreofvIP5Tz+BUP0ydK8Q+Jz/3VGPicTUX/bq4vKeF232yryPKdJXs+1gkZ7n147n7s0d/2wRuddziwwrFqJAT+z7WAAXZbgsa2ZXhg4QkXVzKmbRIZuSAAmQAAmQAAmUHgEK9Hb2NOHi3uUEOi3oax0MVQQ0hsC3M1Hz97HA5CcQjjYjnipNgdaYg3pUIrTdLig/YDCwW3+ge4+ERT2nsQRz9AYya3nCDb6lGZj9NTDlXdS++zqcpd+iMmjfFBJu7xA0+4KfR2O46LupzZP70eV9bZF+p4nWHG1KMXRjh/kiEckmaFq76yxggW5PhnkV7dHuIpJXuFpELsuiPZuSAAmQAAmQAAmUOAEKdG8CvaOCxA0uLy9/LZszRwt6NvR+2Nbc0ctbG+F+8i6Wjr8Rkc/eRFmsJeEy7qC2VaCbbYuqw38K7LoHsEGv1W7suZ1G3nqLB5uzHOoWWG7mDDRNfAZNn7yLiDbDZ+nZ4kLd8qv7alr8Zbe+Oq1u3JE1YKT3xI4kcqTfCsDEW1cpV4hIdb4WW6gC3darqtsDmJpFNH/zRDhERLIKBpov9uyXBEiABEiABEig8wkUi47oNFIjR44MXXvttV+LyCb5nIRF7nZdd9+qqqpU977bnYIHge4p7VpFRYW5YqZK+ZYyins8Enk8UFmHFU/rSjabH8xXNW4hL2upx4pH/gp59C5Eli+I/38WBA4axKLGGHofdSzkkB8DG28K+Hw5Tr7XYezWyE2grgZ4/y0s+c8/Ea5ZhvKgfW2IxkW6KxJtdd3XnFZcEPosHjSLZbVos/zoDwHId6aHQuJtVnSzpufcRaSQBXpCpJ8BIBtX/+8Sqev4oauQTjTnQgIkQAIkQAIFQqBDFVSBrDmtaQwZMsR3//33n6yqlY5j+aniJWfcXNeF9Ssivmg0uoXP5yt37f8E/DaQ4zgx13UlEc3Zff/99y8++OCDk95h9CDQ7UPAJAATAPhsbOt/bSgiEqisrPy3iFhwsGSl3TRrqjo/YWnzrz+Gl01wzLLbRlnDzH6V6Fccx7kOgF34zqY84bru8wG4vlCsSd1v51TOvfeGE3q/99yAiqa6+H5YaV4laO2xJcLDhgF77QVUVOZOmNtHDSeR99x14erqnOXxa+NNzXYe4A8G4vNw1ripr8l2Hz82WRbrM9oKzP8OsRf+i/rn/ouqHnYvPba6Y4WrjvNxk7jnVHwQzwvOslqkVwC4CsB5eYikni/GJhAtCN3OGQ5gItXupefg4P1vBoUu0OOPgeq/AQzNkJs1e1xEfp5FezYlARIgARIgARIoUQI5E5olyqdDl7VixYrJwWBwcLJBVbWmsrJyQxFJmvrKi0BX1evC4fClWS7Oi0D/OBwO989yHC/Npa6ubqGIWDqkjMv06dMvHjhwoAWCwowdENl8g6rfhVrqL/C5scp4p66gNSrAdnsicNxQoN/Oq63mbpZGxDWeBiJobWhETW0N6petwuIFC9HQ1IxW14W6ipULFyFUVobKnt3jGr4iFMIGvTdE9416obKyEmXh1dPMOiCdvRXs48iSpWh99r+IPvsfhMoa4PjWfCwQjQIv1jTphT2nYZr5E2QMvcQaqqqlOrsBwEEFvDTbLxPX9g6wNGr/AXBEhvO1yO4W4d0iveekFIlA7wbAAidumcWizxGRu7Noz6YkQAIkQAIkQAIlSIACvYA2ta6u7kUROSzZlEygz5kzZ8N+/fplK9DHhsPhi7NcersC3XXdaZFIpF+W47Tb3HJC19fXm0DfsN3KKSrM/OKLS/vvscd1b22G8gFbdvuTv7nuXMeNWVqreMC3aGsI0b0PRtnPhgAbb5YTRwpTSrGWVtSsWIFZn07HF2+9h/mzv0N0xSrUzlsAxFysdpeQ1anNExZ1n/0/AkT6bAR/rx7oueEG2H7/vbBj/12wgf1/wWD2fh72FaC2FrHJL0EnPgynbsX3Il2BmDq+qb5I+FKZvMo8MljWIqCqhycs6nsVEBg7bibGrxSRT9fMS1XNJWN8hqnj7F10kIhYhPKclGIQ6PFXgup+AOwuuT2OmRT7ODJQRKZl0phtSIAESIAESIAESpMABXrh7KvU1ta+5DjOIcmmlCuBHovFxlZVVZWaQF8kIr2y2U7n49cufXXoUffsv0W3G8pb6oY5bmx1nmmTIPVBtB5zPJzjfg5f9+7Z24x9DlrqG/HVJ9Pw+ZvvY+Zb76Jx6XJoXT0kYZFv28F/3RWu8S22a/FSWYFgj27ou+ce2Hn/vbHNrjsh3KMbRJzsrOqxKKJT3wP+9Xf45n4D6f69wdwiDcwRn+9MeT/6MtOw/fD0qer+AH4N4HgAoWzOZxZtLY/6PwDcLiKft9WPqp0g2L1yc9H3WuzJOF5EnvHawEu9YhHoCZH+JwBXeFlXkjoWy2EvEWnOog82JQESIAESIAESKCECFOiFs5kU6BnuhVnQGxoa7L58xhb0eLT2aW9f1Xz+z7r5mxt/7WjMH3841EGrrwfkmBPhHHQwnKqq7MS5CKLRViyY/S0+eu1dfPz4M2iYtxg+UViEg2weSJPNJthjEJT17okt99kTex51CLbbtR8CZaEsRXoM0a9nwf37Q/B/8x6ccpvsapf3KGTGVw167E4zMJMive1DrKr28eiXAI5NuL+vDiSQv2KC76WExXyCiNR5GUpVze39Gg91zaX9BBF5ykPdtKoUmUA36/lky2+e1iLXrXybiPw2i/ZsSgIkQAIkQAIkUEIEstEDJYShIJZCgZ7hNuRCoFc01WL5vWOf7/avmw514Abi3uQxoFkqUXbqb4B9DwBCZdndNxdB/aoaTH3pNbz/9EQs/HRa3KTqy8MNbgvpZubNyr6bY+ARB2Pf445E9z4bWVS9DCmv9uhv/WoWYuPvgH/ONPgDq0W6fRBoCpQ/J1UbnFn54rcWdIwlBQFVrUrc+TYXabuzvjuA8iyhmSC3O9GvA7BUjS97FeXrj6uqFqX8nhSu2ybOh4rIE1nOuc3mxSTQbQGqunmCfY8seByTa0+ELObCpiRAAiRAAiRAAp1IgAK9E+GvNzQFeoZ7kbiDnrGLezDaDP+UVzDvmvMbNln+bYWYXVh9qI+F4D9iCELH/Rwot0jtWShp18Wy+Yvw2pPP4a2HJiDYGoU/S4t5e7jiFnVH0OQqfnTEwfjxGcPQu+/mEH+mV2ZNjbjQzz5G80N3wL9oDvyB1Q4FLiTaLIFrHlrQcv2I+Whob278/f8IqKplCLD82n0TQccs8Jh5g1jUP4sOb+Ld3tUmwpsArAJgHiP2MxvAdACWCjIRaj97uqr6UwD/auPDgYVE+IWIPJb9KOyBBEiABEiABEiABEhgfQIU6AV0Jmprayd10B30G6uqqkZlufR2g8Sp6rRwOJz3IHHV1dXOqFGjMhLoPnUR+uoTLBn3B1R9+gZCZjaHD8tWAZFjhyJ47AlAJHO39vjd8Jjii/c+xPP3PYR5Uz9DeTyXepb002zeJILKzTbCT889C7sO3hdiqdoy/eCgLvDOW1h2283YoLwJcJrjIr3V8dfWlFf+7rHXV907AshZVO80l8rqOSKQuD//NIDuiS5NnJ8oIo/maAh2QwIkQAIkQAIkQAIksB4BCvR2jkQieJKl1FkTs2tNWuqcHqba2lrL5f1PVbWovpoYF2v+d+LfhvbSlkWj0Z2bm5u/t26t6WfNZK0f13Xvj0Qi12a5AIuc/qFZ2GyM9eec6HtOZWWlRbPOe6mvr/8iWZA4tcjnqjHHcVa4rvt97DW7d165dK5Td/fVlbGXHw9UxZog8KGmRhE+7Gg4J5wI9OyV3Z3zWAyzpn6CCTfdhVUzv0HIorFnKoyzpGgZ4up8gtOv/AN2GbwfnLJg5iK9tRV46y0suv9O9PbXwrJsuRDEAsHF6lT+JvT2chNxHfwZIktAbP4DAqpqOdJfAGApDIeJyARiIgESIAESIAESIAESyB8BCvR22I4cOTJ07bXXfgVgo/xtg6XMsjRackBFRcUHycY57LDDKp944omlqeYhIlMrKyvtbmvSMm7cuPPPOuusbAW69u/fv9esWbOSujPvs88+27700kufmkDOdxGReOaxZOOo6pRwODxoze8t2fzwvvAfsM3ml29Yt+R34dYmv6OCplYfmvvuhm5n/xrYYisgZhb1TB8TwTdTPsFtoy5DqK4RIcPQASxSsXZ9PqwK+nD6ny5B/0MPAHyZrs2iw0WBlyZi/r3jsEk3n7kKxEV6k/g/W7zRpodv9exsc8FmKXICqmou97vlIyBckaPh9EmABEiABEiABEgg5wSy+Os853MpyA4TAn26iGyV5wmaZfuQSCTySrJx9t5776pJkyYtFpGk6ZoSQnRgqrm2tLRc0NraelM26zET/zbbbBNZtGhRfQpRvGNDQ4Pdj+30oqofhcPhAYlA5zYfqTu47JBgTes//RrrvToonA814U3Q7f9dBOz4oyyE+eok5cvnLcKjt9yNbya9jqAlJGFxv/UAACAASURBVEuDQlzLx9Ovx2/Er2OKtn7iP4k+0+nXptAkQI9+O+CUS8/HJjtum8as1qtqedJXrEDz+Lvhfvgqyv1RqCii4kSbQ+Grnnur5tqhq2PVsZAACZAACZAACZAACZAACXggkO7f9h66LK0qQ4YMCd53333THcfZOs8ro0DPI+D1BfrU3cMb7hKI3edEm37iQAWug+Vajp5DzwAO/zHgs7hdGRZHULt4GR6/6z58+uwklLdG4ynUvBQT5C3QuIiOBfzo+6Md0GuzTRDp2SNhyBc0rKrB0nkLsPCbOWhctgJBtShiErfOe3mgbSqNjmDzQXvgxIt+g15bbZ6dZf/rmVjxl7GILJ0DvxODK0DUF/zOlcjw8veWWX50FhIgARIgARIgARIgARIgAQ8EvPw976Gb0q1Cgd723ha7Bb1+77IzgtGWm33qRkQd1LcG4N/rIIROORPo1jMrweq2tOLtZ17AU7feg2BtI7zETI8HWbM0ZpFKbLT91thj/32wxY7boUef3ijvFkFZpQXzXv24tjQ1oWFVLWqWLMO3X36Fzz6YgtlTP4WzsgZB15tDvgWva3AEe//iOBz769MRqMgiy5dFvHt5IpY+eDd6WQB3Xyyeeq3FF/rnfbWB3/5mRu2y0n1DcGUkQAIkQAIkQAIkQAIkkDsCFOjtsKRALz2B/tQO2OrwsO9vQY0dYhHj3FYfVkQ2wQYjfgvsunt2uc4h+Pbjz3DPZVchtnBpXDCnKnHXerNoC9C7fz/sffQR2Gmv3dFjw15wAoGE2k6Y39dY4cVCw69u6La2om5lDWZ++Cneevo5fPf+xyhrjXkKRBe3dPeswi9/fwF2PWhfwPd9/Lz03jA2l5oaNI+/F81vTkRVWKESQ9TxL5uKynMGfbDqPwwYlx5S1iYBEiABEiABEiABEuiaBCjQKdAzOvnFakGvBnD+oNCIcGvr9U7ceu7HinoHVT8ZCt8vToQGAhZnPSMmdu+8ubYOj9/8F3z0xPMo8+DWbvq9NeTHdgcMwtEjTkfvrbYA7G53PBe7h2nEp2ru7cDKRUvw4gMPY+pTLyLQ0Ph92oFUvdiHgW0H74NfXjwSkY03Atx2vigk68ys6B9MxaI7b8JG7grA32pWdLfZF5w03Y0MHzhl6QIPq2EVEiABEiABEiABEiABEujSBDJUIl2HWSla0Juami6IxWJdLkjc2HB4wE93D2+ws7/5SV8sOsjunmtzAIsqN0WfCy8Gtt/emyhOcfy/fHcq/nXVjYjNX9yuzI/fNy8LYvejD8fhpwxFj003zvjBiuf+szRqS5fjjf/8F6//41H46hraFelmRW8oD+Hkyy9G/8MOhDoZfp6wN0lDA/DkBKx85hF0L7OAcS5UfA1uIDDm6nea/lwNZKj+M8bChiRAAiRAAiRAAiRAAiRQVAQo0NvZrmIT6ADeq6ys3DvVskygR6PRmyx3eSandU3atGKL4m4CfdSA0PkhtP7Zp26FqGBxQwC9f3kmcORRQKgsc4HuCJpq6vDkHffhg0efRqWbGm38DrgI9hryUxx+yhB036RPVvfev99HR9CwbCVef/QpTH5wAoINTXDaSe3W5Ag223dPnPLHC9GtT6/MXfwdB5g9E/NuvAab1C6A+FbnRo/6Q5+95XQ/5uB3Fs7O5LyxDQmQAAmQAAmQAAmQAAl0FQIU6CUm0FV1OYBnYDeKHcdxV7ssr7PPIjJzzpw5n/ft2zfT/Xct1dtRRx318CuvvBJNhlBVCyfNmut+9PXwQ47fbu5HzwTd1p3id89jPqzash96jLgA2HizzMW5AXAcLPziK/z9yhuwavqseFq1VKVZgJ1/fBiOPOc0bLBpjsT5mgFFUL9iJSY+OAFvP/AIyi26e4rp2AlxNu2NX152EXbcZ89E7vf0X4FxK34sCkx8Gism3I8eTlMi7Zq/YWWk27m9X1n2d95FT58rW5AACZAACZAACZAACXQdApkKtC5DqAgt6O3ujaqOCYfDl7RbsZ0KqiqprPCFJNAD0ZaPZp584F+2nz/tZp/GysQV1AbCiJxwGnDo0VBx2nVJT/ohwn7hKqY8/zIeuuJ6dIutzlGerMQEKNtyU/zi8lHYdo9dAXWz+zjQ1kCOYNE33+LhP12PJZ/NQCDFXppAr/ULDj/rVPz49GGAb02m9QxOiDVdMA/Lb70W3RfMhON341b0Jl/w+U+dyl8Mend5TQa9sgkJkAAJkAAJkAAJkAAJdAkCFOjtbHMpCvRYLHZjVVXVqHyf8EIS6BUrF34ybdhBX+1QO+9nPlXEWh3U9O2HHr+5GOi9cVYC2QRutLkVLz34CF7+2wOobDVJ2nYx2d4gwDGXnof9jzsKjt+X1dhJ99DyqLdG8fYTz+Hpm+5CqLk15X10m9P2hx+E4ZePQqAyC1d/uwjfWI/Ghx9A68tPoqrMhcKF6yubHysvPzL02opP833u2D8JkAAJkAAJkAAJkAAJFCsBCvSuKdDHVlVVXZzvQ1swAl0VFTPenv7deb/osUnj8j6O+rCiwUGP408Bjvk5NBjK2HoeZyiCpd8twN2XVKNuxlcIavJc5FEB3Eglfn3POGy+/da5uXeebCMdwbK5C/Dwtbdg3rsfIJTCzb1FgMrttsKwP16IrXbZKct5KfDxR6i5705UrfoWGoghKk6rlkX+9FZg97EHp7gWke8zyf5JgARIgARIgARIgARIoJAJUKAXn0BfJCJl2RwqVR0bDoe7jED3RVsR+s8dc1f85epNu0cbfBL1Y0VFH/Q48zfA7nusf0U/fbSOgznTZ+Kvoy6HM39JUku16eMmBxhw/DE49rdnIVRRnv5Y6bSwjwGtUTz/wARMuut+hF1Nadlv6RbB0D9cgN0PPzA7gW5vlZUr0PrgA2h8+RlUbQBLuYYWX9nULyo3OnT3V2avTGcZrEsCJEACJEACJEACJEACXYUABXoBCXTHcQ4uLy9/NdmU9t5776pJkyZRoKf5dIZWLUXNFSNWlU15qarcjUpzDeAOOAjlZ54D7dkrO+u5zcXnwydvvod/VF+P4NIV8CWxVMfd2wM+nDD6Yux5xMFwLOp5vosIPn9nCh4dcxta53wHf6q5hQL48bln4uATf5bIxZ7F5Nwo8NLzWP7g3egZaomnXIv6AitqIhsc2evlhe8zWFwWbNmUBEiABEiABEiABEigZAlQoBeQQHdd95BIJPJKKoH+8ssvzwMQzuZEquoN4XD4d9n04aVtQbi4m3v7tzOw6MJftPZa9HXAB8WSpcCGp50LHHUUEAx5WUrqOo6Dlx96FM/fdT/KLK1Zktrm3h7YaEMMHzMafXfeMTsrtcdZW17zxXPm4eGrx2HJBx8hkEKgNwowaMhPcex5Z8NXbvfQM8rCt3pmPgf4eCoW33UzejcuhfqaEXX8TTX+sktuf6fuduZE97iBrEYCJEACJEACJEACJNClCFCgF5BA92hBXygiWflGdyWBbmm/Qq88icXXn6+9G5eL4/qw2K1E73MvBvYclH6ANkfid87XKeJg4l/G46W/PYTyVnPmbrs0A+i9x844+fKLsOHWW2YngL28pkxfO4KahYvxyDU346tX30GyzxFW1QT6nj//CY4fdS6civUEulVYnbLPWzFOi5dg2e23YoOvPwZCDYipoy3lVQ89s3LlmUOnocVbR6xFAiRAAiRAAiRAAiRAAl2HAAV6DgS6qjaIyEeu60qmbsuq6hORcysrKz9INqVdd9218s0335zoOKZ+Mis2RxGZHAwGn8zi8rVGo1H/M888887QoUNjyWaSCwu6qkJVPwNg6bm+X7fjOPG022uNPRD4YTaxQEsjZPwY1D98O7pFG4Dmcqzccmd0P+dcYPPN4unRvBZ1XSxduAg1y1fA5/i+bxZwfHjj30/gw2deQMhNHiDOBPCm+++Fw088HuURc4IwwZvxVnqYtkJE0LiqHq8/NAFfv/1BSoHe7ADbHrAPDjllKHxlAeMen5/ruqiIVKLXJhvDH0iVsG2tKdmympvRMuEhxJ5/BGaQt9U2B8qmfFHe+4TdX5k928MCWIUESIAESIAESIAESIAEuhSBfKqDkgDpJc2aqn4eDod3LpYFP/fccxcceOCBN2UzX1XVbbbZJrJo0aL6fAp06/uyyy47cNy4ca+nmm9dXZ3dze+9fp1Q7QrUXv0bBN9+DhVuS9xM3Lj/kSg/+VdAVTfvAt0RrFq8FBNuvxfffvARQn7/90OZCI6uqkO0pjZl/nMVwBeJINi9CqoCRdJvG9lszbptFfAF/GhdVYOWFasQ/6yRpJiA9lWWI9ijOyw5mtjHAwFao1H02HhjHH/pSGy67dZpWNIV+HAKFt9+I3pjBdSJwRXf4q+qNh22w+S5k3K3SPZEAiRAAiRAAiRAAiRAAqVBgAK9nX30KNCnjR07dpfq6uo0fIA77wC1tLRc0NraWkwCffC4ceOSBs9TVae+vt5c/zdcn2r5l1OxsvpMRL77En51sLIxhMphZyJw2BHQUBDi1YAugiWz5+LB6jFY+umMeLC19R8eLw+T1+HycToymZ/N1z4jhHr1xEljLsc2u++SxkcNAF99hUW3XI+NVs2F648h6i9rndWz79n9np8xPh9rZJ8kQAIkQAIkQAIkQAIkUMwEvPzNXszry3ruFOhtI+xgC3q7Ar2hoWEhgB8K9M/eQc2fz0F4/iz41Ielbnf0Ou8SoH//uAt33ErspYhg0Zy5eLj6Biz9ZHrSaOheuiq2OjEBgr17Ydi1JtB3TsOCDqB2FVr+/Q9EX3wC5VWKmDholMC4mz5o/l01EC02FpwvCZAACZAACZAACZAACeSTgEd1ks8pFHbfFOjFLdAx6T9oHHcJeqxaCAsQt9C3IfqYQN9lZ9id8vQF+o1Y+snnFOheHlsLptfSBDz1JFb846/ovoHF5BO0Bssfv+6dhpOrgQYv3bAOCZAACZAACZAACZAACXQVAhTo7ew0BXrxCnRHXch916DxwZvRLdYIcQNY0GMbbDxyFNDXoqin8Zibi/ucb/GP6rEU6F6judvbJRpF9MWJWP63W9C7uwtXgOZg+JMx79QdWg0sTWMHWJUESIAESIAESIAESIAESp4ABToFekaHvBhc3KWlCc4tFyP6zIOodFvhNgO1/Q9Et7N+uzpAHAW6p703P/SyjTbEsOv+iK372x10j6EW7O1iUfKnvIf5N16BTSqjUFELFFe7MhA8vNc7je8hvV3wNF9WIgESIAESIAESIAESIIFiJUCB7kGgjx8/fhqAbZJVVdWiChLX1NR0QSwWK7UgcRbFvdfaeyQtjQjc/Du0/PdBVLitaG4E3ME/QfnJZwNlFek9s51oQW/rO0JHPrjrCnS7g57Olw0Ac2di5Y1XonvNItjdAIU0xOA70j81+oZQoKd3DlmbBEiABEiABEiABEigpAl05N/5RQly5MiRoWuvvfZrEdkkxQJm3XDDDTsUSxT35ubm30ej0Wuz2RAvFvTTTjttuzvuuOPLbMaxtpdeeukBt9566xup+mkrzZo01UFuvBDuxAlxgV5fD+gRxyP8y1OBUHl60+oEgR6XwXaN2yKpB/xQx4lbr/3RGAKu3ebObxb1NYCyE+gKzPsaK8ddhe7L5kH9CtfxNfm69z7uipcWvFi9Oj06CwmQAAmQAAmQAAmQAAmQQAf9fV/UoKurq50LL7xwkIiEEgsx3bTOhw3XdRu7dev2TrEstKGhYXPXdbdX1bTFUSwWE5/PF8++JSKXGwvHceCu5/bsOI6o6vLm5uZbA4HA/5KG/w+SRKPRqN/vH+Y4zohk7OKR1kU+UNVVCXfo+Hg2dxFxrJ3r2s1m7C8iwbX70fpVcK//LXyvPhUX6MtXCkIn/gqVxxwHBNap2v7WdbBAXw0YaAz60HeP3bD1rjujPBxGc0MD5n4xE99M+Ri+2nr4E0K9/QVkXsMEemgji+J+WSLNWhrHxnbmu68SAn1+XKDHfIGW1t6bnjz8v988NmF1FjcWEuiSBFQ1AGArABsB6J3IRGHuPfbfG/uxV4EFU7SfRgD1AObbUwVgnojY9zsWEiCBJARUtRuAzQH0AGDPln2dX+NCZ89TXeK5sn+XA1gg4jkBK7kXGQFVtXetecTae9cy/5jnZWXifWt/U9o5qLEcNImfJQCmAzBDHTPPFNl+F/N0aUEv5t3r3LlLfX19rapWJv5j9oOz5LrujEgkslOqadbV1V0sImPaEejtrjQh5NeppzUrEL32Nwi+9SzK3VYsWiqI/Oo3qDjyKMDf1jeDFMN0oEC3v8hbBQht1gc/PuNk/GjfvVDRvRssKLoq0FRXj6+mfoJn/joeNTNnI9BGTvZ2gaVR4X8CPYM0a3Yqvv0KK2+++nsLetQXjNb32uRXLz73zT+GloBAV9XhAG5MA+lQEXk5jfppVbVnEsCctBoBrQCOEJFP0myXt+qq+ksAt6cxwOki8nQa9Tu0qqpGAAxK/OwFwN6NfQH4MpyIvSoWA5gF4GMAHwL4CMBnItKUYZ9pN1PVlwD0T7uhtwa2xjU/9mXQzql9qLA/nk1MWaBJ+2AxF4BdRftERIxJp5YMn8FOnfNagx/6/9m7DjCpimz9n07TPTMNgzAoiIkgKosJDBiemFfX1dVVDOsqilnRNYvKMhhxZUVRdDFhdgXDGlfFgIo5rQkjihKULDCxp/ue952ZOzjMTE/fe/vejue8rz/cN1V1q/6qW7f+OomIZD3llTCzEPChAHYw/x0AYGMAXWwORNbX9wDmmr8vAMwmoq9ttrPueYT5AAD3p9NGntU9hIjezGafmTkMYBcAewOQPXc7AN0d9kkuQ781yfprAP5LRLJGcl6ytB/Jfi3Hx5b9WvZl2atbMPwkX/DL1gQrQc8W8vn/3CaCLjfRJjlut5aY+fPy8vLBnQ21rq7uEsMw0jK3T9Y+r16B2FVnIPzuC00E/ZelhIpT/4bwfvsC/hwm6EQwNuiOIy8Yja123RG+kuC6ft/C1A0Dcz/4BA9dOwkNPy3yNO1bs4l7DxwzYSz6bmszD7pMzsJ1NeiNvlC8tkefk2Y+P/eBAiHopwG4zcYrfQARPW+jvK2izFxuEhhb9cyDx1Aiyon0d8w8EsA0G4M4gogetVHe86LMvAGAEQD+CGAPAKIx91rklX0XwMsAhDy/Q0RCbD0RZv4AwBBPGnfWqJCr1wHMBPAiEWU8W0Qa76CzEbtbawexWnO3SfdbY2Y5cwjpOth8vzo9a7jQA9GkCuEUd7vniUiIu2Vh5j8BeMJyhfwvuCcRzcr0MJhZLI8E6yMAyKWIzYBDtnosZPO/AKZn+zKis17n8H4k79Qb5nvxNBGJpayKiYASdF0KThFoIeiiretQDMOYE41GB3X2AK8JeuPVZ6LknedNgg50PeVviOy3X05r0OsIOODc0zD8SDHFDzSrzduKaNMbE5j5wHS8dOeDCNc1oMne3wNp0aD/ZcLlJkG3EySutQ96s4m7EnTkKkGX1XMHEZ3iwTKy3WQ+E3Rm3hfA6SZxsHkbaBuqVBXEZFMOys8AuNttsp6DBL01HrJ9ibWKaC7/nSkT1Rw+EKdaK/L3nCbozCymyeIWJ5ZLcgGWLRGCPh3AI1a060rQvZ0mZhY3hnMAyMWuUy15Op0UC6abATycSQsmKx3Ok/1I3E3uFGtEIppvZVyFXkYJeqHPsHfjs0LQv4xGo1tli6Bjza9NJu7BN59tIuhLVxDKjj8dpQf+AQjYVGRlyMRd/M79fXph5JVjsOngTr0DAJ8PS7//CXdWTUDNZ98gYCtvnPWFkZ4GXQj6D/h10pWoWN7igx5qbKjccORzz33/iGrQrc+D1ZIufIwPJ6LHrD7Pq3L5SNCZeT8A400zdq+gcdqu+FAmzUbitNEcJ+ithzUPwGVE9JDTsVqt58I7aPVRXpTLSYJuXnqdB0DeMa/uo53iKS4BdwG4L5kWUAm6U2g7r2f6lF8F4DgANoMLedKn5QAkS5IQzQZPnmCz0Tzbj8SC7wrB0O3LZJuwZb24EvSsT0HedsAKQc+qBp1q1wATzwW//FhTkLjVqwHfn45F+Z+PBEItMf8s4p8hgh7z+bD+rkMxcuz56Nqje8fa89ZdTjBuHjMei195C4GONO0Wh9dZsbR80OXSoImgt0RxN8C+QAP36DXiqufnP1MIUdyZuVBM3FuWwUrxKSYi8evNmuQTQWfmPqb2REwrc1WuJqLL3e5cHhH0lqE/J1o2IhLzSk8kzw7EbTHIKYLOzMMAXANguCeT5W6jSS83laC7CzQzyyWNWCldDUACAeaaSGyQvxHRs9nuWJ7uR+JmcygRSUDUohQl6EU57a4MOucJuq++Dr5J5yP+/MPNedBrGYm9DkbpsaOAEptuSRkk6BvsvgOOv/x8dO2+XkqCbsTimHLplVg86+3cJegLvsfqG69Cl+ULm/KgG6BaX7TrQeNf+/U1JeiuvIvrNOLSx1j8LIcTUdai7OcLQWfmowFMBSBB4HJZBhGRBFJzVfKQoMv4xYTyMK98rV16B12dJxuN5QRBZ2aJsD3F9CW20f2sFZWLzV7JtKZK0N2bF2aWmBey5+ZS7ItkAxSCfhIR/eIeAvZayuP9SDD7o1f7tD0UM19aCXrmMS+UJ66N4t7JgL4oLy//XWcDrq6uHmPejruOi6+xAaEbz0fDsw+g1IgjXgc07rY/IiNPByJlzbGBrUqGCHqcCKEBm+CkKy9D7wGbdU7Q/X4s+XYe7hh3LermfAuvHF3T1qB//TmW/OPv6IlqyJ03A3UGsH/gI8wWV3qrU5Cr5QpQg94C9RVENC5buOc6QWdmib4+GcAZ2cLIxnP/R0QSwdh1yVOCLjhIkNPfE9FbboOSxwdigSLrBJ2ZJcDXrWYKLLenx6v2/kVEotHtUJSguwM7M4sp++1mWjR3GvW+FYleLheCErwz45Ln+5FYOu1ERD9kHLgsP1AJeooJkEihtbW12yYSiRaVa94TilRrjogC9fX1H1dWVsoBJpnQmjVr3miVk7xpLbXkJzcMw+/3+78vLS09trPnVVdX/xXAWQBc99XxJRJUcu1pfRtemtE7bMRBjX78svFgbHDWBcD6G6TUTq/T7wwRdFlc9T7CfmedhL2OOQzUYQp5s2fxBF5/4jk8ffPtKK2ph1cvs2OCLh1KJGDMno3Fk69Fr4oEJGN9jAKLGsrKdqt4fVVBbLgFTNBFe74XEUlE7IxLLhN0M1LwIwAOyTgwzh54ERFd76xq57XymKDLwOQbJ5kLvnETmzw/EGeNoDOz3DOL1jwnAlXaXBO7ENHbyeooQbeJZpvipkn7BAAXptdS1mrLGfdMIpJYBRmVPN+PBCvJQz+EiCRlW9GIV2f6ggHwiCOOCE2bNu0DIvqdpBMTISIhogUzxpYxyb8t+cRDodDuwWAwVQ7LlOvHbC8VWCnbcQr2x8M2OGOr2LJJQY4HyQhgUXQT9B59AdB/QE4SdBmnAcKaaAkuvG0Sem/ZP8nQCfP+9znuuOxK+H5ZAb+HiujforjbTLMms9oYQ+Ozz2D1ff9C926AQYS6kuisK99e9afrgIJIqVHABF3WnpgCiz+65JzOqOQqQTc1508C+ENGAXH+MNl/N/bKly/PCbqg+r7kSnYzwnueH4izQtCZuQKApEmUnNX5Jt8RkeRdTypK0J1PKTNL8DdZG5KuMt9lPBFVZXIQeb4ftUB1LRFdmkncsv0sz4hRtgfm1vNNgj6biHZwq818aCcUCu0SDAaT3gbnwxikj18e0H+/zZbOfyBkNFQSB7CEuqPn3y4BBg8GG0KFLb4CGdKgt+AaI0LXnbbB8WPOwwabbAhOJNbp6/KFv+ChCTdhyVsfQOxsvRTHadYkX3tDLfDE4/j1kXtQITHv5AKC/NMnf5gYeR5QELehBU7QZWk9QUSHebnGOmo7hwm6aPjyway9BdbXiMizAFsFQNAFp5OJSFL8uCJ5fiDOOEE3/c0lFWCnWV9cmRxvGhlHRBJ5OqkoQXcGvJnv/mEARzprISdrSfC4mzLVszzfj1pgkujumxHRkkzhlu3nWGQn2e5m9p5vEvR3vPLfy97IOn9yaWlpp+Zaudrvtv2at3uv7TeuWfwEYGwsBH1prByVZ14A7LgjmCzTczGbwNIf5+PBqolY9ukXEuvMUxFf9Ma+G+HkK8eg/1YDwYn4bwSdge/e/RA3n30JKhKwesXguL/OTdwJWLoEq+6ZitKPX0OgFEiQHw3+0D+ee6/u0kJIsSagFgFBl2GeQUS3OV5EDirmIkH3+JAtB4/FACQfrPwaAYhrVZn5k5zPomW0K6cQ0R12K1ktb5Ogy3Yy12Lbcvcov7A5/nIP02tJxOWBRGRY7FunxRwciCVX/UI3nu1CG38mIsnxnRExNeeviqWOBw+U9Sbmsd8DEJcqecda3i/RykpgR/lJFPC+AMRkTfKs20nXJaeBfql8ZJlZLAPkcs8rkTHYyQsv603WnVdyHBG9l27jzDxJoqGn206r+j8D+AiA5C3/FMAyNFvz/QpA8u8KjrLPbmiuSVmX8uviYh9kzUgmiftcbDNpUw72I7GYs+uCKHwy0up7tZ4YHLs8vrFEJCn1ikLcBq/gQDMJ+ttEtH3BDa6TARUKQV8wfMM+lWsWPxPg+DY+EGprAd9BxyD8pyOA0nLrZu4ZJuii22/svzFGXTUG/bfYvA1BZ3z3zoe45Zwx6JrrBP2br/DLP6/BBrHFYH8CcX+4Zu56Gx2/5QvfZj3Ptlvvc5EQdLF22JGIPncLt1Tt5BpBZ2Y5yH8LYP1Ufbfwd8nJLRpDISaSQ3kuEaU8LJsHrY0BbAJg61YHSDGv7ciYJiaHdiKSCNOeiE2CvpCIJCWdbTH9k4WA9ALQW8z2zfHvBGCQ7QbbV9ibiF5xoR25tJPLhM5iuLR9zJNElMsp+tyApV0bzCyXL4K5pFJzS2SPEnPoubpaQgAAIABJREFU1wC8R0SiebMspgvLpgB2FtcH8zc4yfsl7b5BRP9n+QEeFXSwX0oKq/941B1XmmXmCwC4ETtDUobOAPAIEYlLiy1hZiHu+5oZBSTuSDdbDXRcWC6P9iEiWaeeioP96EEi6jR+VKoOM7OQdfkubW6mSBSXMHmv0pFviUjaKwpRgp5impWg5/d7MBkoOWGX6M3h+uqTAmBCXQB1O+2NyPEnARXiFG1RFZ5zBP0j3HLOJblN0BONwCsvYcX9U7FeqA5MhlgtLPquvMdRA19b+kZ+r6zfel8kBF0GLAdfMX+tz8TcOThwHkFEcjD3RJhZcohfmUbjoqURU827nRwSO3suM4uWfVfzILSHzJOpDXqKiDwNZJcpgp5i/APFTB3AqQCEHDuRTqNw22nQwYG4WAm6WHacZAfbJGXl3ZLgW7cT0dcutLdOE+blnBC0g8zYEz1bFXDVPcJp3x3slzlN0JlZlGIS9TydBDWyFsT14N8uWscI8RQXp4sAtF4HTqZOLg4GE9FqJ5Wt1nGwH6VN0DvqGzPLRZz43+9nte8dlNuKiMQqpuBFCXqKKVaCnt/vQBUQuGio76wg80Q/s58aA1i5fj90O/ksYMAW1pN8FTlBD6/fA8dMsBEkTnaWuhrUP3AHgq8/C3+JDxISvL4k8src6AZHb/Pi3ILxIyoigi6bwW1ElBH/awcHTs8IuqlBkVQ5PRzsiHKh8Q8A//T6INbSN5Ow7ykm825fBrQdfy4Q9FbjlgPzjQAkN71d+YmIxDIhbXFwIC46gm6my7o3TbDFLPkac19KaYGS5rOaqpvRxHcEcKiZxUFSQGU94KmD/TJnCboZFO5DAJ2m6e1kPsVE+3wA9xORHD1cF2YW96OzAfzdNO12+gzpo6SO80wc7EeeEPRW+7RYC93v8DJ1FBHd7RlYOdSwEnQl6B0iUCgm7uID8+Pwyl171qx6MZSIRXzsw+K6INYffTEwbHcl6BY2I7HDCq9fiWMmXIa+2/7OmtWBD8CC+fh16hRUzPsUCDWK/UIijuDUaz5sPKcKkGYLQoqMoMucZeRg5+DA6SVBPwDAcw4WrGhwBK+CvfHPJYLe6gAoh/OJDuarBxEtd1BvnSoODsRFRdCZWdwT5pj+qk7h/heAy7KRYcJph72s52C/zMg+7mTMzCyXLmOc1DXdhsT/fYHD+raqMbMENnwAwHa2Kq5b+HAi8sztz8F+5ClBl6Ezs+A124yzYge6qUR0mp0K+VpWCboLBF1yf5uBR8ReOtcxZSKSACji+5VUUhF0iay58847RwOBjsOlxeNxqqurS3zyySe1RGTRjtz5azRw4MBojx4dKLeWLcPtuw1cv/fXr78YrVu1mZ8ZK1cSuh15IvDHg4FwS3r7FM/OggY9PmATjLriEvTbsiMf9MyauDcTdNGgDwIMC3GUfAS8OxtL/zUJlRDH/0Y0UqC2pqTLWTe9teLeKskmVyBSAAT9MwBbmCbRVmZFtBPbeH0AcnDg9JKgTwYw2go4rcr8CEC0axL4rWAlFwm6eQB0Yj69LxG9lO5kOTgQFxtBlzSFBzvE+RcAJxDR8w7rF2Q1B/tlThJ0ZhZ/fwng5iRBzdWi0XbLnN3qQjE1/mIldY7VOm3KyWXCAK/cxxzsR54TdHOPFqJtN/js+0QkFiwFL7lOJrM+AVZM3A3DmLtq1arD6+rqJCBPTmNqGEaia9euh5eXl18p+dyTSSqCLuOsrq7+yDT9FAIuxJ9a5YqXxueVl5eLz5anIiZnNTU1byW7jS+rXu7juyb0rnlyWkV5vB6xaiAxeCdERp0OrC+xhixMWZET9BIxcb92LPptJxp0C9y6rhaJxx7Fqv88iPUqGAYxYr7g4nnlG+685ax5EiCrYKQACPqDZqAyOWBYldcB7OnlQcjBgdNLgv6mGSzKKj5S7g9E5ETrbucZWS+bwwRdzN0lUrUdH1aJrJyu2bUGietkVTKz5LJ+yuHClejyBxKR+O6qtELAwX6ZqwT9GdPP3+78CjFPJ0aI3ee1K8/M4l89zmFDlxDRdQ7rdlothwm6HL4lWrwd16J5RCSZFgpeLDCTvMHAylhsa3KtEHRm/qaqqmr7iRMnSvqOnJe6urqTE4mEBMQRQ+QOxQpBr6mpkSi1ooLuEHvDML6IRqNOfYgs4ygEvba2Vm7VKzuq5DfiKHnlMSy9/kL0qF0OMgJYweVYb+QZwP9JemALS0cJunWCLhc/839C7bTbEZjzLkLljAR8RiIUefinbr1GDfjvdw2WJzcPChYIQf8rgBfMSLVWUU+Z+9dqQx2Vc3Dg9JKgixbcTkAg8f22k/IoHaiyWjdXCbqAwswSIVx88a3KOUQk1hJpiYMDcVFo0M2c1mKx4yTqvkTfFguHrPt7p7U4PKrsYL/MOYLOzKIZlcBwdiXr5Lylw8x8CYBr7Q4AwFLJTOGFFt3BfpQRDbq5RwtWgplV+ZWI3Iiib/V5WStngZlkrW+WHzx9+nT/EUccIdqfznLESk7Zh4hIND+WxSpBnzhx4pCqqqqMBCmx3PkkBWOx2EmxWEyinSadfxsEXaIHdyiGYcyJRqNOPsS2hpiKoIMZpQu/wcq/n4Ly7z5CkIGaWoB32Q/lx58CRLukTreWBYIuadZOumoM+rVOsyYzJnnQ35Y0azkaxV08Pt6ZjeV33ozuxhpwIIE4Ag0N/rLjyt9fNYOse/7bWgfZKlwIBF1SqjCzEErJC9vhRVcH+ErwnT2ISLTLrouDA6eXBF0ulezkRpbUnJKiqeAlxwm6pGiSVE1WxZU8uw4OxMVC0CU41BNWJ6NVOYnhsLsb8QEcPDsvqjjYL3ORoP8bwJE2AX+YiI6xWcfT4szsxCVK+nQaEU11u3MO9qNMEvQjAEy3MWZRtAa8tN6z0RdPixYEQa+qqgqNGzdO8tNK4JFkIrkw/0ZE4pdmWSwS9K+rqqqG5IsGvegIujjc165C9U2XgV78N6LxeiBOWNZtI/QYfRHQd/PUlDELBF180E++8lJstmV/ICFc6LfXdd67H+PGsy7MvTRr0sWaatTfdzv4rZmIlBiQ/4v7Sr4MUdn+9P6K+ZZfvjwpWCgEXeBmZslVKiaGVkVMTcUfXaIpuyoODpyeEHRT67fuC5h6pJLXvH/qYvlfIscJ+oVmBH2rQLtiZurgQFwsBF20o3b9R0VjPoSI5lqdxGIs52C/zCmCzsy9AMj3xI5LivhuS9otsebMGTFdP8XtcqjNTn1IRHbrpHyEg/0okwRdLrLtXPKLj6UQdNsW0SmByrEChUTQJVrupp3gKy/wuUQkuTItixL0pFCRaeKe+xp0iTbCBkreeR6LJ5yHyhUL4GOgnkPA7gcifNQJQCTSOUnPOEEHjA16YJ+/HIENNu6DeDzeTM+J4CPCqp8W4bHJ/0JZwvs9SsKtW/ZBF6eJzz/B4lv+gfXrlwF+oefEDaGyKT+s3vj8QXPmSJyGgpJCIugyMQ5u/x8lIrkFd1UcHDg9IegmJpKnNmpzgNsR0f9s1sm74jlO0C8FIIGjrIqauFtFymY5Zt7WDP5lsyYOIyInWne7z8nr8g72y1wj6E4yL3i256e7GMz1Lm4Zdi4c5LGSF/3zdJ/fun6OE/SdAbxtY7xq4m4DrKwXNTXoStAtzkQxatAFmtLaX7H0mnMQefNplMcbAMOHZeGe6HHq+cDW23Tui55hgi79bQz4QKURwO8X0rSWoMvf/AbDWFPd9K/XYpmgS+T26mrwYw+h/tWnEPE1gIlh+ALLwaXHBz5c/azXfc1G+wVI0EsAvAdgaxt4nmLXOilV2w4OnJ4d1pj5E5t4yPBEWyguAAUVc6HtvOU4Qb/JzFWcarm1/P0oInrEauFk5RwciAteg87MkvZOSJgdmU5Edk2e7bRfMGUd7Je5RtA/EEsJGxPyMRFtb6N8xosys+TrPsHmg133p3ewH2VSg/5nAI/awEiDxNkAK+tFlaDbm4JiJeh+TqDk09lYctXZWG/xXAQMxq9rgIp9DgWOPAbo2i25L3oWCLrMalN4/A6mV7TpmTJ/sUzQpZ8fvIefb5uIXlgD+OKiPTca/aFnXvup4Zj9FyMvgijae5uaNM52U4Uc4GWKIDc+xmZuVzkwRSziIS5EQ93M9+3gwOklQb8HwPEWsWhdTFJ2Sb9cdwFw0BdPquQ4QRfNjGhorMpubsRUcPAOFjRBlzgxpvnyhlYnwkxdK6mnfrZRp2iLOtgvc4agm/FPFtk81hxNROKznrPCzH0BiPtt0oDMHXT+PSLayc1BOdiPMknQLwdgJ/r+a0Qk0Z0LXjJ1xvcUSCXo9uDNIEH/KhqNbmmvd/ZLpwoS16R9NuPhla5ZhpXXX4iSN55CaZMvegCLfd2w/tkXANtun9zMPUsE3T4a7tewRNAF32VLEJt2J+IfzUJpqQEmcfX3L61BySndPqz9j/s9y40WC5GgC7LMfCqAf9lAWQLM7eiWxtjBgdNLgn4UgIdtYNG6qMRdOJ2ICtWCxI7mayER9XGIo61qzCxkULC3c86pcCNKuIMDcaETdNGMyjqxI9cT0UV2KhRzWQf7ZS4R9OMA2ElvuAzAhkSU8y5zzGw3bZz4WMs+5JpfvYP9KJMEfQ4AOzxhEhGdVwzvup0PV87ikQsE/aKLLhp66623Jo3iPnv27IFbb7317gAsJJF2BrXf7xciurK0tLRTfy23CPrq1avv8vv9CZ9PbJslPfZae2v53wnDMBrj8fiHfr/f0TqT8Yj/zoUXXvjUrbfeKmnUOpRUBN0kGyuYeUY5J3y4Z0Kf2CO37hasWx0l9qO63o/gLvui5K8nAF0qOtaiFzlBD0se9Alj0XfbJHnQjQTw+qtYevcUVAbrAF8CBvnicX/owVn19Wfu/2lhas/NtVVwGvSWF42ZHwdwqI0d6RYiGm2jfNKiDg6cXhJ0SScpAYnSSe/yMoBriEhSfxWM5KoGnZnvAyDpA63Kt0S0udXCnZVzcCAudIIuB+p/2sBW3EIk5dQSG3WKuqiD/TKXCLpELj/FxgRKFiK5QM55YWYnmQv2dvM74WA/yghBZ+b9zPSudubxr0T0gJ0K+VrWEXHKtcHmAEH/JlWatZdeeunMnXfeWQ6vnjoNM/PH5eXlnfrxuEXQTXLS4XIQjXV9ff2AeDz+dTpjlgjKf//73/e64YYbXk227qwQdMMwPoxGozuINn32QbtXbL/0g+tL4g0n+MA+MvxYjjJ0P2oUsPfvAV8H1khFTtAlSNxfJlxuEvQ2S1i05z/NRfVdtyH4/WcoKTHAEN/z4Nxvg2Wjtnz7V0lt6Om6z+aeVKgadPP9Xg+A+F/b0XoeTERPpzsnDg6cnhF0E4vLAFyV7rgAfGVqi2YUQmTqXCToDtaOTOttRHSGC/Mr1iflgPj5WJZCJ+hiQXWIZTQA9T23AZa5P40EMM1GtVwi6BJMUwIBWRVXvjFWH5ZOOWYWN7HlNtzF5HEXEZGkiHRFHOxHnhN0Zu4C4LMU2bfajl+yqfQhoqQKO1cAy5FGlKCnmAiLUdytEPRThw0bZsdc1OkS+aCsrGyHziq7RNBT9o+Zt6itrZX8pWnJ5ZdfPnzSpEmvJWvECkFn5o/Ky8sFlyYLhs+26zp0c1/N/QGObyER3eNxH9as3xfdzrgA2LRfezpZ5ARdNOhHX3s5+m03WEwl1p2Khjo03DcVsTdeQDSUaAoM1+gPch0FLr7ovbobbwca01oAOV65kAm6efATfy/R/lr1o5PDyNZEJD6FjsUByfKaoAfNKNSDHA+qfUW5/HgMwH+ISA4reSe5RNCZWSImS+T2Kpum7YL774noBTcmwMGBWMy/7WiY3ehm6zZ+JCI7kZRtPZ+ZZS+QNFpW5aBCdQmxCoDdcg72y5wg6MwsppJ1AGR/tSJy2d/NDVcUKw9zowwzPwfgABtt3UVEJ9ko32lRB/uRpwSdmbub6VztxAeRMc4kItG6F4UoQU8xzW4R9BdffPG0XXfd9bYMrCol6B2AbBjGx9FoVPJLNrHLqq0QOr80dGmE45f52QiIw3R1PIjyvQ4GDj8WKCtf19SdCEt+/AkPVf0Tyz79AoGC1Qe3By9BQLiyB46aMBb9tmtj4s4G8L93sXzK9ejO1ZD8dTHywz9g8Mo3flm2456zFnyXgTWf1UcUOkEXcJlZNMeiQbYqYvGyDxE5dulxcOD0lKCbOAwDIJeFVg+TVvGScpIDWPzU5fcKEcmhNeclFwi6mav+DwCuBfA7B6CJRkY0M6KhSVscHIjTfmaaDTxCRBJnwXVxgIWYtwsBy4v17zpgDht0sF/mCkHvbwZSszpy11xRrD4w3XLMPM68NLTa1OtEtIfVwqnKOXgHPSHo5j59tLh6AdgkVb87+PvxRCSuS0UhStBTTLNbBP3ll18+beedd1aC7uC18kKDXgUERu8YObs8EZsQ4kTzYdvwY1GND71PPhsYvjc4EMRah4QmDfpPuH/c9Vjy+Vfwc/EwdCZCaff1cPR1QtDbaNAX/oTqO25E6Mc5CPnF7xxYVtYdPc8c+/34o/42oMrDmAsOlpInVYqEoItm8g2bEbEvJyI7OajXmR8HB07PCbp0kJnFJ19ScXlB0lswEHIiEeDFVeCZXI5knS2CbmreJBXgQQDk0Gcn0FDbvcDV1EYODsSe7E02GvWSoNvNf140UZptzE/Kog72y1wh6PsCeDHlAH8rIPvhH22Uz3pRZpbLQwkWZ1VcvYRwsB+5RtCZWdK2Sjq8gwGMACCR7Z3IDwC2yIfAgE4G11EdJegFRtCZ+cPy8nLRFCeVQjRxr6mpWUxEPZINmpn/Z/rmN2n0lu1QekYZx64tMeJd1nkJjACWGBH0PON8YAdRlplWvaJBn78Ad42/HsvmLUCgpKQpSnmhS1O0v1gMQR/hpH+MQ79tRIPOzXGRlyzG6ttvQfDr9xFpMm0HVgci8B/4F5SPrvqSuvcRU+CCv8koBoJuEtPNAIivoPiOWRFJALA7Eb1jpXDbMg4OnBkh6CYWQtIfAhB2MjabdeQdkrz0klJIfHPTch2w+eyUxW0S9JUS0d70zxYfbUm9KJGYZa3ITzZc+cmFkGArv64AJBZCJYDeZjyEgXJYcwl/SYHXj4hWpBysxQIODsQWW/asmJcE/TDTjcNq528morOtFtZyzQg42C9zhaBLIEc7WtFbiejMfJp3M23pFzb6vJqIZN9zRRzsR3IZP9nGw2W/lp/420u/xYR9UwADAAwGELLRVrKixxLRgy60kzdNFATFyIEgcV9XVVUNmThxYtI8z5kycS9igv4LEckBrkMxg+cNFcfE07YNXFzh5wuDnOjWzqmWxcU6gLr1NkHpcaeCBm8LmCnajMZGzP38KzTEEyjtVtFESAtdkS4bRKy2BqiPYbNBA1FSXgoSdr58MRIP3o+62S+ivImuGajxhdC46x9Qcf61wEabzyHyiampEvT2KzLn86B38h6JplKIqVWZB2BbJ/6CDg6cGSPo5oFYNLYSTVa0A5kSuWCUoItyUHmYiJJ+czLVIZsEPVPdsvOcc4noRjsVUpV1cCBO1aTXf/eSoJ8I4C4bAziTiG61UV6L5jdBtxvhv4qIxufTpDvYDwwiakpj5IY4eL4bj3WzDYnRsVM6LnNudiZTbSlBT4G0RRN3Jegd4JhLQeJgGB+9NmK7XXZaNu+iMsM4P8hG16QRr9iHuhoDtMVQhE86A+iz0VqayU0utT6gOQVccYjcQiQSTcRcLiWotgaJpx9H3ZOPoDwSByiBBHxYufkQ9Lj0RuB3OwHkn0NEStA7XiF5S9BlOMws+Wolb61V+TcRCbG3JblO0E0sxMxdgpJJvmZJxZZJWWVqnkSjJJHhsyJ5TtDlsmNPtw9+eXgg9pKgizb8JhuL83AiksCJKjYQcLBf5ooGfSyAK2wM9WIi+oeN8jlRlJnFQsjOwTFERK4E2M3D/aj1nNUCGEpEaQeczomFYKMTStBTgKUE3cZqalM0kwS9urpaCGEXSe9mBqJYq7n1gxGuXrFgzgn7vdhvyXd/C3GiLPXCJzTUAzRsb4SOPBHoUbmuLrjQVeet59K0IBDFOTfUwXjlJTT++x6UUDUoICnVgGUVG6DyvOuA/Y4AgmLlBCXoyV+dfCfokkLqYwAS3MeqjCKiu60WNsmv3bRBGdWgtx4LM0uEajlknmDzEGYHks7Kig/nWCISU/iMSh4TdDE5/T83TdtbgM/DA7GXBH2MGRTK6rrcn4js+CRbbbegy+UxQb8SwOU2Jud8IrrBRvmcKMrM4tIj306rUupWoMQ83I9aMBKN2J+JSNI0Fp2k5il5AImauP82ScVo4i6jHz16dL9EQuKNi7I3QX6/v4mgS3SKI/pvEBn45ZtjSj5948jSxlqfnUXf2EjADvvCf+jR8G3YpwgMtpO88ELS6+oRn/kc+NF/IRgwAB815TuvDkZQcvp4hI46HShZ+/1Rgp5878xrgm6SZ4lz8ZaNQGliij2EiL62+klxcODMGkFvRcwkAI5oDMWsN2p1rC6We1IOu0T0uYttdtpUnhL0uWZ8hJ+9wCkPD8ReEnTJ/iBZIKzKfkQ002phLdeMgIP9Mlc06HYzhMhFpJ31lBNLhJnF4slq/Bbpc6CIs0o0HeUBjCQicSMrSrHDVXIWICXoStCTLc5pFag4aGDksmii8eygEQ9ZTeTcur1Egw++gUNhHHoM/Ftt5SC9bs6+OtY6RoTEypUwXnkZgccfBpWsbkqnJtIQKQMfdjrCJ18MRCUuyNotRQl6cnTznqCbB0Ix677O2iJqKiVa952tRmF1cODMOkFvwYKZ5SB2rPmTaJOZFNE6iA/vJZnwUc9Dgi6XGCd6oTlvNf9yUykas3wRLwn63wBMsgGEaMwet1Fei+Y3QRcXITvZPq4lIqmTV2LTxD1ORK5lCcnDC0MJ3HkMEf03rybZ5c4qQU8BqJq4O19xmTJxT9bDVytQsXX/knFRjp8W4ETY+WL3Ib7aACr7wnfyqfD9bmvALwEri0AEtKWLEXtyOnwzX0GgtBbwy/mf0BCJIn7wiSgTcl6x/tpgeiYqStALn6DL6hBT1H1svAk3EZEc2FNKPhP01oNjZtGqHwlAUgPt9FtqiJQQpFvgO0lt47XvXh4R9NUAxmQiAFkeHoi9JOgnA7jdxmI+lYjslLfRdOEWdbBf5ooG3W6MgruJaFQ+zaSZaqzeRp+XdRb02EY7TUXzbD+SuCAnENH3dsdZaOWdc5YcQkI16L9NRrGauLddjp8ORrdNwiVV4UTjWUEYtszaO17aBCPmQ42/K6KSgm3b7YFgsPDDuC/5BfXT7wW/9RIiZRLfRKyOgPpwFI0Hj0L01DFA1x4AtbNNUIJe4ATd/PCL7/WnAJKmOOwAhoOI6NlUnxAHB86c0aAnGxszi5nJAQAkL+7+ALqlwiHNv4tZ5R+I6M0020laPQ8IuqRx+xeAK4lomVc4tLmUUQ26CQgzy+WUpAi0KjcS0blWC2u5ZgQc7Je5QtCFbN9pYx5fIaK9bZTPelFmlhSldginnJ8kTa0rkicEfT6AvwO4l4gKPvuPlYlVgp4CJdWgW1lGHZfJlgb97g1QechG4WvKE40nBpFwgZy3nDQIbPhQHa5A9E9/AXbeHajo1pwXvNDESADzvkPd4w/BP+c9hHwJwNwzY8FIwvjr+Ub42NFBdOmQnAsaStCTr4mCMHFvGR4zHwTgaRuvwFIAWxPRL53VcXDgzHmC3obEyY3XLiZh/72ko/PIf0ZI+h5E9ImNObJcNIcJuqwvCUw4lYh+sjwgFwo6OBDLJdcdLjzaaRPfeBWYjZl3BvC2jY69RET72iivRfOboB8CwE4QsPlEtHE+TTozy3q2E/hwJhHt59YYHexHbj3aSjuSQu0WucQjogYrFYqljBJ0JegdIlBaWroLEdn5qLZrJxsEfVolNjhss/CESLzxrwE3yXmr0bFBWN0YRnjILig54GCg7wAgGAJYTL9F8vO1akqhJncNy5cB77yJ2ln/hX/ZPJSISTtJOLgmWVW915FvRS+fvDu69CjvQHPegpQS9CIh6DJMZr4ZwFk2PpwvAZBgUElvtwqdoLfFipl7mmT9YMHGZsTfVND/YOajFzNvVyXHCLpoqV4AIL6Lz7uVpsguYA4OxE8S0Z/sPicfyjNzJYAlNvpaJ5Yleli3gVh+E3RJx/qZvdGiNxF5EuDRZj8sFWfmM00Saqm8xBAhIqnjijjYj1x5bopGxAXrQCL6NhMPy8dn5CeTaIO0mrj/Bkgxm7g/1Bs9DuwdmlxmxI/0u2LW3skrTUGsWtUIXq8PKg47EthhR6Dbevkb5V12Askr9/WXiD/3FL6fORv9NvTDHzTATeScYBAtCQDX479zl6HHxpNBvs6iVCtBLy6CHgYgKb4G2/gQShCzpEHmio2gt8aNmUMmSZf88ULY7aTnSTYF9xHR8Tbmx1LRLBF0sQqYB0AOd6J9FuuA/2VaU54MIAcH4oIl6IIRM0vQp66WFlRzIU21ZgMsE2O7aSlzxcRdvh2S69oOH8mrQILM/BAA2cutyjlENNlq4VTlHOxHqZp06+8SCO5htxortHbsvBA5O3Yl6LlJ0Pfaa69+Tz/9tNySdSjMDMlbnkrGjh271w033PBqZ+Wm90XXA3qW/ysSqxvh80hz3u757GsyeV8Z88O35XaoOHQEMGBzICTJ3eRUkmpkOfB3gd8wgFUrgJdn4tuH78UmUUKoKUtdi+ac0BgMv/srhc8/652V70yPx4+G3y9RopWgNx8+TwNwm43ZLCgT95ZxM7OkOBBztYhFLBoB7JYsd3cxE/TW+DFzKYC/mOnbRNvkVOSlHkpEHzltoKN6Ngm6ELWxAMoAyLhkrchlhJj7S/8kyIX8ZG1IUCXRpkqKvuUSrtLUxC4gopVujsHtthwciAudoL8CYE8bOD9ERLLmVSz1XPIjAAAgAElEQVQi4GC/zAmC3nRUYhYXlI0sDlWK3UNEJ9gon9WizLwQQG8bnZDvomtxQxzsRx8CsJreTKLNj7fx3W8Ng1h0bUtEYuGl0gaB1OwoDyDLBYI+ceLE7auqquQWsEN58cUXT9t1113tHOIdIZ9BDTq9++67k5mb7brbkm3531tvvXUFgOM6Gwgzv0hEjxGRHNLaiWEY/rFjxz46adIk2eA6lIf7RTY6/HcbPsUL5w0OGnE56GVW2I+6Rh9qyirQbdge8Itv+ib9gEik2T+dc4upS29IPPPFz3zpYuCLT1Hz9izEv/0cXREHfPGmu2zRmieIQOR7dGW44rLK2ctEW8XMLOmjlKCbq0wJ+m+vmwMsxCRZPtDtUlI5OHDmlQ+6k02KmSUSvKSs6uekPoBHiegIh3U7rGaToC8koj5uPj8X23JwIC50gi4HeAkAZVXEF3VDIpKLGRULCDjYL3OJoIsPuviiWxW5oFs/Wy4sVjsp5Zh5ewBCeK1KXPKlE5FcTroiDvajB4lIznmWxMF3v3W77wDYnYhk3CqtEFCCnmI5WA0SV4wEvbq6Wg7VogXpTKgzLXk8Hr+qa9euqT7cSRnu+zug7+YomRIE9g8nGizo4z16/1kCyIlvug9cuTGi2+0E/447AX02BsrKzCjnwnqzRNZbkGkyZW8Ali0FvvgEde+/g7q5X6AsXo2SgGjMm9VYBsgwfL6Fhi/0j6+X103fZu5vPoRK0NddQw4+TgWpQW9BhZmfAGDHn7ZDbZmDA2fBE3TzwCcmOhMAWEpX12bHE+LTy00NtBL09t8UBwfiQifokopxps2v73VEdInNOkVb3MF+mUsEXfYyuXi0I0cTkZ3sAHbadq0sM99kWj9ZbfNNItrNamEr5RzsR7YIuvldehzAoVb600GZq4nocod1C7aaEnQl6B0iYCFIHNXU1AhBF1NFx5JIJK7p0qXLZU4auHtj9P1zz+DUiJHYS1KpOWkj3ToxIb7kg99INNloggmJRkJ1IoA1oXJ032YoIjvuDPTtC3TtBoQjzWTdY6LepCVfe13BQDwOVK8G5i8AvvwCSz94G/4l81GWqEWJGCiR+Jo3a80N8i2Jke9xSoTvi3y85n2CqNV/EyXo664aJejt8JBUYuITvKGN92skEd3bZp3Z9aksCoLeghEzC3m51gbGLUUPIyK5RHFFlKC3h9HBgbjQCbq4MkigODuxFMQisX8+BQNz5YVy2EieE3TJYPGxzaG/T0Q72qyT0eLMLOtezPftpCEdS0RXudlRB/uRE4K+nvndd2IhJZa4exPRLDfHne9tKUFPMYNWNehVVVVDJk6cKL5yHUohmrhnk6DP3bXvxpWxRfdHErHd/RK+LAtvYoMvgFUDtkPlgC2x+O1X0WXlLwgbjWi6KWAfYAQQSwCr/GFENuqHkk0HILj1YGCzAUB5ebOvuo+a3ANEbZ3uGFp0803EXBprbGwO/Lb4Z+Crr7Dm809Q//3XCK5Zjq5BgCQ6OxImMQcM8scTRLMRLL3u9rdXv3o2IPmD26n8laArQU/1ujHzcAAvA82vgwWpBrB964iuDg6cRUXQm7YZZvETtOurew0ROboU7WgelaArQbfwfjtdq+L+driV9ou9jIP9Mpc06PKdkLSIEvHfjhxMRHZSfNppO+2yzHwegH/abOh3RPSFzTqdFs8EQTe/R3a/+637vQDANkS0ws2x53Nb6XKCnBh7LvigK0F3thQcaNDpx51CW66H4JRIvGEPP8ezsobr/CGs6rcdNjjjcmDzQeD338DKWc+CP3uHy1YsQokR/+3SgH0wYoQ1MUaiWzcENhmA4EYbI9Lvd0D3bkBlTyASBnwBIBAAfG05TbIhmtxZgrwl5NcIJBLAihXAiuXgBT+heu4X4F8WIvHTjyg1GlESJsAnxLw5bZrRHJ19DfuD38MX/M+L31bf8cflSOrvb27C6oPearmrBr3jd5+ZrwZwqY2dQfz0JL2jXAzJgV416CnAY+a+AObawFiKPkxEx9isk7S4EnQl6FbWEjMfCOBZK2XblNFIzxZAc7Bf5gxBN/d7iVo+2sJQWxeRIMRCaHMuf7ZJiiVuzwY2xvQJEYk1gauSKYJuzqPd737rsT5BRIe5Ovg8biwr5MZtvDJA0N8ioiHJ+s3MXytBdzarNgk6Ld09uF24nm4JG/FhgbV5x50922mtOn8QddvugfVGXQTeagfU+YIo4QT8q5cD/5u98ocbxr68yapFO4LjvcHwE/g3sm4QkCDUJBh1/goYFV0Q7t0H4e49YER7INyrN9BTLIUMwB8EgiXN/4pZfJNwMwmPNzT/xC791xrEFi9GfMUv8NfXYM3Cn2AsXoxQQzWiqINfAsJJVHbTvzwOQkOgBHVdKhGq7Dmv5scfrljljz7/+Rs/LhnRHEG5U1EN+rrwKEHveLkwcwDAbAA7pVpTrf7+TyK6wPzQK0G3ABwzC0EXom5V/ktEQpZcESXo7WF0cCAuaBN3832W/UBS49lxfZGqYl0zjIg+d2XBFmgjBUDQ5YwtWUDsyg1EdL7dSl6XZ2YnFw5/IyLxWXdVHOxHtk3cWzpsfvffALCzw0GcTkT/cli3oKopQU8xnaaJuxL09jhl1Add6OUvuwSHRmN0a9iID/ULgc2C1AdCqN9uOCpO/zsS/QajgQK/2aYzUMqxhXjg6u3rH7pzS9TV70mEPYgT2/kNo5SQEG9v0+ZXoqj7m1KcJeIGGhKEhngADSCUrBeFQYxEMAyUdQMFTO1603gNcDwGxKqB2lUIJhj1K6sRTBgIhwwEyGjyKSe/v8mvXH6ClDgBNPhLUBsqg9GzD0q32g7lOw4HDRx0Pw3codNI+21hVoK+LiJK0JO/iMy8meSnlqi0Fl9XMeyQIHovODhwFp2Ju0l83gVgxxfzOSL6g8X5SFlMCXp7iBwciAueoJtrVS7frk+5qNoXkDRMu6o/eqd7rd0LzZzSoJvr4zPRiNtcH/LN+CMRObHOsPkoa8WZeQ8AklrQqouXNCwxnfoQkaQec1Uc7EeOCbo5j3a/+63HK9HrJR3oHFdByMPGlKCnmDS3fNBnzpx5+i677CKpqbyWD8rKynbo7CGxWOykWCx2e2fh1TMVJM4wjKuj0Wiq6I00d4cuQ9fnurvCRmJwtsi5xH/7dbu9Grudc3U4vukgxEhIcDuytuDxqtO3OG7i/TXTAX9g6/W7r+dv7Dc0kviTL1a3J5FvM+JEBYMDQSMBX1NYNtNnvMliXTTsrTy/ReMuRH6tg3lzQLcmM3UyHdf90gn57+Z/xaV9LSmXC4VwFIkevRDoOwjdh+wKDBoC9OiDxvKuaCTfPWXl5bbyiSpBV4JuZxNjZjGnftBGncXiiyZEHcA0G/WKlaDbzbHrag5hJehK0K2+o8wcBTAfQFerdVqV+wbAcCXpHSPn4EIzFwm63UuGFjCE3O5FRE408A6WYvIqzLwpgPcc+NNPJKILXe2M2VimCbpJ0u1+91sPXS5qdiSiei/wyJc2laBnjqCfOGzYMPHN8Ez1a0btnlNWVrZvvhD0RCJxQzQava62trbD/OWly+fTqtuv2cr/yhM3huurBwXaxyzz/F0TbszwsREKvxm49blQw4Dt+8TXmpz/9ngiMph59cSJE3eoqqqSCLTryAdDhgQ3x087+bbf+gRffc2R/mU/B7B8cTCQaCADvub46WZ0d6HtzZI8LZuUEQt3Eanf4AshIbHp4EdjRSUC3XugZPNtUTpoCHzb7Az07INGf0hIuUnmm/x87ylXgp7WGlINemr4mPk+AH9NXXJtiRcAPALgbht1io6gM7OYEb5tAyMp6mr6KiXo7dF3cCAuCg26eXCXtKqSF92JiCb9ECKSA7xKKwQKhKCLG8RXAPo5mNxlZiTwTx3UdaUKM0sE85cADLTZoFww9CUiGYPr4mA/SkuD3jIAZpbMLLYsNFsN/hYishuTwHXsstmgEvQU6LulQc/mJLd9di5p0JsimHcgsjBLEzHgw1fxyy3jUfHjFwhzSvdob2AmPxqD4VnLy6Jn9nr5F1fMbmbvOjBa2a2mS/fFK7co98X6VYcqNgnWr9khnGjoFyCfvzFQUpZg6mIYiQCzAfk1adeJ4PNRE9GOlVUQwhHyBfyIl5ShYtAQRDbcCOjSFei/DdC9JxLR7oiFIq294NfBSAl6+ktGCXpqDE3NmaTRsXPw+kgiu6dufW0JTwm66VsnEdMfJaKkGTts9DetoswcAiC+fnbM2+WZhxPRY2k9fF1iIFqrpDFa2jxnIRE5ScPjVncz0o6DA3ExEfQwgC8BiKbRici7dyoR2bHKcfKcvKpTCARdAGfm4wHc4xB8MQ8XywAxL8+oMPMgAM8B2NjBg8cQ0QQH9SxVcbAfuUXQJa2iuLjZ+e63HpO4LjxjaZAFWEgJeopJtUjQv5k4ceKQqqoqCWaS85IrBF3IOZHYabcxFGduijgef2cmltx2Fbr/NAclvE4q7oxgbFqcM4KhR2PhrpeGZy2VYEzJVdrOekVVAO14wAHBSN2XkV6N1aWBsq7+hd1+La+uj3RJ1CJs1DUGA7FGP4nKPBRIcDgYD3TfFPtfeMUMRLt1hz8ABIOIlVYgESyBLxBAi4b/t1zoHXdOCbqzSWtdSwm6NQyZWVxv3gTQFIvBA/GaoLdEoRZtx38A/BvATCJq9GAsnTZp5td9CMCfbD5bbvoq3Uxloxr09jPg4EBcNATdJGGHAnjc5tptW1x8js8gIskzXfRSQARd/LbfshlctPX8y34sbpPXm+dLz9cGM58I4GbRKzl4mFxE70REnh1yHexHrhB0811P57svFgVbF6tbixJ0JegdIpApH/QWDfpaIsmMEqMRePtFLL51PLov/EZSljnY89Kr0mzWTvFEqOSx4KaDL6R/vy85Gt0m56k6mfT97HPEsPCX02Z+7yOyk8Kj3fOUoKeagtR/V4KeGqOWEsx8MQCvNAVeE/SOco6vBCB5eJ8E8EImNOvMvCuAqQBEY2NX3iMiO1H1U7avBF0JespF0kEBZhYXlhFO6raqIz6qEvF5AhFJ7IqMCjOXARhMRO9k9MEd42nXfzvnfNBbfSdkbxPiKlZCTkW06GcSkZjMeyLMLJrhKQD2d/gAuUyQgGiemuVnk6ALLml+918GsG+mLlsczqMn1ZSgp4BVNehJAXIlivs6rTMjxHEEPn4dP19/EXos+gbBLKRSayLnTWbtkcde+K767EOWYZEnb18ajQ4bNiwyc+bM70kJehooulNVCbp1HJlZtCMviq+g9VqWS3pG0JlZNCNCAMRkL5lILl6xEBD/eTkc/s8trYhpXn8wgNPksGIZkfYFxTT49jTqt6uqBL09mg4OxEWlQTcP7RIoTsxfnZq6twZeIj/PkIsrIhLtq2fCzBUAJAvCIQBa0hX29iL6tp1BFIoGvWXMzJxOrIKWZoQAywWOBGBzzdKCmcWMfQwA0Zync4lQRURO4zFYXh4O9iPXNOjmuy5cc2Ya3/1LiOg6ywMukIJK0F0i6FVVVdtPnDgx636JVtZlXV3dSYlEQj5kSVNAZEqDvra/Qs4TjUi89hTW3HEtui76FsEs+ZyzL4CGYNn0n7v1vqjvc1/+aAXTTJcZPnx4+Omnn/7e5/P1SufZqkFPB73mukrQ7WHIzL0BfAKgh72aKUt7SdCPNE3aU3aiVQH5HkgKNPHRFm2Q5HGeayUyLTNLWjrRzgwDICl79nIBL4mePYCI5CLBNVGC3h5KBwfioiPo5t4p1hyvAShxbUEC3wEQv1WxbJEUuWlFgjbjZ0icBwnIKO/h/wGQYGat5SwiEk1q1qQACbqcT2UOWy5B0sFWzDCfACBuQc87WROmtYRoysVSQfrUYWBjG50UFw0JeOh5cCUH+5GrBN1819P57stFi6RZfN8GvnlfVAl6iim0qkHPJ4Iei8VOicViQtCTjj6jBJ0ZvngjMHM6au6+Fl2WzM8eOYevwSgpvXdVsMtV3V9flA2zdkubihD0Z5555gfVoFuCy9NCStDtw8vMog0Ws3A3xUuCLn2VPqcrYqDzi/kT/zrR/MkBTTT08hOTWdHOuH15If0+mojEb95VUYLeHk4HB+IVZuA0V+fGYWOjiOhrh3VtV2Pmw82MDXZyRlt9jhCzLwB8iGbiLlpUuaiSYGLy7slPNKDy3ol1jFyMbSIRtc2fROPeykI+68+JaLDVTnlRrtAIuknqZD7kknMLFzGTi1NxSRBLC7k0lcwAYiUpMaRarwcJZin5vLc1/eF3d/EiSYimpAxsl+3HxXGubcrBfuQ6QTfn848AnnI4RokBtR0RSQyYohAl6Cmm2SJB/3rixInbd5RaKxdXUc5p0BtjCAg5v/1KRFcshF+Cx2UBOCaq40B42mML68aOWAA5MOWsmBr0uT6fT24lHYtq0B1D1/rjJ2bHt9lo6QAiet5GeVtFc+VjnKrTzHyL+AimKmfj754QdGbuZhLqdEwZbQzDk6JPENFhXrSsBL09qg7eQS+mxmmbO2Q6nzQzyz4g+0E+y+5ENDtbAyhEgi5YMrOQ5FfNi5Nswevmc78XyygiWuJmo5215WA/8oSgm/OZznf/fiJymrYtU3C79pxs8CDXOt/SUFVVVWjcuHFy49uZL5PcupxLRHfZ6UBnBL1VirCvxowZs+3NN9/squmgnX7aKfvJJ5+c1L9//zs6q5MxDXq8EYFXHsfqmy5BxZqlWSPnhs9fz8HInc+uqL70kK+R8zd0BxxwQMmMGTMWEdF6dua+bVkl6Omg11xXNejOMGRmSbf0ngRZctZCu1peEfSTAbjqt+3SeK028y0AIV2rrFawU04Jenu0HByI7UDuddmME3RzHxWSPtmCttrr8Ttt/yEikjSMWZFCJejm2nCaXzwrc9HJQyVg3YFEJFr7jImD/chLgp7ud//YYkmxqAQ9xSuSgqA3Jadm5jV+v/9JwzAShmGsNdPy+byw2GrusGHIo9tLyzM7+rvP52uKf8bMA30+n/hTJZ1/Nwi6YRgL/X6/XIrIC9nuWY3ff+2PvP3siXWP3rFbZOmPWSHnBgNGIFQfC5U+8FY9XbDvhyvTOsROmjSp4uSTT54k4zUMg1ow7+zQkWwu285um/UkC+A1v98vJnyy0MxE6U21BGuZ5+7MLH1JKkrQ0/9GKkF3jqGZO1bM/SLOW1lb0yuCLgHf9nShf9loQszpdyMiMQ/0RJSgt4fVwYHYk7lx2GhWCLr0lZn/DECyJciZId8kBqAPES3NRscLmaCba6On6Ue+SzbwdeGZEo38cCL61YW2bDXhYD/yjKCbcylR+p1+98U9RUzdxRKhoEUJeorpNQn6O0S0XUdFmZvDjHcWcC0XV5CZgzxp11wi6HOi0WiHqYCmbYrwbhuud1oPo/GK8obaqB+JjJu1y21FwhesiUXKpj22KH7lcXOr0zY5uvnmm3ufeOKJ35gBRZrwTZWL3Mn6YOb6+fPn99lyyy2XJ6s/cuTIAVOmTPmms/aVoDtBf906StDTw5CZTwdwa3qtNNV2naCbAe3EZ9W721YXBp6kCen3/kT0pXePaCJVEgRviMVnLCQi0YYVtDg4EOcSHlkj6ObhXQLHPWgGScwlXKz05WIi+oeVgm6XKXSCbq4NCc4n0bzPcxs/j9sTCyxJ+Zb5nMHNF18SX8GOZainBN2cy3S++xKXQC6es4Knx2tlbfPFRNAlAMR5RNSpaXdb4E2C/i4RSaCIohEvCfqrwxEYXB06r5zjfw+yUSaLMBsL0fD51hgl5TfeXV8+4dQPF7kSrKOFoJsBn5rU2B5d3tR99913m26zzTZJLxVOPPHEgTfffHOnOUAdEvTjTX/BzlJOzSGi32Uhd3zG31El6OlDzsz/MdMWpdOYFwRdDoL/TKdTWaorrgOHEdFCr5+vBL09wg4OxF5Pk532s0rQzcO7fFvE+uskOx3PgbKi1eufjZzNxUDQW+aXmQ8y477k+mWfWDD9jYgeyebadLAfeU7Qzfc8ne/+tUR0aTZx9frZ2eBFro/Jog+6ELAxRCQ+TpZFCXpSqFLmQTcMo50GvQoInLVjuKpLInZegI1IthYgk6+aS8uumPLzmslnfwfXYge01qCbH2mvhphNgn6qSVok8m0yUYKeHBsNEtcGG3HHMFOvbWh5c25f0AuCLpq8Y9LoU6arikWXEJtLiUhMbj0XJehK0L1aZMy8r+SwBrC1V8/woN19iEjMmTMqxUTQTXInlzhXAhjtQsozt+dKDDTvBHBRNkza2w4mhwl6Ot99+dbJuyYBBAtSvCIPGQXLIkGXPHrXEdFYO51Tgu4eQX+uf/+SXXsuuTDSUDMmwInSbCw+iQ8f9wVqKFx65QMLVt10wjyklSO1LTp5SNDvLS8vl7yeloWZLwJwRYqUI0rQkyOqBL0DbJhZ/LxfSsOc3HWCbh4ExXxb3pGjAciBIldFzP5GZzpXrBJ0JehevhDMLO4lYrU1HsBGXj4rjbYlVeJzACQX+ouqQU8DSZtVmVlSsP0dwJFpfDtsPrXT4hLJ/xIietPNRtNpK1cJuvl9Tee7LxZi2xBRUlfPdHDLdt1scCTXx2yRoMtz754xY8YpI0aMkM3UkqTyQbfUSB4WctvEffowRPZJRMaVceKMYCIWzdbCiwdC1bXh6HW3LVh+8yXfI62AcB1Na2sT92brds9G6pYG3S5Bl6CINwEQ/yHxB0smStCTY6MEPQk2zHyNWDo53DI9IegtfWFmSbP2B5Ooy7+StzwXRA6C1xOR23nlLY1NCXp7mBwciC1hnaFCWTdx72iczCzfG0kVKBrT3TKERarHSIYECWp3NxEtSFXYy78Xmwa9LZbMvKXpm36UmdPeS7jbti3a3P8CuIGIJKhoTomD/SgjJu6tvq3pfPefJKI/5RTgLnXGM/bgUv8sNWODoL8IQEL0W46yaSUPuqVO5lkhNwn69D6I7Ns78o/SROykACfC2Yi21BS+nnwrEOk69oZvV9574WLUeDElrTTokVbs3Iv3zC2Cfk95efkJVrFg5i4A7rPgL6wEPTmoStCTYGMewkUDIYGi7IqnBL11Z5hZyPkBAA42/62029k0y0sAuOkAJC/sJ2m2lVZ1Jejt4XNwIE5rDlyunJMEvc37t415UXYogM1dHn+q5j4F8CyAR4noo1SFM/X3YiforciemL6LW5IQ9d1TKBLSnZ4vAIh/uezD89JtzKv6DvajTBN0uXxz+t0X2CQAnxuBZr2aAkftekEcHHUknUo2CLrkSj/GzqZarCbuoVBo12Aw+FYn85LSB700Xv/V+CEDdjq7W921ZUbspCAnQtlYcHEiJLp0j/vifPK/fl7+sJs+523xMQn6d8y8Nm2UR1r0+p9//nmT/v37Jw0SN3LkyC2mTJnSaQRnZralQWfmrcwIu6mCJipBV4LuaFtn5r4A/gcgarOBjBH0NmRB7hy3N1OxDZec4wDcJuxiwidpaUQ7M1P89bNhRtvRfChBV4Ju8z11tbiZqlEsWoaZF3u9XHyAuEbOASBnIbFUeZWIFrnYvmtNKUHv8D3sCuD3APY292XJKhRMA3TJXy77sPg9z/QyfWUafWxXNdcJunQ4je++VBdXVblY/NxN3LLdVjb4kutjtkHQJZL7yUT0b6udOOWUU4L//Oc/7yMiiczpE7Nlq3WTlcuhg1VTvmzz55N+JRIJw+fzlYRCob+GQqHONDNC0N9lZr/UNwyDfT5fUxuSwi3CCZ/vh8+WfnXWUd9sVr3ojBAMX9rAOQDegA+NXbs3lBw+6r3xU57ap2rOHE8DJ02ePLly1KhRz5iawGbFPVGT0YBp8i7/v7REUvsJ6Z83b97+gwYNWpGssZEjR246ZcqUxzuJpC79eqqsrGyc1Q4x8yEA7rLgi1s0BN0qdlqueBBgZvGVHWymitoMgAS/62G+N6LhKQEgJvMiQgJkXxKrHiHiywAICZCI0JK//HMikoOhiiKgCKRAwHz3RMO+qfnbBICQdglqKpYv8pP3T1I0yXsnAYTlvZNvqbx3PwKQ902I+VdEJO+nSgEgwMxhAKJkkD1Z1oXs03IRLGtClCpyTJU1UWeuCbG2FWul7wB8TUQrCwAGHUKeIJANzuQ6NDYIujz71ltvvfXiM888U8i6JRFiNX78eBo3blza5MrSAzNcqPXY5L/l8VVVVU353TuTFlxayrTgI22c2TW2/qLnpp8/cOVPZ4WMWEk2FpoEhIsFSpaujFZUTU1scXvVrFkZyZnYconTgqXb66ZlvkzNfKdrMtWFkpU2WuZ32rRp4ZEjR0rU1PMtZMZTgp7qBdK/KwKKgCKgCCgCioAioAgoAm0QyAZvcn0SbBL0r1944YU///73vxffERUPEJi0CXqd2DN8bZjjxwaNuD8bi4xFq+8PLaot61J1A5bdUzWr6bZcJQ0Enn322c0PPPDAhwBIVOtU8iURiTlZQV5qpRq8/l0RUAQUAUVAEVAEFAFFQBFwgkA2uJOTfnZaxyToYo7Uz2Lj540fP/4mK1pii+1pMROBqZug15E9QzeVGvHDA2KJnQVkhJyzz/99faDk3OvfqX22CkhpDZCFbubVI6uqqnzjxo2TYHK3WfTheo+IdlaCnlfTrJ1VBBQBRUARUAQUAUVAEcgyAtngT64PuaqqKjBu3DiJaCsRPa2IBCDal4jE10/FJQTuGlja+4guPDmSiB0aQCIbwdqbmXig5JtG4Pzwew3PuDS0om/m6aef7nHQQQc9BuD/LIAhWnNJ+3SxhbJaRBFQBBQBRUARUAQUAUVAEVAETAQKhaCLdu8IAGJ+a4UYShCIa4joCtXwufMu3LtNZMM/lwf/UVJfe3SA4xlfV82R7nyIB0I/xcu6nl326uKs5AR2B83ca4WZzwZwHQAJspJKVq9Zs+b3Xbp0eTtVQf27IqAIKAKKgCKgCCgCioAioH7c1/gAAA+lSURBVAj8hkDGiZRX4F988cUbT5gw4QUAW1h8xvx4PH5kMBhUEmERsGTF/rd5ZMN+3fiecKJxT7+RyIrPuWjOGwPhBXUlXc+6yb/4WfU5T3NSW1U309g8bUY+tdLwC5deeulfrr32WomMq6IIKAKKgCKgCCgCioAioAgoAhYRKBiCPnr06JLJkydLdOmrLY5dlK4vvfzyy3/dZ599Fluso8XaIPDM4K59dy+pvT/CiWHZ8zkncCA0Z01513NvfGXJS+pz7t4yffXVVyuGDx8+DcDBFq1TEgBOGDFixEMzZsyQ/1ZRBBQBRUARUAQUAUVAEVAEFAGLCBQMQZfxMvPWAB4FMMDi+CW/5VQiGm2xvBZrhcCSYSX9w3G+vzQR38kPI+NraW148EDo/XgkeuY1ry3/UMm5e0tUUrTV19dfFQ6Hz7No2i4Pnz1+/Pijq6qqFrjXE21JEVAEFAFFQBFQBBQBRUARKA4EMk6qvIR18uTJJaNHj27J02zFF126UwtgAhFdpf7o1mdnwd49Nu+6puaeSLxh52yRc/E5N4KhDwJdu52GF3/+iDSll/UJTF2SmPlM0yKlS+riTSXqAFwwYsSIqao9t4iYFlMEFAFFQBFQBBQBRUARUARaIVBQBF3GxcxbAZBo01Z90VuIxaS77757wqhRo9boCukUAVo5vHKbcGPD9aH6mr18nJ1o7Qn4EQuFP42XdTnrhpd/flM15+6t2qlTp5aecsopZwG4HEDURsuvAPgLEf1io44WVQQUAUVAEVAEFAFFQBFQBBQBE4GCI+gAWjR/N9ucZYnsfqcZ3X2hzbpFUZwBmrdtcJvKIE0LJ+Lb+rOUXtyAz0iEwh8vC3c9rfesnz9Uywf3lt+9997b/bjjjrsAwLkASmy0LNrzI4joWRt1tKgioAgoAoqAIqAIKAKKgCKgCLRCoBAJOqZNm1YxcuTIBwEcaHO2JajVLDF5Hz9+/Oyqqqp6m/ULtngV4Dt99+iw8trae8Kc6G/Vf8BtQBi+BALBmbHSktHhWau/c7v9Ym2vqqoqNG7cuG0BXALgDwBCNrGYMmnSpAvPO+88IeoqioAioAgoAoqAIqAIKAKKgCLgAIGCJOimFr0fgOcByL92RUx0pz322GPTHnnkkR9nzJgh2vWiFSHnZw7v8X+l1atvChuxrWXRZGPhGORLGMHQCwaVnV/y9vKvinZCXBz48OHDA6eeemqvo4466kgApwPoa7N5idU3e8aMGX8eMWLEUpt1tbgioAgoAoqAIqAIKAKKgCKgCLRCIBs8K1MTIKbuhwrRBmA1yFXrvok2/VsADwF49u233/5yl112KTrtoJDzM3at3DWaqJ0YaqzfkTiRFXKegN+IlUReX10SHL3BrJWfZ2oRFepzhgwZEvzggw/k8mofAMcC2B5A0MF4fzJN299zUFerKAKKgCKgCCgCioAioAgoAopAkRB0fPDBB8FtttlmTCAQELPdSBozPxfAywBeBfAZgB8HDRoUi0QiHI1GedasWWszfqXxjExVNWz4bNOCHcJ7dSPjrnA8vgnByBo5bwyXvrUyFD2596xF2dac59OlVktfaciQIb7ly5f7f/jhh0oAWwLYG8B+AH4HIOBw8a1sbGw8NxgM3kdE+fQOOByuVlMEFAFFQBFQBBQBRUARUAS8RSCfyIYjJISkDxkyZAKAM2zkck72rGoAvwL4GYD4P/8IYLmZXiof/NVlvl8ionmpwJSAcD/vGPlTRaLxlhKO986iWbuRKCmfvjBUOmazWb+k7HeqcaX7d2YWE3DJECAXHbkuYQBlANYDsBmA/gA2B9ATQFcA6YQSWA3gMiK6JddB0P4pAoqAIqAIKAKKgCKgCCgC+YJAwRN0cyJ8zHwbgBMcmvEmm88WrWE+aQ+PJqLpKRYoLd05+sfSeN3UsBHfIB0Wl86LYJA/gVDJg77K7mPoqfmL0mnLrbrMfA6AG9xqL0PtrNWku/S8GgBXENH1NqwxXHq0NqMIKAKKgCKgCCgCioAioAgULgLFQtDx3HPPdTnggAMkr/OZAEoLd0o7HVkjACHokic+qfywObboVRH+TzDeMNCH7Nw9xH0BNJaUzZj09apzLlvWZLGQE8LMsn4khV/RvDttgBeLkfGzZs26bc8994znxKRoJxQBRUARUAQUAUVAEVAEFIECQaCoSEafPn0i8+fPHw1gDICKAplDO8MQgn4UET3eWaWGHUJX+hONF/rBdvJg2+lHp2XjFOCGSJcZq7p3u2DDJ+fOd61hFxpiZol0PqUICbrc1MhcXDJ06NBHP/zwQ1lLKoqAIqAIKAKKgCKgCCgCioAi4CICRUXQBbfhw4eHX331VcnzfBWAgUVGtCwR9MQOwTt8ifhIgJ0GD3O8RJl8sbpw9P7SLUsuozuXLHbckEcVmVliGYjfdTG9O7Ju3hSf8z333PO9WbNmqebco/WlzSoCioAioAgoAoqAIqAIFDcCxUQyWs+0+KRvBeBCAH82A2kVw0qQfO6iQX+is8HGhgZvDhjx0yjDBJ3JV8ehyC1Xzq+ZULUAK3JxQpj5NAC3FglBF625XJJMu/vuu28ZNWqUuBpkx+chFxeD9kkRUAQUAUVAEVAEFAFFQBFwGYFiJehNME6dOrXrKaecchCA88w80C7Dm3PNWdKgr94lekgkVndXwIh3z8QIhPEZvkAdh8KTbvuq+rqzV0AihOekFIkGXaYkAeAFADcOGjTo9Tlz5sjljooioAgoAoqAIqAIKAKKgCKgCHiIQFETdMG1qqrKN27cuPUBnCgB1Mx0VIUaRE4I+kgieqizNfXVwYj2Xl4xPtJQfbrfiIe9XCRNTNAXbIiFy+/8shcuGzpj5SoP13vaTTPzxQCuLVANukzHSgCfAbgDwLNEJPOhWvO0V442oAgoAoqAIqAIKAKKgCKgCKRGwEvulfrpOVRi+vTp/oMOOqh3JBIZAeBQAFsDiOZQF93oiuTuPoGI7kvV2IS+6Hp6ry5VkYa6UwNGY8SrhRL3BWoaSrvcNWXxissv/hprUvUr239n5rGSYizb/fDg+QsBvAdAUvA9B2ANESkx9wBobVIRUAQUAUVAEVAEFAFFQBFIhoBXvCuvEV+6dGmvHj16bAegZ14PpH3nhXDNJqK5VsZVVYnyCzbv9vdQ/ZozAhwvc3uxsM+/IhGOTrph6a835QM5F8yYWS5utreCX56UkWkV8/Ufli1b9lllZWXOX5LkCa7aTUVAEVAEFAFFQBFQBBQBRcA2Am5zLtsd0Aq5jcDU3ig9tl/FBSX1Nef6Eo1NqenSXTRyS8D+4AojGL76iV/X3DJiThNBVFEEFAFFQBFQBBQBRUARUAQUAUWgqBFIl2sVNXjFMviqTRH+20bdziutrxnrT8SafNKdLhwh53F/MFZf2mXs83OX3zxiAeqKBUcdpyKgCCgCioAioAgoAoqAIqAIKAKdIeCUZymqRYaAkPSzN+p+dln96vGBRKMjki4O8Al/SW11aZerHli49Iazv0NDkcGow1UEFAFFQBFQBBQBRUARUAQUAUUgKQJK0HVxWEagCgiftXv3k6L1a/4RSMSaAsdZXUBN0dr9gSX1petV/TcWumfE2wtUc24ZeS2oCCgCioAioAgoAoqAIqAIKALFgIBVflUMWOgYLSAwGSg5bo+eJ5bWrrrCn2joYYWkMwgJv3+JUVZx3tQFyx5VzbkFoLWIIqAIKAKKgCKgCCgCioAioAgUHQJK0ItuytMfcBUQOmd45dGltatuCMRj6/mSNNkUDK6JnIdWxcq6nvnckiUzNCBc+vhrC4qAIqAIKAKKgCKgCCgCioAiUJgIKEEvzHn1fFTTAf9e/9f92C711dcH4g2VHS0kA4R4IPxrXXnFhR+/8vM9ewJxzzumD1AEFAFFQBFQBBQBRUARUAQUAUUgTxFQgp6nE5cL3a4CAmfv3v2o0oaaCcF4w4Y+iM68WQz40Bgomd9QGh3zwqwl/x4BJHKhz9oHRUARUAQUAUVAEVAEFAFFQBFQBHIVASXouTozedIv0aQf8H+Vhwcb1owOxmODfYbhT/j99UYg/HFDuHTqQ2uWPnnqh2jMk+FoNxUBRUARUAQUAUVAEVAEFAFFQBHIGgJK0LMGfWE9+NON0XeTCuxUFkLpt/OxuK4CH23/NRYV1ih1NIqAIqAIKAKKgCKgCCgCioAioAh4h4ASdO+wLcqWGSCS2HAqioAioAgoAoqAIqAIKAKKgCKgCCgCthBQgm4LLi2sCCgCioAioAgoAoqAIqAIKAKKgCKgCHiDgBJ0b3DVVhUBRUARUAQUAUVAEVAEFAFFQBFQBBQBWwgoQbcFlxZWBBQBRUARUAQUAUVAEVAEFAFFQBFQBLxBQAm6N7hqq4qAIqAIKAKKgCKgCCgCioAioAgoAoqALQSUoNuCSwsrAoqAIqAIKAKKgCKgCCgCioAioAgoAt4goATdG1y1VUVAEVAEFAFFQBFQBBQBRUARUAQUAUXAFgJK0G3BpYUVAUVAEVAEFAFFQBFQBBQBRUARUAQUAW8QUILuDa7aqiKgCCgCioAioAgoAoqAIqAIKAKKgCJgCwEl6Lbg0sKKgCKgCCgCioAioAgoAoqAIqAIKAKKgDcIKEH3BldtVRFQBBQBRUARUAQUAUVAEVAEFAFFQBGwhYASdFtwaWFFQBFQBBQBRUARUAQUAUVAEVAEFAFFwBsElKB7g6u2qggoAoqAIqAIKAKKgCKgCCgCioAioAjYQkAJui24tLAioAgoAoqAIqAIKAKKgCKgCPx/+3VoAwAAgDDs/6+5ATFXTxB1I0CAQCMg0BtXrwQIECBAgAABAgQIECBA4BIQ6BeXMQECBAgQIECAAAECBAgQaAQEeuPqlQABAgQIECBAgAABAgQIXAIC/eIyJkCAAAECBAgQIECAAAECjYBAb1y9EiBAgAABAgQIECBAgACBS0CgX1zGBAgQIECAAAECBAgQIECgERDojatXAgQIECBAgAABAgQIECBwCQj0i8uYAAECBAgQIECAAAECBAg0AgK9cfVKgAABAgQIECBAgAABAgQuAYF+cRkTIECAAAECBAgQIECAAIFGQKA3rl4JECBAgAABAgQIECBAgMAlINAvLmMCBAgQIECAAAECBAgQINAICPTG1SsBAgQIECBAgAABAgQIELgEBPrFZUyAAAECBAgQIECAAAECBBoBgd64eiVAgAABAgQIECBAgAABApeAQL+4jAkQIECAAAECBAgQIECAQCMg0BtXrwQIECBAgAABAgQIECBA4BIQ6BeXMQECBAgQIECAAAECBAgQaAQEeuPqlQABAgQIECBAgAABAgQIXAIDaJAICp4r5Z0AAAAASUVORK5CYII=;" parent="1" vertex="1">
          <mxGeometry x="835.25" y="91" width="215.5" height="64" as="geometry" />
        </mxCell>
        <mxCell id="X4Cfzik3C5HuxUFZM-TQ-159" value="&lt;font style=&quot;font-size: 15px;&quot;&gt;Home&lt;/font&gt;" style="rounded=1;whiteSpace=wrap;html=1;" parent="1" vertex="1">
          <mxGeometry x="682" y="297" width="120" height="60" as="geometry" />
        </mxCell>
        <mxCell id="d7e-pXuVDqqFeXEML5Xj-1" value="&lt;font style=&quot;font-size: 15px;&quot;&gt;Getting Started&lt;/font&gt;" style="rounded=1;whiteSpace=wrap;html=1;" vertex="1" parent="1">
          <mxGeometry x="816" y="297" width="120" height="60" as="geometry" />
        </mxCell>
        <mxCell id="d7e-pXuVDqqFeXEML5Xj-2" value="&lt;font style=&quot;font-size: 15px;&quot;&gt;Scripts&lt;/font&gt;" style="rounded=1;whiteSpace=wrap;html=1;" vertex="1" parent="1">
          <mxGeometry x="950" y="297" width="120" height="60" as="geometry" />
        </mxCell>
        <mxCell id="d7e-pXuVDqqFeXEML5Xj-3" value="&lt;font style=&quot;font-size: 15px;&quot;&gt;Troubleshooting&lt;/font&gt;" style="rounded=1;whiteSpace=wrap;html=1;" vertex="1" parent="1">
          <mxGeometry x="1084" y="297" width="120" height="60" as="geometry" />
        </mxCell>
      </root>
    </mxGraphModel>
  </diagram>
</mxfile>
